<?xml version="1.0" standalone="no"?>
<!DOCTYPE svg PUBLIC "-//W3C//DTD SVG 1.1//EN" "http://www.w3.org/Graphics/SVG/1.1/DTD/svg11.dtd" >
<svg>
<metadata>
Created by FontForge 20090914 at Wed Aug 17 13:56:51 2016
 By www-data
Copyright (c) 2013 by Juan Pablo del Peral (huertatipografica.com.ar)
</metadata>
<defs>
<font id="AlegreyaSans-Regular" horiz-adv-x="389" >
  <font-face 
    font-family="Alegreya Sans"
    font-weight="400"
    font-stretch="normal"
    units-per-em="1000"
    panose-1="0 0 5 0 0 0 0 0 0 0"
    ascent="800"
    descent="-200"
    x-height="460"
    cap-height="641"
    bbox="-236 -262 1157 998"
    underline-thickness="0"
    underline-position="0"
    unicode-range="U+0020-U+FB02"
  />
<missing-glyph horiz-adv-x="165" 
 />
    <glyph glyph-name="Idieresis" unicode="&#xa8;I" horiz-adv-x="268" 
d="M103 822c7.33301 -7.33301 11 -17.666 11 -30.999c0 -14 -4 -25.333 -12 -34s-19 -13 -33 -13c-13.333 0 -23.666 4 -30.999 12s-11 18.667 -11 32s4 24.166 12 32.499s19 12.5 33 12.5c13.333 0 23.666 -3.66699 30.999 -11zM231 822
c7.33301 -7.33301 11 -17.666 11 -30.999c0 -14 -4 -25.333 -12 -34s-19 -13 -33 -13c-13.333 0 -23.666 4 -30.999 12s-11 18.667 -11 32s4 24.166 12 32.499s19 12.5 33 12.5c13.333 0 23.666 -3.66699 30.999 -11zM174 0h-81l5 193l-5 448h82l-5 -441z" />
    <glyph glyph-name="Odieresis" unicode="&#xa8;O" horiz-adv-x="635" 
d="M274 822c7.33301 -7.33301 11 -17.666 11 -30.999c0 -14 -4 -25.333 -12 -34s-19 -13 -33 -13c-13.333 0 -23.666 4 -30.999 12s-11 18.667 -11 32s4 24.166 12 32.499s19 12.5 33 12.5c13.333 0 23.666 -3.66699 30.999 -11zM431 822
c7.33301 -7.33301 11 -17.666 11 -30.999c0 -14 -4 -25.333 -12 -34s-19 -13 -33 -13c-13.333 0 -23.666 4 -30.999 12s-11 18.667 -11 32s4 24.166 12 32.499s19 12.5 33 12.5c13.333 0 23.666 -3.66699 30.999 -11zM527.5 566c47 -54 70.499 -131.667 70.499 -233
c0 -108.667 -25 -192.667 -75 -252s-121 -89 -213 -89c-86.667 0 -153.667 28 -201 84s-71 135.667 -71 239c0 106.667 24.833 188.667 74.5 246s120.834 86 213.501 86c87.333 0 154.5 -27 201.5 -81zM119.999 325c0 -177.333 65 -266 195 -266
c133.333 0 200 86.667 200 260c0 88.667 -16.167 154.5 -48.5 197.5s-81.5 64.5 -147.5 64.5c-132.667 0 -199 -85.333 -199 -256z" />
    <glyph glyph-name="Yacute" unicode="&#xb4;Y" horiz-adv-x="528" 
d="M295 0h-81l6 187l-1 43l-204 411h86l13 -36l140 -288h8l153 286l15 38h85l-222 -411l-1 -43zM395 814l-2 -8l-195 -86l-10 4l-14 36c68.667 34 132.667 68.333 192 103l9 -2z" />
    <glyph glyph-name="idieresis" unicode="&#xa8;i" horiz-adv-x="238" 
d="M89 640c7.33301 -7.33301 11 -17.666 11 -30.999c0 -14 -4 -25.333 -12 -34s-19 -13 -33 -13c-13.333 0 -23.666 4 -30.999 12s-11 18.667 -11 32s4 24.166 12 32.499s19 12.5 33 12.5c13.333 0 23.666 -3.66699 30.999 -11zM217 640
c7.33301 -7.33301 11 -17.666 11 -30.999c0 -14 -4 -25.333 -12 -34s-19 -13 -33 -13c-13.333 0 -23.666 4 -30.999 12s-11 18.667 -11 32s4 24.166 12 32.499s19 12.5 33 12.5c13.333 0 23.666 -3.66699 30.999 -11zM158 0h-79l5 194l-4 259l79 7l-6 -259z" />
    <glyph glyph-name="odieresis" unicode="&#xa8;o" horiz-adv-x="491" 
d="M201 640c7.33301 -7.33301 11 -17.666 11 -30.999c0 -14 -4 -25.333 -12 -34s-19 -13 -33 -13c-13.333 0 -23.666 4 -30.999 12s-11 18.667 -11 32s4 24.166 12 32.499s19 12.5 33 12.5c13.333 0 23.666 -3.66699 30.999 -11zM358 640
c7.33301 -7.33301 11 -17.666 11 -30.999c0 -14 -4 -25.333 -12 -34s-19 -13 -33 -13c-13.333 0 -23.666 4 -30.999 12s-11 18.667 -11 32s4 24.166 12 32.499s19 12.5 33 12.5c13.333 0 23.666 -3.66699 30.999 -11zM395.5 405.5
c34.333 -40.333 51.5 -97.166 51.5 -170.499c0 -77.333 -18.167 -137.166 -54.5 -179.499s-87.5 -63.5 -153.5 -63.5c-62.667 0 -111.167 20.167 -145.5 60.5s-51.5 97.166 -51.5 170.499c0 77.333 18.167 137.166 54.5 179.499s87.5 63.5 153.5 63.5
c62.667 0 111.167 -20.167 145.5 -60.5zM150 367c-22 -28.667 -33 -70.667 -33 -126c0 -128 42.333 -192 127 -192c86 0 129 56 129 168c0 63.333 -10.833 111.333 -32.5 144s-53.167 49 -94.5 49c-42 0 -74 -14.333 -96 -43z" />
    <glyph glyph-name="yacute" unicode="&#xb4;y" horiz-adv-x="426" 
d="M210 89h6.99805l111 305l15 64h73l-163 -441c-21.333 -59.333 -49.666 -105 -84.999 -137s-83.666 -55.667 -144.999 -71h-8c-16 16 -28.333 32.667 -37 50l2 10c50.667 9.33301 91 24 121 44s55.667 49 77 87l-169 456l77 5l15 -59zM344.998 654l-2 -8
c-66 -51.333 -122.667 -93.666 -170 -126.999l-9 1l-22 32c65.333 53.333 120 101.666 164 144.999l9 -1z" />
    <glyph glyph-name="Itilde" unicode="&#x7e;I" horiz-adv-x="268" 
d="M174 0h-81l5 193l-5 448h82l-5 -441zM274 813l-56.001 -69.001l-8 -3c-15.333 2.66699 -40.333 9.66699 -75 21c-33.333 10.667 -52.666 16 -57.999 16s-10.333 -2.16699 -15 -6.5s-11.667 -12.166 -21 -23.499l-14 -16h-8l-24 26v7l55 68l9 4
c10.667 -2 35 -8.66699 73 -20c33.333 -10.667 53 -16 59 -16c7.33301 0 19 9 35 27l16 18h7l25 -25v-8z" />
    <glyph glyph-name="itilde" unicode="&#x7e;i" horiz-adv-x="238" 
d="M158 0h-79l6 194l-5 259l79 7l-6 -259zM260 631l-56.001 -69.001l-8 -3c-15.333 2.66699 -40.333 9.66699 -75 21c-33.333 10.667 -52.666 16 -57.999 16s-10.333 -2.16699 -15 -6.5s-11.667 -12.166 -21 -23.499l-14 -16h-8l-24 26v7l55 68l9 4
c10.667 -2 35 -8.66699 73 -20c33.333 -10.667 53 -16 59 -16c7.33301 0 19 9 35 27l16 18h7l25 -25v-8z" />
    <glyph glyph-name="Utilde" unicode="&#x7e;U" horiz-adv-x="626" 
d="M552 243c1.33301 -78.667 -19.334 -140 -62.001 -184s-103.334 -66 -182.001 -66c-75.333 0 -133.166 21 -173.499 63s-59.833 101.333 -58.5 178l1 87l-1 320h79l-3 -397c-1.33301 -120.667 52.667 -181 162 -181c110.667 0 165.334 57 164.001 171l-4 407h80l-1 -326z
M472 816l-61.001 -69.001l-10 -3c-14.667 1.33301 -42.667 8 -84 20c-38 11.333 -61.667 17 -71 17c-4.66699 0 -9.66699 -2.16699 -15 -6.5s-13.666 -12.166 -24.999 -23.499l-16 -17h-9l-24 26v7l61 69l10 3c16 -1.33301 43.667 -8 83 -20
c41.333 -10.667 65.333 -16 72 -16c8.66699 0 22 9.66699 40 29l17 17h8l24 -25v-8z" />
    <glyph glyph-name="utilde" unicode="&#x7e;u" horiz-adv-x="511" 
d="M425 68.5c4.66699 -5.66699 12.334 -8.5 23.001 -8.5s22.334 2 35.001 6l7 -7l-7 -45c-19.333 -11.333 -38.333 -18 -57 -20c-40.667 4 -63.667 27.333 -69 70h-8c-40 -36 -81.333 -59.333 -124 -70c-49.333 0 -86.833 11.667 -112.5 35s-38.167 56.666 -37.5 99.999
l1 127l-3 197l80 7l-6 -312c-0.666992 -27.333 5.66602 -48.666 18.999 -63.999s32.666 -23 57.999 -23c40.667 0 82 20.333 124 61v331l76 7l-6 -362c0 -14 2.33301 -23.833 7 -29.5zM413 634l-61.001 -69.001l-10 -3c-14.667 1.33301 -42.667 8 -84 20
c-38 11.333 -61.667 17 -71 17c-4.66699 0 -9.66699 -2.16699 -15 -6.5s-13.666 -12.166 -24.999 -23.499l-16 -17h-9l-24 26v7l61 69l10 3c16 -1.33301 43.667 -8 83 -20c41.333 -10.667 65.333 -16 72 -16c8.66699 0 22 9.66699 40 29l17 17h8l24 -25v-8z" />
    <glyph glyph-name="Etilde" unicode="&#x7e;E" horiz-adv-x="482" 
d="M453 0h-360l5 193l-5 448h361l4 -8l-6 -62l-151 3l-127 -2l-2 -210l120 -2l106 3l6 -7l-7 -62l-112 2l-114 -1l-1 -95l3 -133l127 -1l154 4l5 -8zM431 816l-61.001 -69.001l-10 -3c-14.667 1.33301 -42.667 8 -84 20c-38 11.333 -61.667 17 -71 17
c-4.66699 0 -9.66699 -2.16699 -15 -6.5s-13.666 -12.166 -24.999 -23.499l-16 -17h-9l-24 26v7l61 69l10 3c16 -1.33301 43.667 -8 83 -20c41.333 -10.667 65.333 -16 72 -16c8.66699 0 22 9.66699 40 29l17 17h8l24 -25v-8z" />
    <glyph glyph-name="etilde" unicode="&#x7e;e" horiz-adv-x="452" 
d="M117 230c0 -55.333 11.5 -98.168 34.5 -128.501s57.167 -45.5 102.5 -45.5c46 0 90.667 15 134 45l9 -5l-8 -67c-48 -24.667 -94.333 -37 -139 -37c-65.333 0 -116.333 20.833 -153 62.5s-55 98.834 -55 171.501c0 74 19.333 132.333 58 175s91 64 157 64
c50 0 88.833 -15.167 116.5 -45.5s41.5 -72.5 41.5 -126.5l-2 -46l-17 -13l-279 -1v-3zM165.5 376.998c-22.333 -21.333 -36.833 -51.668 -43.5 -91.001l220 6l2 12c0 34.667 -8.5 60.834 -25.5 78.501s-39.833 26.5 -68.5 26.5c-34 0 -62.167 -10.667 -84.5 -32z
M402 633.996l-61.001 -69.001l-10 -3c-14.667 1.33301 -42.667 8 -84 20c-38 11.333 -61.667 17 -71 17c-4.66699 0 -9.66699 -2.16699 -15 -6.5s-13.666 -12.166 -24.999 -23.499l-16 -17h-9l-24 26v7l61 69l10 3c16 -1.33301 43.667 -8 83 -20
c41.333 -10.667 65.333 -16 72 -16c8.66699 0 22 9.66699 40 29l17 17h8l24 -25v-8z" />
    <glyph glyph-name="Ytilde" unicode="&#x7e;Y" horiz-adv-x="528" 
d="M295 0h-81l6 187l-1 43l-204 411h86l13 -36l140 -288h8l153 286l15 38h85l-222 -411l-1 -43zM415 816l-61.001 -69.001l-10 -3c-14.667 1.33301 -42.667 8 -84 20c-38 11.333 -61.667 17 -71 17c-4.66699 0 -9.66699 -2.16699 -15 -6.5s-13.666 -12.166 -24.999 -23.499
l-16 -17h-9l-24 26v7l61 69l10 3c16 -1.33301 43.667 -8 83 -20c41.333 -10.667 65.333 -16 72 -16c8.66699 0 22 9.66699 40 29l17 17h8l24 -25v-8z" />
    <glyph glyph-name="ytilde" unicode="&#x7e;y" horiz-adv-x="426" 
d="M210 89h6.99805l111 305l15 64h73l-163 -441c-21.333 -59.333 -49.666 -105 -84.999 -137s-83.666 -55.667 -144.999 -71h-8c-16 16 -28.333 32.667 -37 50l2 10c50.667 9.33301 91 24 121 44s55.667 49 77 87l-169 456l77 5l15 -59zM372.998 634l-61.001 -69.001l-10 -3
c-14.667 1.33301 -42.667 8 -84 20c-38 11.333 -61.667 17 -71 17c-4.66699 0 -9.66699 -2.16699 -15 -6.5s-13.666 -12.166 -24.999 -23.499l-16 -17h-9l-24 26v7l61 69l10 3c16 -1.33301 43.667 -8 83 -20c41.333 -10.667 65.333 -16 72 -16c8.66699 0 22 9.66699 40 29
l17 17h8l24 -25v-8z" />
    <glyph glyph-name="fi" unicode="fi" horiz-adv-x="553" 
d="M426 684l-10 -66l-10 -3c-43.333 20.667 -82.666 31 -117.999 31c-36 0 -62.5 -9.16699 -79.5 -27.5s-25.5 -46.833 -25.5 -85.5l-1 -76h246l47 6l6 -3l-6 -261l6 -199h-80l6 193l-4 211h-221l-3 -204l5 -200h-79l6 194l-2 210h-69l-4 6l5 47h67v61
c0 64 15.167 111 45.5 141s78.166 45 143.499 45c38.667 0 81.667 -6.66699 129 -20z" />
    <glyph glyph-name="fl" unicode="fl" horiz-adv-x="569" 
d="M485 0h-78.998l6 195l-4 436c-40 14.667 -78.333 22 -115 22c-73.333 0 -110.333 -37.333 -111 -112l-1 -84h121l3 -6l-5 -47h-119l-2 -206l5 -198h-79l5 194l-2 210h-68l-4 6l5 47h67l-1 72c-0.666992 59.333 15.666 104.5 48.999 135.5s80.666 46.5 141.999 46.5
c39.333 0 81.333 -5 126 -15l62 6l-6 -501z" />
    <glyph glyph-name="uni0066006A" unicode="fj" horiz-adv-x="565" 
d="M426 684l-10 -66l-10 -3c-43.333 20.667 -82.666 31 -117.999 31c-36 0 -62.5 -9.16699 -79.5 -27.5s-25.5 -46.833 -25.5 -85.5v-76h245l47 6l6 -3l-6 -259l5 -182c0 -52 -10.5 -93.833 -31.5 -125.5s-56.833 -60.834 -107.5 -87.501l-30 36v9
c35.333 21.333 59.833 43.833 73.5 67.5s20.5 55.834 20.5 96.501l2 179l-4 210h-221l-3 -203l5 -201h-79l6 195l-2 209h-69l-4 6l5 47h68l-1 61c0 64 15.167 111 45.5 141s78.166 45 143.499 45c38.667 0 81.667 -6.66699 129 -20z" />
    <glyph glyph-name="Gtilde" unicode="&#x7e;G" horiz-adv-x="600" 
d="M538 601l-16 -76l-10 -2c-32 20 -61.5 34.333 -88.5 43s-55.5 13 -85.5 13c-144.667 0 -217 -89.333 -217 -268c0 -86 16.833 -149.167 50.5 -189.5s85.834 -60.5 156.501 -60.5c33.333 0 76.666 8 129.999 24l2 75l-1 91l75 6l-2 -86l4 -140
c-81.333 -25.333 -152 -38 -212 -38c-95.333 0 -166.833 27 -214.5 81s-71.5 132 -71.5 234c0 110 27 193.833 81 251.5s131 86.5 231 86.5c67.333 0 130 -15 188 -45zM483 816l-61.001 -69.001l-10 -3c-14.667 1.33301 -42.667 8 -84 20c-38 11.333 -61.667 17 -71 17
c-4.66699 0 -9.66699 -2.16699 -15 -6.5s-13.666 -12.166 -24.999 -23.499l-16 -17h-9l-24 26v7l61 69l10 3c16 -1.33301 43.667 -8 83 -20c41.333 -10.667 65.333 -16 72 -16c8.66699 0 22 9.66699 40 29l17 17h8l24 -25v-8z" />
    <glyph glyph-name="gtilde" unicode="&#x7e;g" horiz-adv-x="487" 
d="M393 398l-2 -4.00098c14.667 -23.333 22 -51.666 22 -84.999c0 -48.667 -16.167 -87.334 -48.5 -116.001s-76.166 -43 -131.499 -43c-22 0 -42.667 2.66699 -62 8c-19.333 -14.667 -29 -27.667 -29 -39c0 -14 8.66699 -23.833 26 -29.5s45.666 -11.5 84.999 -17.5
c38.667 -5.33301 70.334 -11.333 95.001 -18s46 -17.5 64 -32.5s27 -35.833 27 -62.5c0 -28 -9.5 -53.667 -28.5 -77s-45 -41.666 -78 -54.999s-69.167 -20 -108.5 -20c-53.333 0 -94.833 12.167 -124.5 36.5s-44.5 55.833 -44.5 94.5c16 32 45.333 61 88 87v5
c-50 15.333 -75 42 -75 80c14 23.333 34.333 43.666 61 60.999v4c-43.333 26.667 -65 69.334 -65 128.001c0 50 16.167 89.167 48.5 117.5s75.5 42.5 129.5 42.5c34.667 0 64.667 -6 90 -18c46 8.66699 94.333 20 145 34l8 -6v-54c-20.667 -6 -51.334 -13 -92.001 -21z
M314.5 231.999c18.333 18.667 27.5 44.667 27.5 78c0 32 -8.66699 56.667 -26 74s-42.333 26 -75 26c-33.333 0 -59.333 -9 -78 -27s-28 -43.667 -28 -77c0 -32 8.83301 -57 26.5 -75s42.834 -27 75.501 -27c33.333 0 59.166 9.33301 77.499 28zM351 -19.501
c-12 9 -26.833 15.498 -44.5 19.498s-42.167 8.33301 -73.5 13l-31 5c-51.333 -31.333 -77 -60.666 -77 -87.999c0 -19.333 9.5 -35.333 28.5 -48s45.5 -19 79.5 -19c38.667 0 71 7.83301 97 23.5s39 34.834 39 57.501c0 15.333 -6 27.5 -18 36.5zM402 623.997
l-61.001 -69.001l-10 -3c-14.667 1.33301 -42.667 8 -84 20c-38 11.333 -61.667 17 -71 17c-4.66699 0 -9.66699 -2.16699 -15 -6.5s-13.666 -12.166 -24.999 -23.499l-16 -17h-9l-24 26v7l61 69l10 3c16 -1.33301 43.667 -8 83 -20c41.333 -10.667 65.333 -16 72 -16
c8.66699 0 22 9.66699 40 29l17 17h8l24 -25v-8z" />
    <glyph glyph-name=".notdef" horiz-adv-x="165" 
 />
    <glyph glyph-name="space" unicode=" " horiz-adv-x="165" 
 />
    <glyph glyph-name="exclam" unicode="!" horiz-adv-x="256" 
d="M154 218l-47 -5l-9 9v425l8 10l61 3l9 -10zM151.5 76c7.66699 -8 11.499 -18.999 11.499 -32.999c0 -14.667 -4.16699 -26.334 -12.5 -35.001s-19.5 -13 -33.5 -13c-30 0 -45 15.333 -45 46c0 14 4.33301 25.333 13 34s20.334 13 35.001 13c13.333 0 23.833 -4 31.5 -12z
" />
    <glyph glyph-name="quotedbl" unicode="&#x22;" horiz-adv-x="280" 
d="M100 449l-41 -6l-7 7l5 184l61 5l6 -7zM214 449l-41 -6l-6 7l4 184l61 5l6 -7z" />
    <glyph glyph-name="numbersign" unicode="#" horiz-adv-x="516" 
d="M349 249h106l5 -6l-4 -43h-118l-38 -168h-46l-5 7l36 161h-110l-37 -168h-47l-5 7l36 161h-96l-6 5l4 44h109l26 116h-98l-6 6l4 43h111l36 160h46l5 -8l-34 -152h109l36 160h46l6 -8l-34 -152h104l6 -6l-5 -43h-116zM212 365l-26 -116h110l26 116h-110z" />
    <glyph glyph-name="dollar" unicode="$" horiz-adv-x="434" 
d="M334 44.5c-27.333 -27 -64.333 -42.834 -111 -47.501l-10 -126h-39l-8 7l9 118c-46.667 2 -89 12.667 -127 32l8 70l9 3c30 -29.333 68 -47 114 -53l15 178c-28 12 -51 23.333 -69 34s-33.167 24.5 -45.5 41.5s-18.5 37.5 -18.5 61.5c0 36.667 14 67.834 42 93.501
s65.667 40.167 113 43.5l11 142h39l9 -8l-11 -134c33.333 -3.33301 65.333 -11 96 -23l-12 -64l-11 -3c-24.667 18.667 -50.334 30.667 -77.001 36l-14 -172c40.667 -17.333 72.334 -35.833 95.001 -55.5s34 -46.167 34 -79.5c0 -36 -13.667 -67.5 -41 -94.5zM145 327.999
c12.667 -12 31 -23.333 55 -34l12 154c-26 -2.66699 -46.833 -11.667 -62.5 -27s-23.5 -32 -23.5 -50c0 -16.667 6.33301 -31 19 -43zM287 77.499c15.333 15 23 31.832 23 50.499c0 17.333 -6 31.833 -18 43.5s-29.333 22.834 -52 33.501l-13 -157
c24.667 4.66699 44.667 14.5 60 29.5z" />
    <glyph glyph-name="percent" unicode="%" horiz-adv-x="824" 
d="M650 644l-472 -735l-35 20l-5 12l471 737l35 -20zM296.5 601c24.333 -29.333 36.501 -71.667 36.501 -127c0 -59.333 -12.833 -104.5 -38.5 -135.5s-63.167 -46.5 -112.5 -46.5c-45.333 0 -80.333 14.833 -105 44.5s-37 72.167 -37 127.5c0 58.667 13 103.5 39 134.5
s63.667 46.5 113 46.5c45.333 0 80.166 -14.667 104.499 -44zM96.001 468.999c0 -81.333 30.333 -122 91 -122s91 39.333 91 118c0 81.333 -30.667 122 -92 122c-60 0 -90 -39.333 -90 -118zM746.501 304.999c24.333 -29.333 36.501 -71.667 36.501 -127
c0 -59.333 -12.833 -104.5 -38.5 -135.5s-63.167 -46.5 -112.5 -46.5c-45.333 0 -80.333 14.833 -105 44.5s-37 72.167 -37 127.5c0 58.667 13 103.5 39 134.5s63.667 46.5 113 46.5c45.333 0 80.166 -14.667 104.499 -44zM546.002 172.998c0 -81.333 30.333 -122 91 -122
s91 39.333 91 118c0 81.333 -30.667 122 -92 122c-60 0 -90 -39.333 -90 -118z" />
    <glyph glyph-name="ampersand" unicode="&#x26;" horiz-adv-x="694" 
d="M521 352c14.667 -39.333 21.999 -78.665 21.999 -117.998c0 -42.667 -8 -80.667 -24 -114l132 -117v-6c-13.333 -14.667 -28.333 -26.334 -45 -35.001l-5 1l-117 105c-46 -50 -112 -75 -198 -75c-67.333 0 -121.833 15.833 -163.5 47.5s-62.5 74.5 -62.5 128.5
c0 73.333 38.333 129.666 115 168.999v5c-24.667 23.333 -42.5 46.666 -53.5 69.999s-16.5 48.666 -16.5 75.999c0 49.333 16.5 88 49.5 116s80.167 42 141.5 42c54.667 0 107 -12 157 -36l-19 -59h-11c-40.667 24.667 -83.667 37 -129 37
c-39.333 0 -69.166 -9.16699 -89.499 -27.5s-30.5 -44.166 -30.5 -77.499c0 -21.333 4.83301 -40.666 14.5 -57.999s26.5 -36 50.5 -56l235 -210c10 24 15 51.333 15 82c0 40 -9.33301 78.667 -28 116h-70l-5 6l6 52h286l6 -7l-7 -51h-154zM439.999 106.001l-228.001 204
c-56 -31.333 -84 -74.333 -84 -129c0 -40.667 15.167 -72.5 45.5 -95.5s70.5 -34.5 120.5 -34.5c62.667 0 111.334 18.333 146.001 55z" />
    <glyph glyph-name="quotesingle" unicode="'" horiz-adv-x="166" 
d="M100 449l-41 -6l-7 7l5 184l61 5l6 -7z" />
    <glyph glyph-name="parenleft" unicode="(" horiz-adv-x="288" 
d="M283 628c-48.667 -38.667 -83.334 -86.499 -104.001 -143.499s-31.334 -132.833 -32.001 -227.5c0.666992 -92.667 11.334 -167 32.001 -223s55.334 -103 104.001 -141v-8l-29 -26h-7c-58.667 42.667 -100.667 94.5 -126 155.5s-38.333 141.5 -39 241.5
c0.666992 103.333 13.667 186.166 39 248.499s67.333 114.833 126 157.5h7l29 -26v-8z" />
    <glyph glyph-name="parenright" unicode=")" horiz-adv-x="288" 
d="M5 -108c48.667 38.667 83.334 86.499 104.001 143.499s31.334 132.833 32.001 227.5c-0.666992 92.667 -11.334 167 -32.001 223s-55.334 103 -104.001 141v8l29 26h7c58.667 -42.667 100.667 -94.5 126 -155.5s38.333 -141.5 39 -241.5
c-0.666992 -103.333 -13.667 -186.166 -39 -248.499s-67.333 -114.833 -126 -157.5h-7l-29 26v8z" />
    <glyph glyph-name="asterisk" unicode="*" horiz-adv-x="374" 
d="M203 607l-34 -4l-5 7l-2 114c18.667 6 38.667 9 60 9l3 -6zM144 562l-7 -4l-101 34c0 26 2.66699 46.333 8 61l7 2l98 -60zM346 579l-5 -5l-111 -16l-15 30l4 9l100 36c13.333 -21.333 22.333 -39.333 27 -54zM287 447c-8.66699 -15.333 -22.333 -30 -41 -44l-8 1
l-46 113l24 22l10 -2zM172.001 513l-57 -93c-12.667 4 -31 13.333 -55 28v6l83 84l30 -16z" />
    <glyph glyph-name="plus" unicode="+" horiz-adv-x="480" 
d="M268 293h175l6 -6l-5 -50h-176v-177l-50 -4l-6 6v175h-175l-6 6l5 50h176v177l50 5l6 -7v-175z" />
    <glyph glyph-name="comma" unicode="," horiz-adv-x="229" 
d="M169 20c0 -43.333 -31.333 -88.002 -94 -134.002l-27 25v7c36.667 28.667 55 58 55 88c0 18 -10.333 33.667 -31 47v8c18.667 12.667 37 21.334 55 26.001c28 -17.333 42 -39.666 42 -66.999z" />
    <glyph glyph-name="hyphen" unicode="-" horiz-adv-x="307" 
d="M278 243l-241 -35l-8 8v50l242 34l7 -7v-50z" />
    <glyph glyph-name="period" unicode="." horiz-adv-x="229" 
d="M148 76c8 -8 12 -18.999 12 -32.999c0 -14.667 -4.16699 -26.334 -12.5 -35.001s-19.833 -13 -34.5 -13c-29.333 0 -44 15.333 -44 46c0 14 4.16699 25.333 12.5 34s19.833 13 34.5 13c13.333 0 24 -4 32 -12z" />
    <glyph glyph-name="slash" unicode="/" horiz-adv-x="287" 
d="M83 -113h-55l-6 8l205 783h55l6 -9z" />
    <glyph glyph-name="zero" unicode="0" horiz-adv-x="528" 
d="M426.5 438.5c37 -43.667 55.501 -105.832 55.501 -186.499c0 -82.667 -19.333 -146.5 -58 -191.5s-93.334 -67.5 -164.001 -67.5c-68 0 -120.5 21.667 -157.5 65s-55.5 104.666 -55.5 183.999c0 84 19.333 148.667 58 194s93.667 68 165 68
c67.333 0 119.5 -21.833 156.5 -65.5zM110.001 248.002c0 -123.333 51.332 -184.999 153.999 -184.999c50.667 0 89.167 15.167 115.5 45.5s39.5 75.166 39.5 134.499c0 62 -13.167 108.833 -39.5 140.5s-65.166 47.5 -116.499 47.5c-102 0 -153 -61 -153 -183z" />
    <glyph glyph-name="one" unicode="1" horiz-adv-x="344" 
d="M220 207l4 -207h-80l5 197l-1 214l-129 -36l-8 4v63l202 60l12 -8z" />
    <glyph glyph-name="two" unicode="2" horiz-adv-x="455" 
d="M328.5 471.5c25.667 -20.333 38.502 -47.167 38.502 -80.5c0 -26.667 -9.33301 -56.5 -28 -89.5s-48.334 -73.167 -89.001 -120.5l-101 -115l2 -4h185l84 6l6 -5l-11 -67l-102 4h-224l-37 -2l-5 4v50l139 151c36 40 62.333 73.167 79 99.5s25 49.5 25 69.5
c0 18 -6.66699 32.833 -20 44.5s-32 17.5 -56 17.5s-47.833 -6 -71.5 -18s-45.167 -28.667 -64.5 -50h-10l-13 61c55.333 50 113.666 75 174.999 75c40 0 72.833 -10.167 98.5 -30.5z" />
    <glyph glyph-name="three" unicode="3" horiz-adv-x="412" 
d="M301 467.5c28 -23.667 42.001 -54.1641 42.001 -91.4971c0 -28.667 -8.5 -56.334 -25.5 -83.001s-41.833 -48.334 -74.5 -65.001v-4c81.333 -19.333 122 -63.666 122 -132.999c0 -36.667 -9.5 -69.334 -28.5 -98.001s-45.833 -50.834 -80.5 -66.501
s-74.334 -23.5 -119.001 -23.5c-30.667 0 -63.334 3 -98.001 9l-5 68l6 5c31.333 -13.333 65.333 -20 102 -20c44 0 79.667 10.5 107 31.5s41 49.167 41 84.5c0 31.333 -11.167 56 -33.5 74s-54.166 27.667 -95.499 29h-59l-5 6l2 55l44 1c18 0 36.333 5 55 15
s34.167 23.667 46.5 41s18.5 36.333 18.5 57c0 24 -8 43 -24 57s-37 21 -63 21c-38 0 -79.333 -19.667 -124 -59h-9l-12 63c50 41.333 103.333 62 160 62c45.333 0 82 -11.833 110 -35.5z" />
    <glyph glyph-name="four" unicode="4" horiz-adv-x="481" 
d="M350 77l3 -163l-5 -6l-60 -5l-5 6l2 168h-187l-66 -2l-5 8v51l251 364h73l-2 -359h94l6 -8l-5 -56l-92 2h-2zM286 402h-7l-182 -263h189v263z" />
    <glyph glyph-name="five" unicode="5" horiz-adv-x="418" 
d="M367 433l-6 -6.00195l-73 6h-148l-4 -156l63 -13c62 -13.333 106 -32.666 132 -57.999s39 -58.666 39 -99.999c0 -40 -10.167 -75.333 -30.5 -106s-48.666 -54.667 -84.999 -72s-77.5 -26 -123.5 -26c-28 0 -59.333 3.33301 -94 10l-6 70l7 7
c37.333 -16 73.666 -24 108.999 -24c45.333 0 81.333 11.833 108 35.5s40 54.5 40 92.5c0 30 -10.167 54 -30.5 72s-53.5 31.333 -99.5 40l-85 16l-7 7l5 261l13 11l53 -2h135l92 4l4 -6z" />
    <glyph glyph-name="six" unicode="6" horiz-adv-x="470" 
d="M384.5 303c28.333 -30.667 42.499 -71.668 42.499 -123.001c0 -56 -17.5 -101.333 -52.5 -136s-82.5 -52 -142.5 -52c-61.333 0 -107.666 19 -138.999 57s-47 92 -47 162c0 84.667 25.833 160.334 77.5 227.001s124.5 118.667 218.5 156h5l62 -36v-8
c-80 -28 -142.5 -61.333 -187.5 -100s-75.167 -84.667 -90.5 -138l6 -7c40 29.333 83.333 44 130 44c50 0 89.167 -15.333 117.5 -46zM324.999 78.499c20.667 21 30.999 51.167 30.999 90.5c0 38.667 -9.66699 68.5 -29 89.5s-46.666 31.5 -81.999 31.5
c-44 0 -86 -17.333 -126 -52l-1 -27c0 -109.333 40 -164 120 -164c37.333 0 66.333 10.5 87 31.5z" />
    <glyph glyph-name="seven" unicode="7" horiz-adv-x="417" 
d="M346 498l42 2l1 -59l-194 -424l-45 -119l-64 18l-5 13l233 503h-211l-76 -8l-5 9l5 68l90 -3h229z" />
    <glyph glyph-name="eight" unicode="8" horiz-adv-x="474" 
d="M359.5 554.5c27.667 -25 41.501 -59.167 41.501 -102.5c0 -34 -8.66699 -62 -26 -84s-41 -41.667 -71 -59v-5c36 -17.333 64.167 -36.5 84.5 -57.5s30.5 -50.5 30.5 -88.5c0 -50 -17.667 -90 -53 -120s-82.333 -45 -141 -45c-54.667 0 -97.834 13.833 -129.501 41.5
s-47.5 63.834 -47.5 108.501c0 37.333 10.667 67.833 32 91.5s49.666 44.167 84.999 61.5v5c-62.667 32.667 -94 78.667 -94 138c0 47.333 16 84.666 48 111.999s74 41 126 41c48.667 0 86.834 -12.5 114.501 -37.5zM166.001 509c-18.667 -16.667 -28 -39.332 -28 -67.999
s8.83301 -50.834 26.5 -66.501s43.167 -30.167 76.5 -43.5c30 12.667 53.5 27.5 70.5 44.5s25.5 40.167 25.5 69.5c0 28 -8.5 49.833 -25.5 65.5s-40.5 23.5 -70.5 23.5c-31.333 0 -56.333 -8.33301 -75 -25zM146.001 226.002c-20 -18 -30.001 -42.998 -30.001 -74.998
c0 -30 10.5 -54.333 31.5 -73s49.167 -28 84.5 -28c36.667 0 65.834 9.5 87.501 28.5s32.5 43.833 32.5 74.5c0 21.333 -5.66699 39.166 -17 53.499s-24.833 25.666 -40.5 33.999s-38.167 18.5 -67.5 30.5c-34 -12 -61 -27 -81 -45z" />
    <glyph glyph-name="nine" unicode="9" horiz-adv-x="470" 
d="M85.5 196c-28.333 30.667 -42.499 71.668 -42.499 123.001c0 56 17.5 101.333 52.5 136s82.5 52 142.5 52c61.333 0 107.666 -19 138.999 -57s47 -92 47 -162c0 -84.667 -25.833 -160.334 -77.5 -227.001s-124.5 -118.667 -218.5 -156h-5l-62 36v8
c80 28 142.5 61.333 187.5 100s75.167 84.667 90.5 138l-6 7c-40 -29.333 -83.333 -44 -130 -44c-50 0 -89.167 15.333 -117.5 46zM145.001 420.501c-20.667 -21 -30.999 -51.167 -30.999 -90.5c0 -38.667 9.66699 -68.5 29 -89.5s46.666 -31.5 81.999 -31.5
c44 0 86 17.333 126 52l1 27c0 109.333 -40 164 -120 164c-37.333 0 -66.333 -10.5 -87 -31.5z" />
    <glyph glyph-name="colon" unicode=":" horiz-adv-x="229" 
d="M144 76c8 -8 12 -18.999 12 -32.999c0 -14.667 -4.16699 -26.334 -12.5 -35.001s-19.833 -13 -34.5 -13c-29.333 0 -44 15.333 -44 46c0 14 4.16699 25.333 12.5 34s19.833 13 34.5 13c13.333 0 24 -4 32 -12zM144 345.001c8 -8 12 -18.999 12 -32.999
c0 -14.667 -4.16699 -26.334 -12.5 -35.001s-19.833 -13 -34.5 -13c-29.333 0 -44 15.333 -44 46c0 14 4.16699 25.333 12.5 34s19.833 13 34.5 13c13.333 0 24 -4 32 -12z" />
    <glyph glyph-name="semicolon" unicode=";" horiz-adv-x="229" 
d="M165 20c0 -43.333 -31.333 -88.002 -94 -134.002l-27 25v7c36.667 28.667 55 58 55 88c0 18 -10.333 33.667 -31 47v8c18.667 12.667 37 21.334 55 26.001c28 -17.333 42 -39.666 42 -66.999zM144 344.998c8 -8 12 -18.999 12 -32.999
c0 -14.667 -4.16699 -26.334 -12.5 -35.001s-19.833 -13 -34.5 -13c-29.333 0 -44 15.333 -44 46c0 14 4.16699 25.333 12.5 34s19.833 13 34.5 13c13.333 0 24 -4 32 -12z" />
    <glyph glyph-name="less" unicode="&#x3c;" horiz-adv-x="480" 
d="M36 297v-65l383 -152l9 5l12 46l-342 132v6l340 141l4 7l-18 46l-381 -157z" />
    <glyph glyph-name="equal" unicode="=" horiz-adv-x="480" 
d="M444 319h-407l-6 6l5 50h407l6 -6zM444 154h-407l-6 6l5 50h407l6 -6z" />
    <glyph glyph-name="greater" unicode="&#x3e;" horiz-adv-x="480" 
d="M444 297v-65l-383 -152l-9 5l-12 46l342 132v6l-340 141l-4 7l18 46l381 -157z" />
    <glyph glyph-name="question" unicode="?" horiz-adv-x="331" 
d="M270 612.5c43.333 -27 65 -63.166 65 -108.499c0 -54.667 -28 -99.334 -84 -134.001l-83 -54l-2 -4l6 -96l-56 -7l-7 7l-8 115l5 10l96 57c40.667 24 61 55.333 61 94c0 66.667 -65.667 104 -197 112l-6 8l15 44l10 5c80 -5.33301 141.667 -21.5 185 -48.5zM179 76.001
c8 -8 12 -18.999 12 -32.999c0 -14.667 -4.16699 -26.334 -12.5 -35.001s-19.833 -13 -34.5 -13c-29.333 0 -44 15.333 -44 46c0 14 4.16699 25.333 12.5 34s19.833 13 34.5 13c13.333 0 24 -4 32 -12z" />
    <glyph glyph-name="at" unicode="@" horiz-adv-x="825" 
d="M706 80c-58.667 -52 -142.333 -80 -251 -84l29 207h-10c-51.333 -88 -105 -158.333 -161 -211h-15c-50.667 30 -76 83 -76 159c0 48 9 94.667 27 140s45 83.833 81 115.5s79.333 51.167 130 58.5h5l64 -23l46 23l10 -4l-50 -351l-2 -55c65.333 8 116 33 152 75
s54 97.333 54 166c0 52.667 -11.5 99 -34.5 139s-55.833 71 -98.5 93s-92.667 33 -150 33c-72 0 -135.5 -15.333 -190.5 -46s-97.833 -73.5 -128.5 -128.5s-46 -117.833 -46 -188.5c0 -72 15.833 -134.167 47.5 -186.5s76.334 -92.333 134.001 -120
s125.167 -41.5 202.5 -41.5l2 -8l-24 -40c-83.333 0.666992 -156.333 16.667 -219 48s-111.334 75.833 -146.001 133.5s-52 125.5 -52 203.5c0 82.667 17.5 156.334 52.5 221.001s84.333 115.167 148 151.5s137.167 54.5 220.5 54.5c67.333 0 126.5 -13 177.5 -39
s90.333 -62.833 118 -110.5s41.5 -102.834 41.5 -165.501c0 -94 -29.333 -167 -88 -219zM362.001 108c20 22 42.833 53.8311 68.5 95.498s50.5 90.834 74.5 147.501l1 6l2 25l-63 22c-32 0 -59.667 -10.5 -83 -31.5s-41.333 -49.167 -54 -84.5s-19 -74.666 -19 -117.999
c0 -34 3.16699 -58.333 9.5 -73s13.5 -22 21.5 -22s22 11 42 33z" />
    <glyph glyph-name="A" unicode="A" horiz-adv-x="578" 
d="M474 0l-15 64l-36 110l-144 3l-130 -3l-39 -106l-16 -68h-80l235 641h93l214 -641h-82zM297 558h-7l-116 -316l112 -2l115 2z" />
    <glyph glyph-name="B" unicode="B" horiz-adv-x="537" 
d="M498 179c0 -122 -87.666 -182.999 -262.999 -182.999c-58.667 0 -105.667 1.33301 -141 4h-1l5 193l-5 448l178 1c60 0 106.167 -13.333 138.5 -40s48.5 -65.334 48.5 -116.001c0 -36 -8.33301 -67 -25 -93s-40.334 -45.667 -71.001 -59c90.667 -18 136 -69.667 136 -155
zM347.501 552.501c-19 15.667 -49.833 23.498 -92.5 23.498h-81l-2 -215l110 -3c62.667 14.667 94 54.334 94 119.001c0 34.667 -9.5 59.834 -28.5 75.501zM373.001 93.999c29.333 20.667 44 50.334 44 89.001c0 65.333 -41 102.666 -123 111.999l-123 -1l-1 -94l3 -134
c26 -2 50.667 -3 74 -3c54.667 0 96.667 10.333 126 31z" />
    <glyph glyph-name="C" unicode="C" horiz-adv-x="520" 
d="M497 598l-15.999 -72.999l-9 -2c-44.667 37.333 -96 56 -154 56c-63.333 0 -112 -21.833 -146 -65.5s-51 -107.5 -51 -191.5c0 -84.667 17 -149.334 51 -194.001s82 -67 144 -67c61.333 0 117 20.333 167 61l10 -5l-7 -76c-58 -32 -117 -48 -177 -48
c-86 0 -152.667 27.833 -200 83.5s-71 135.167 -71 238.5c0 106 24.667 187.667 74 245s119.333 86 210 86c67.333 0 125.666 -16 174.999 -48z" />
    <glyph glyph-name="D" unicode="D" horiz-adv-x="646" 
d="M535 567c48.667 -52 73 -126.667 73 -224c0 -112.667 -26.333 -199 -79 -259s-128.334 -90 -227.001 -90c-65.333 0 -134.666 2 -207.999 6h-1l5 193l-5 448h1l231 4c91.333 0 161.333 -26 210 -78zM471.5 127.5c36.333 44.333 54.5 110.5 54.5 198.5
c0 168 -69 252 -207 252c-42 0 -90.333 -1.33301 -145 -4l-4 -374l3 -133c46.667 -4 94 -6 142 -6c68 0 120.167 22.167 156.5 66.5z" />
    <glyph glyph-name="E" unicode="E" horiz-adv-x="482" 
d="M453 0h-360l5 193l-5 448h361l4 -8l-6 -62l-151 3l-127 -2l-2 -210l120 -2l106 3l6 -7l-7 -62l-112 2l-114 -1l-1 -95l3 -133l127 -1l154 4l5 -8z" />
    <glyph glyph-name="F" unicode="F" horiz-adv-x="434" 
d="M172 349l108 -2l104 3l6 -8l-7 -61l-111 3l-101 -1l-1 -83l4 -200h-81l5 193l-5 448h341l6 -8l-7 -64l-147 5l-112 -2z" />
    <glyph glyph-name="G" unicode="G" horiz-adv-x="600" 
d="M538 601l-16 -76l-10 -2c-32 20 -61.5 34.333 -88.5 43s-55.5 13 -85.5 13c-144.667 0 -217 -89.333 -217 -268c0 -86 16.833 -149.167 50.5 -189.5s85.834 -60.5 156.501 -60.5c33.333 0 76.666 8 129.999 24l2 75l-1 91l75 6l-2 -86l4 -140
c-81.333 -25.333 -152 -38 -212 -38c-95.333 0 -166.833 27 -214.5 81s-71.5 132 -71.5 234c0 110 27 193.833 81 251.5s131 86.5 231 86.5c67.333 0 130 -15 188 -45z" />
    <glyph glyph-name="H" unicode="H" horiz-adv-x="683" 
d="M589 0h-81l6 193l-1 96l-180 3l-162 -3l-1 -89l4 -200h-81l5 193l-5 448h82l-3 -282l168 -3l172 3l-4 282h82l-4 -441z" />
    <glyph glyph-name="I" unicode="I" horiz-adv-x="268" 
d="M174 0h-81l5 193l-5 448h82l-5 -441z" />
    <glyph glyph-name="J" unicode="J" horiz-adv-x="310" 
d="M215 118c0 -50.667 -12.667 -92.5 -38 -125.5s-69.333 -64.5 -132 -94.5l-31 45v10c46 24.667 78.667 49 98 73s29 54.333 29 91v87l-4 372l-123 -1l-8 7l5 59h206l-4 -429z" />
    <glyph glyph-name="K" unicode="K" horiz-adv-x="546" 
d="M173 0h-81l5 193l-5 448h82l-5 -441zM546 17l-0.999023 -10c-20.667 -6 -46 -11.333 -76 -16l-9 5c-108 122.667 -200 235.667 -276 339v6l214 244l39 56h91l-259 -301c91.333 -118 183.666 -225.667 276.999 -323z" />
    <glyph glyph-name="L" unicode="L" horiz-adv-x="416" 
d="M406 0h-316l5 193l-5 448h82l-5 -441l3 -133h237l6 -7z" />
    <glyph glyph-name="M" unicode="M" horiz-adv-x="789" 
d="M656 0l-15 195l-34 319h-7l-178 -440h-66l-169 440h-8l-34 -313l-17 -201h-68l67 641h91l33 -98l139 -365h6l146 371l33 92h90l63 -641h-72z" />
    <glyph glyph-name="N" unicode="N" horiz-adv-x="683" 
d="M587 0h-84l-331 513h-6l-1 -302l3 -211h-75l5 190l-3 451h84l330 -513h7l-1 509l76 6l-6 -455z" />
    <glyph glyph-name="O" unicode="O" horiz-adv-x="635" 
d="M527.5 566c47 -54 70.499 -131.667 70.499 -233c0 -108.667 -25 -192.667 -75 -252s-121 -89 -213 -89c-86.667 0 -153.667 28 -201 84s-71 135.667 -71 239c0 106.667 24.833 188.667 74.5 246s120.834 86 213.501 86c87.333 0 154.5 -27 201.5 -81zM119.999 325
c0 -177.333 65 -266 195 -266c133.333 0 200 86.667 200 260c0 88.667 -16.167 154.5 -48.5 197.5s-81.5 64.5 -147.5 64.5c-132.667 0 -199 -85.333 -199 -256z" />
    <glyph glyph-name="P" unicode="P" horiz-adv-x="520" 
d="M434 593.5c34 -32.333 51 -78.833 51 -139.5c0 -71.333 -21.167 -127.333 -63.5 -168s-100.833 -61 -175.5 -61h-76v-25l4 -200h-81l5 193l-5 448l196 1c62.667 0 111 -16.167 145 -48.5zM403 447c0 82.667 -44 125.668 -132 129.001l-97 -3l-3 -281l105 -2
c84.667 13.333 127 65.666 127 156.999z" />
    <glyph glyph-name="Q" unicode="Q" horiz-adv-x="639" 
d="M696 -189l-7 -3.00195c-134 34.667 -251.667 96.334 -353 185.001l-24 -1c-88 0 -155.667 28 -203 84s-71 135.667 -71 239c0 106.667 24.833 188.667 74.5 246s120.834 86 213.501 86c87.333 0 154.5 -27.167 201.5 -81.5s70.5 -132.833 70.5 -235.5
c0 -86 -16.333 -156.667 -49 -212s-79.334 -92.666 -140.001 -111.999c96 -67.333 203 -112 321 -134l3 -10c-12 -22.667 -24.333 -39.667 -37 -51zM317 58.998c132 0 198.001 88 198.001 264c0 172 -65.667 258 -197 258c-66.667 0 -116.334 -21.333 -149.001 -64
s-49 -107.667 -49 -195c0 -175.333 65.667 -263 197 -263z" />
    <glyph glyph-name="R" unicode="R" horiz-adv-x="555" 
d="M520 19l-1 -9.99902c-24 -9.33301 -48.667 -15.333 -74 -18l-11 7c-54.667 82 -103.667 162 -147 240h-117v-38l4 -200h-81l5 193l-5 448l196 1c62.667 0 111.167 -15.833 145.5 -47.5s51.5 -76.834 51.5 -135.501c0 -44 -11.5 -83.5 -34.5 -118.5
s-55.5 -62.167 -97.5 -81.5c44 -72.667 99.333 -152.667 166 -240zM291 303.001c74.667 21.333 112 71.001 112 149.001c0 79.333 -44 120.666 -132 123.999l-97 -3l-3 -267z" />
    <glyph glyph-name="S" unicode="S" horiz-adv-x="472" 
d="M410 616l-13.0059 -77.002l-14 -4c-40 30.667 -82 46 -126 46c-24.667 0 -46.167 -5 -64.5 -15s-32.333 -23 -42 -39s-14.5 -32.667 -14.5 -50c0 -18 5.5 -33.833 16.5 -47.5s24.833 -25.5 41.5 -35.5s39.334 -22 68.001 -36c36 -16.667 65 -32.167 87 -46.5
s40.833 -32.5 56.5 -54.5s23.5 -48.667 23.5 -80c0 -33.333 -9 -64 -27 -92s-43.333 -50.333 -76 -67s-70 -25 -112 -25c-61.333 0 -118.666 15 -171.999 45l10 82l11 5c23.333 -22.667 49.166 -39.5 77.499 -50.5s55.5 -16.5 81.5 -16.5c25.333 0 47.833 5 67.5 15
s34.667 23.333 45 40s15.5 34.334 15.5 53.001c0 28 -10.667 50.5 -32 67.5s-53.666 35.5 -96.999 55.5c-35.333 17.333 -63.666 32.833 -84.999 46.5s-39.666 31.334 -54.999 53.001s-23 48.167 -23 79.5c0 32.667 8.83301 62.667 26.5 90s42.334 48.833 74.001 64.5
s67.834 23.5 108.501 23.5c46 0 93.667 -10 143 -30z" />
    <glyph glyph-name="T" unicode="T" horiz-adv-x="490" 
d="M463 571l-112 6h-65l-3 -377l3 -200h-81l6 193l-5 384h-65l-114 -6l-5 8l6 62h435l6 -8z" />
    <glyph glyph-name="U" unicode="U" horiz-adv-x="626" 
d="M552 243c1.33301 -78.667 -19.334 -140 -62.001 -184s-103.334 -66 -182.001 -66c-75.333 0 -133.166 21 -173.499 63s-59.833 101.333 -58.5 178l1 87l-1 320h79l-3 -397c-1.33301 -120.667 52.667 -181 162 -181c110.667 0 165.334 57 164.001 171l-4 407h80l-1 -326z
" />
    <glyph glyph-name="V" unicode="V" horiz-adv-x="564" 
d="M229 0l-214 641h82l15 -65l163 -495h6l180 491l16 69h80l-235 -641h-93z" />
    <glyph glyph-name="W" unicode="W" horiz-adv-x="893" 
d="M572 0l-125 372h-7l-132 -372h-83l-204 641h80l11 -62l156 -490h7l138 390l-54 162h82l15 -69l158 -483h6l174 486l15 66h76l-230 -641h-83z" />
    <glyph glyph-name="X" unicode="X" horiz-adv-x="589" 
d="M560 0h-97l-28 52l-148 219l-153 -224l-26 -47h-85l217 324l-209 317h97l26 -51l138 -205l139 206l26 50h87l-203 -307z" />
    <glyph glyph-name="Y" unicode="Y" horiz-adv-x="528" 
d="M295 0h-81l6 187l-1 43l-204 411h86l13 -36l140 -288h8l153 286l15 38h85l-222 -411l-1 -43z" />
    <glyph glyph-name="Z" unicode="Z" horiz-adv-x="528" 
d="M127 65h266l95 7l4 -6l-7 -68l-116 2h-281l-57 -3v59l360 519h-247l-96 -7l-5 6l6 68l388 -1l49 1v-60z" />
    <glyph glyph-name="bracketleft" unicode="[" horiz-adv-x="288" 
d="M282 603l-119 -11v-667l119 -11v-38l-5 -5l-179 10l4 378l-4 378l179 10l5 -6v-38z" />
    <glyph glyph-name="backslash" unicode="\" horiz-adv-x="287" 
d="M210 -113h55l6 8l-205 783h-55l-6 -9z" />
    <glyph glyph-name="bracketright" unicode="]" horiz-adv-x="288" 
d="M6 -86l119 11v667l-119 11v38l5 5l179 -10l-4 -378l4 -378l-179 -10l-5 6v38z" />
    <glyph glyph-name="asciicircum" unicode="^" horiz-adv-x="424" 
d="M398 126l-46 -11l-132 317h-6l-140 -315l-8 -5l-46 18l158 357l8 5h66l152 -358z" />
    <glyph glyph-name="underscore" unicode="_" horiz-adv-x="450" 
d="M460 -141h-469l-6 7l5 46h469l6 -6z" />
    <glyph glyph-name="grave" unicode="`" 
d="M93 654l2 -8c66 -51.333 122.667 -93.666 170 -126.999l9 1l22 32c-65.333 53.333 -120 101.666 -164 144.999l-9 -1z" />
    <glyph glyph-name="a" unicode="a" horiz-adv-x="462" 
d="M333.5 434c25 -21.333 37.5 -50.667 37.5 -88c0 -11.333 -2 -52.333 -6 -123s-6 -112 -6 -124c0 -14.667 2.33301 -24.834 7 -30.501s12.667 -8.5 24 -8.5c10 0 21.333 2 34 6l8 -7l-8 -45c-19.333 -11.333 -38.333 -18 -57 -20c-20.667 2 -37.167 9.33301 -49.5 22
s-18.833 30 -19.5 52h-7c-36 -36.667 -71.667 -61.667 -107 -75c-44.667 0 -79.5 11.167 -104.5 33.5s-37.5 52.833 -37.5 91.5c0 56.667 31 92.334 93 107.001l162 38l1 65c0 26 -6.83301 46 -20.5 60s-33.167 21 -58.5 21c-43.333 0 -90.333 -22 -141 -66l-8 4l-10 57
c55.333 41.333 112.333 62 171 62c43.333 0 77.5 -10.667 102.5 -32zM122 160.499c-6 -7 -9 -17.5 -9 -31.5c0 -22 6.16699 -39.167 18.5 -51.5s28.833 -18.5 49.5 -18.5c36.667 0 74 23.667 112 71l3 82l-145 -35c-13.333 -4 -23 -9.5 -29 -16.5z" />
    <glyph glyph-name="b" unicode="b" horiz-adv-x="512" 
d="M424.5 405.5c30.333 -38.333 45.499 -92.5 45.499 -162.5c0 -80 -19.333 -141.833 -58 -185.5s-92.667 -65.5 -162 -65.5c-32 0 -64.667 7.33301 -98 22l-55 -25l-14 8l7 195l-6 503l79 7l-3 -307h6c22.667 18.667 43.334 33 62.001 43s40 18.333 64 25
c58 0 102.167 -19.167 132.5 -57.5zM357.999 95c24.667 30 36.999 74.333 36.999 133c0 54 -9.5 95.833 -28.5 125.5s-46.167 44.5 -81.5 44.5c-40.667 0 -82.667 -23.667 -126 -71l-1 -126l3 -119c32 -21.333 64 -32 96 -32c42.667 0 76.334 15 101.001 45z" />
    <glyph glyph-name="c" unicode="c" horiz-adv-x="385" 
d="M368 439l-13.998 -69.001l-9 -3c-34.667 22.667 -69 34 -103 34c-39.333 0 -70 -15 -92 -45s-33 -72 -33 -126s11.5 -96.5 34.5 -127.5s54.833 -46.5 95.5 -46.5c38 0 75.333 11.333 112 34l9 -5l-9 -67c-40.667 -17.333 -81.334 -26 -122.001 -26
c-60.667 0 -108.334 20.833 -143.001 62.5s-52 98.834 -52 171.501c0 74 18.167 132.5 54.5 175.5s85.833 64.5 148.5 64.5c44.667 0 85.667 -9 123 -27z" />
    <glyph glyph-name="d" unicode="d" horiz-adv-x="516" 
d="M424 98c0.666992 -14 2.99805 -23.833 6.99805 -29.5s11.333 -8.5 22 -8.5s22 2 34 6l8 -7l-7 -45c-19.333 -11.333 -38.333 -18 -57 -20c-41.333 4 -64.666 27.333 -69.999 70h-7c-37.333 -32.667 -73.666 -55.667 -108.999 -69c-66 0 -116.5 20.167 -151.5 60.5
s-52.5 97.833 -52.5 172.5c0 75.333 19.5 133.833 58.5 175.5s93.5 62.5 163.5 62.5c30 0 59.333 -3.33301 88 -10l-2 239l79 7l-6 -501zM151.998 366.5c-24.667 -29 -36.999 -70.833 -36.999 -125.5c0 -56.667 11.333 -100.667 34 -132s53.334 -47 92.001 -47
c38 0 74.667 20.333 110 61l2 72l-2 190c-36.667 16.667 -69.334 25 -98.001 25c-42.667 0 -76.334 -14.5 -101.001 -43.5z" />
    <glyph glyph-name="e" unicode="e" horiz-adv-x="452" 
d="M117 230c0 -55.333 11.5 -98.168 34.5 -128.501s57.167 -45.5 102.5 -45.5c46 0 90.667 15 134 45l9 -5l-8 -67c-48 -24.667 -94.333 -37 -139 -37c-65.333 0 -116.333 20.833 -153 62.5s-55 98.834 -55 171.501c0 74 19.333 132.333 58 175s91 64 157 64
c50 0 88.833 -15.167 116.5 -45.5s41.5 -72.5 41.5 -126.5l-2 -46l-17 -13l-279 -1v-3zM165.5 376.998c-22.333 -21.333 -36.833 -51.668 -43.5 -91.001l220 6l2 12c0 34.667 -8.5 60.834 -25.5 78.501s-39.833 26.5 -68.5 26.5c-34 0 -62.167 -10.667 -84.5 -32z" />
    <glyph glyph-name="f" unicode="f" horiz-adv-x="303" 
d="M350 695l-6.00098 -62l-6 -5c-24 12 -48.333 18 -73 18c-54 0 -81.333 -32.333 -82 -97l-1 -92h120l3 -6l-5 -47h-119l-2 -203l5 -201h-79l6 195l-2 209h-69l-4 6l5 47h68l-1 80c-0.666992 54 13.333 95.333 42 124s69.334 43 122.001 43c24 0 50 -3 78 -9z" />
    <glyph glyph-name="g" unicode="g" horiz-adv-x="487" 
d="M393 398l-2 -4.00098c14.667 -23.333 22 -51.666 22 -84.999c0 -48.667 -16.167 -87.334 -48.5 -116.001s-76.166 -43 -131.499 -43c-22 0 -42.667 2.66699 -62 8c-19.333 -14.667 -29 -27.667 -29 -39c0 -14 8.66699 -23.833 26 -29.5s45.666 -11.5 84.999 -17.5
c38.667 -5.33301 70.334 -11.333 95.001 -18s46 -17.5 64 -32.5s27 -35.833 27 -62.5c0 -28 -9.5 -53.667 -28.5 -77s-45 -41.666 -78 -54.999s-69.167 -20 -108.5 -20c-53.333 0 -94.833 12.167 -124.5 36.5s-44.5 55.833 -44.5 94.5c16 32 45.333 61 88 87v5
c-50 15.333 -75 42 -75 80c14 23.333 34.333 43.666 61 60.999v4c-43.333 26.667 -65 69.334 -65 128.001c0 50 16.167 89.167 48.5 117.5s75.5 42.5 129.5 42.5c34.667 0 64.667 -6 90 -18c46 8.66699 94.333 20 145 34l8 -6v-54c-20.667 -6 -51.334 -13 -92.001 -21z
M314.5 231.999c18.333 18.667 27.5 44.667 27.5 78c0 32 -8.66699 56.667 -26 74s-42.333 26 -75 26c-33.333 0 -59.333 -9 -78 -27s-28 -43.667 -28 -77c0 -32 8.83301 -57 26.5 -75s42.834 -27 75.501 -27c33.333 0 59.166 9.33301 77.499 28zM351 -19.501
c-12 9 -26.833 15.498 -44.5 19.498s-42.167 8.33301 -73.5 13l-31 5c-51.333 -31.333 -77 -60.666 -77 -87.999c0 -19.333 9.5 -35.333 28.5 -48s45.5 -19 79.5 -19c38.667 0 71 7.83301 97 23.5s39 34.834 39 57.501c0 15.333 -6 27.5 -18 36.5z" />
    <glyph glyph-name="h" unicode="h" horiz-adv-x="520" 
d="M353.5 374.5c-13.667 15.667 -33.165 23.4971 -58.498 23.4971c-44.667 0 -89.667 -23.667 -135 -71l-2 -126l5 -201h-79l5 195l-4 500l79 7l-4 -309h6c41.333 36.667 83.666 60.334 126.999 71.001c50 0 88.167 -11.667 114.5 -35s39.166 -56.666 38.499 -99.999
l-2 -130l3 -199h-80l6 311c0.666992 26.667 -5.83301 47.834 -19.5 63.501z" />
    <glyph glyph-name="i" unicode="i" horiz-adv-x="238" 
d="M154 651c8 -8 12 -18.667 12 -32c0 -15.333 -4.16699 -27.333 -12.5 -36s-19.833 -13 -34.5 -13c-29.333 0 -44 15.333 -44 46c0 14 4.16699 25.333 12.5 34s19.833 13 34.5 13c13.333 0 24 -4 32 -12zM158 0h-79l5 194l-4 259l79 7l-6 -259z" />
    <glyph glyph-name="j" unicode="j" horiz-adv-x="265" 
d="M159 651c8 -8 12 -18.667 12 -32c0 -15.333 -4.16699 -27.333 -12.5 -36s-19.833 -13 -34.5 -13c-29.333 0 -44 15.333 -44 46c0 14 4.16699 25.333 12.5 34s19.833 13 34.5 13c13.333 0 24 -4 32 -12zM175 201l4.00098 -182c0 -52 -10.333 -93.833 -31 -125.5
s-56.334 -60.834 -107.001 -87.501l-30 36v9c35.333 21.333 59.833 43.833 73.5 67.5s20.5 55.834 20.5 96.501l2 179l-4 210h-92l-6 7l5 46h94l74 3l3 -2z" />
    <glyph glyph-name="k" unicode="k" horiz-adv-x="456" 
d="M163 0h-79l5 195l-4 500l79 7l-6 -501zM448 14l0.000976562 -9c-10.667 -3.33301 -34.334 -8 -71.001 -14l-10 4c-70.667 83.333 -134 165.333 -190 246v7l143 169l27 41h89l-180 -210c46 -62 110 -140 192 -234z" />
    <glyph glyph-name="l" unicode="l" horiz-adv-x="247" 
d="M163 0h-79l6 195l-5 500l79 7l-6 -501z" />
    <glyph glyph-name="m" unicode="m" horiz-adv-x="796" 
d="M633.5 375c-13.667 15.333 -33.501 23 -59.501 23c-42.667 0 -87 -23 -133 -69l-2 -130l4 -199h-80l5 311c0.666992 27.333 -5.66602 48.666 -18.999 63.999s-33 23 -59 23c-43.333 0 -88.333 -24 -135 -72l-1 -125l4 -201h-79l5 194l-4 259l76 7l-1 -67h7
c40.667 36.667 82.667 60.334 126 71.001c76 0 123.667 -25.333 143 -76h6c42 38 87.333 63.333 136 76c50 0 88 -11.667 114 -35s38.667 -56.666 38 -99.999l-1 -130l3 -199h-80l6 311c0.666992 27.333 -5.83301 48.666 -19.5 63.999z" />
    <glyph glyph-name="n" unicode="n" horiz-adv-x="515" 
d="M349 375c-13.333 15.333 -33 22.999 -59 22.999c-44 0 -89 -23.667 -135 -71l-1 -126l4 -201h-79l5 194l-4 259l76 7l-1 -67h6c41.333 36.667 83.666 60.334 126.999 71.001c50.667 0 89 -11.667 115 -35s38.667 -56.666 38 -99.999l-2 -130l4 -199h-80l5 311
c0.666992 27.333 -5.66602 48.666 -18.999 63.999z" />
    <glyph glyph-name="o" unicode="o" horiz-adv-x="491" 
d="M395.5 405.5c34.333 -40.333 51.5 -97.166 51.5 -170.499c0 -77.333 -18 -137.166 -54 -179.499s-87.333 -63.5 -154 -63.5c-62.667 0 -111.167 20.167 -145.5 60.5s-51.5 97.166 -51.5 170.499c0 77.333 18.167 137.166 54.5 179.499s87.833 63.5 154.5 63.5
c62 0 110.167 -20.167 144.5 -60.5zM150 367c-22 -28.667 -33 -70.667 -33 -126c0 -128 42.333 -192 127 -192c86 0 129 56 129 168c0 63.333 -10.833 111.333 -32.5 144s-53.167 49 -94.5 49c-42 0 -74 -14.333 -96 -43z" />
    <glyph glyph-name="p" unicode="p" horiz-adv-x="506" 
d="M419.5 405.5c30.333 -38.333 45.5 -92.5 45.5 -162.5c0 -80 -19.5 -141.833 -58.5 -185.5s-93.833 -65.5 -164.5 -65.5c-29.333 0 -58.333 3 -87 9l2 -186h-78l6 379l-6 259l77 7l-1 -65h6c23.333 19.333 44.333 34 63 44s39.667 18 63 24
c58 0 102.167 -19.167 132.5 -57.5zM353 95c24.667 30 36.998 74.333 36.998 133c0 54 -9.5 95.833 -28.5 125.5s-46.167 44.5 -81.5 44.5c-40.667 0 -82.667 -23.667 -126 -71l-1 -126l1 -125c32.667 -17.333 65.334 -26 98.001 -26c42.667 0 76.334 15 101.001 45z" />
    <glyph glyph-name="q" unicode="q" horiz-adv-x="506" 
d="M428 459l-6.00098 -259.999l5 -384h-78l3 220v19h-8c-33.333 -26.667 -67.666 -46.334 -102.999 -59.001c-64.667 0 -114.167 20.167 -148.5 60.5s-51.5 96.833 -51.5 169.5c0 77.333 19.333 136.833 58 178.5s92.667 62.5 162 62.5c37.333 0 77.333 -6 120 -18l39 16z
M151.499 366.001c-24.333 -28.667 -36.5 -71.333 -36.5 -128c0 -55.333 10.833 -98.5 32.5 -129.5s51.5 -46.5 89.5 -46.5c38.667 0 77 20.333 115 61l1 68l-2 191c-36 18 -69 27 -99 27c-42.667 0 -76.167 -14.333 -100.5 -43z" />
    <glyph glyph-name="r" unicode="r" horiz-adv-x="323" 
d="M315 457v-77l-9 -3c-11.333 3.33301 -23.333 5 -36 5c-43.333 0 -82 -37 -116 -111l-1 -70l5 -201h-79l6 194l-5 259l76 7l-1 -94h6c35.333 62 78 93 128 93c8 0 16.667 -0.666992 26 -2z" />
    <glyph glyph-name="s" unicode="s" horiz-adv-x="370" 
d="M315 443l-11 -65.0039l-12 -3c-33.333 22 -65.333 33 -96 33c-22.667 0 -41 -6.33301 -55 -19s-21 -28 -21 -46s7.16699 -32.5 21.5 -43.5s36.5 -23.5 66.5 -37.5c26 -12 46.833 -22.833 62.5 -32.5s29.167 -22.5 40.5 -38.5s17 -35.667 17 -59
c0 -24.667 -6.33301 -47.667 -19 -69s-31.334 -38.5 -56.001 -51.5s-54 -19.5 -88 -19.5c-46.667 0 -91 11 -133 33l10 68l9 6c18.667 -16 38.834 -28.333 60.501 -37s42.167 -13 61.5 -13c24.667 0 44.667 6.83301 60 20.5s23 29.834 23 48.501
c0 18 -7.16699 32.5 -21.5 43.5s-36.5 23.5 -66.5 37.5c-26 12 -47 22.833 -63 32.5s-29.667 22.834 -41 39.501s-17 37.334 -17 62.001c0 38.667 14.167 70.334 42.5 95.001s66.833 37 115.5 37c38 0 74.667 -7.33301 110 -22z" />
    <glyph glyph-name="t" unicode="t" horiz-adv-x="319" 
d="M296 81l9 -5.99805l-8 -52c-36 -16.667 -69.333 -26.334 -100 -29.001c-38 7.33301 -65.333 21.333 -82 42s-25 50.667 -25 90l3 71l-1 207h-63l-4 6l5 47h61v74l69 30l8 -7l-2 -97h136l4 -6l-5 -47h-135l-5 -271c-0.666992 -26.667 4 -45.334 14 -56.001
s26.333 -16 49 -16c22 0 46 6.66699 72 20z" />
    <glyph glyph-name="u" unicode="u" horiz-adv-x="511" 
d="M425 68.5c4.66699 -5.66699 12.334 -8.5 23.001 -8.5s22.334 2 35.001 6l7 -7l-7 -45c-19.333 -11.333 -38.333 -18 -57 -20c-40.667 4 -63.667 27.333 -69 70h-8c-40 -36 -81.333 -59.333 -124 -70c-49.333 0 -86.833 11.667 -112.5 35s-38.167 56.666 -37.5 99.999
l1 127l-3 197l80 7l-6 -312c-0.666992 -27.333 5.66602 -48.666 18.999 -63.999s32.666 -23 57.999 -23c40.667 0 82 20.333 124 61v331l76 7l-6 -362c0 -14 2.33301 -23.833 7 -29.5z" />
    <glyph glyph-name="v" unicode="v" horiz-adv-x="425" 
d="M207 79h5l117 317l16 62h71l-168 -458h-85l-142 456l74 5l13 -61z" />
    <glyph glyph-name="w" unicode="w" horiz-adv-x="676" 
d="M189 86h5l97 312l16 60h78l11 -56l84 -316h5l98 312l14 60h70l-151 -458h-76l-95 355h-7l-111 -355h-78l-128 456l73 5l11 -59z" />
    <glyph glyph-name="x" unicode="x" horiz-adv-x="435" 
d="M223 279l87 138l23 41h74l-143 -224l153 -230l-84 -8l-22 47l-98 145l-96 -149l-20 -39h-74l147 233l-146 222l85 6l19 -43z" />
    <glyph glyph-name="y" unicode="y" horiz-adv-x="426" 
d="M210 89h6.99805l111 305l15 64h73l-163 -441c-21.333 -59.333 -49.666 -105 -84.999 -137s-83.666 -55.667 -144.999 -71h-8c-16 16 -28.333 32.667 -37 50l2 10c50.667 9.33301 91 24 121 44s55.667 49 77 87l-169 456l77 5l15 -59z" />
    <glyph glyph-name="z" unicode="z" horiz-adv-x="412" 
d="M334 458l38 1l2 -48l-256 -355h181l75 7l5 -7l-7 -58l-92 2h-200l-47 -2v48l257 357h-173l-71 -8l-6 7l7 58l82 -2h205z" />
    <glyph glyph-name="braceleft" unicode="{" horiz-adv-x="288" 
d="M273 648l4 -7.00391l-8 -43c-15.333 3.33301 -27.666 5 -36.999 5c-41.333 0 -62 -24.333 -62 -73c0 -21.333 3.66699 -49.666 11 -84.999c6.66699 -38.667 10 -65 10 -79c0 -49.333 -22.333 -83.666 -67 -102.999v-4c44.667 -19.333 67 -53.333 67 -102
c0 -15.333 -3.33301 -41.666 -10 -78.999c-7.33301 -36.667 -11 -65 -11 -85c0 -49.333 20.667 -74 62 -74c9.33301 0 21.666 1.66699 36.999 5l8 -43l-4 -7c-16.667 -4 -34 -6 -52 -6c-76.667 0 -115 37.333 -115 112c0 16.667 3.66699 49.334 11 98.001
c6 33.333 9 58.666 9 75.999c0 48.667 -27 77.334 -81 86.001v41c54 10.667 81 39.667 81 87c0 16.667 -3 41.667 -9 75c-7.33301 48.667 -11 81.667 -11 99c0 75.333 38.333 113 115 113c14.667 0 32 -2.33301 52 -7z" />
    <glyph glyph-name="bar" unicode="|" horiz-adv-x="314" 
d="M187 288v-547l-55 -3l-7 8v537l1 510l57 4l5 -5z" />
    <glyph glyph-name="braceright" unicode="}" horiz-adv-x="288" 
d="M15 -126l-4 7.00391l8 43c15.333 -3.33301 27.666 -5 36.999 -5c41.333 0 62 24.333 62 73c0 21.333 -3.66699 49.666 -11 84.999c-6.66699 38.667 -10 65 -10 79c0 49.333 22.333 83.666 67 102.999v4c-44.667 19.333 -67 53.333 -67 102
c0 15.333 3.33301 41.666 10 78.999c7.33301 36.667 11 65 11 85c0 49.333 -20.667 74 -62 74c-9.33301 0 -21.666 -1.66699 -36.999 -5l-8 43l4 7c16.667 4 34 6 52 6c76.667 0 115 -37.333 115 -112c0 -16.667 -3.66699 -49.334 -11 -98.001
c-6 -33.333 -9 -58.666 -9 -75.999c0 -48.667 27 -77.334 81 -86.001v-41c-54 -10.667 -81 -39.667 -81 -87c0 -16.667 3 -41.667 9 -75c7.33301 -48.667 11 -81.667 11 -99c0 -75.333 -38.333 -113 -115 -113c-14.667 0 -32 2.33301 -52 7z" />
    <glyph glyph-name="asciitilde" unicode="~" horiz-adv-x="480" 
d="M129 249.5c-6.66699 -5 -17.666 -14.5 -32.999 -28.5l-15 -15h-9l-22 27v9l73 73l10 4c16.667 -2 49.334 -10.333 98.001 -25c57.333 -16 91.333 -24 102 -24c6.66699 0 13.667 2.83301 21 8.5s15.833 13 25.5 22l21.5 20.5h8l22 -27v-9l-73 -74l-10 -2
c-14.667 2 -50.334 10.667 -107.001 26c-52 14.667 -82.667 22 -92 22c-6.66699 0 -13.334 -2.5 -20.001 -7.5z" />
    <glyph glyph-name="nonbreakingspace" unicode="&#xa0;" horiz-adv-x="165" 
 />
    <glyph glyph-name="exclamdown" unicode="&#xa1;" horiz-adv-x="256" 
d="M103 245l47 5l9 -9v-425l-8 -10l-61 -3l-9 10zM105.5 387c-7.66699 8 -11.499 18.999 -11.499 32.999c0 14.667 4.16699 26.334 12.5 35.001s19.5 13 33.5 13c30 0 45 -15.333 45 -46c0 -14 -4.33301 -25.333 -13 -34s-20.334 -13 -35.001 -13
c-13.333 0 -23.833 4 -31.5 12z" />
    <glyph glyph-name="cent" unicode="&#xa2;" horiz-adv-x="383" 
d="M229 36l-13 -155.003h-38l-8 7l12 153c-44.667 10 -79.667 34.833 -105 74.5s-38 89.834 -38 150.501c0 70.667 16 127.334 48 170.001s75.667 66 131 70l11 146h39l8 -8l-11 -139c36 -4.66699 68.333 -16 97 -34l-12 -51l-9 -1c-24 16.667 -50.333 27.334 -79 32.001
l-29 -361h6c40 0 79.333 11.667 118 35l8 -4l-7 -48c-39.333 -24 -82.333 -36.333 -129 -37zM123.5 161.497c15 -29.667 36.167 -50.166 63.5 -61.499l27 351c-35.333 -5.33301 -63 -23.833 -83 -55.5s-30 -72.834 -30 -123.501c0 -44 7.5 -80.833 22.5 -110.5z" />
    <glyph glyph-name="sterling" unicode="&#xa3;" horiz-adv-x="416" 
d="M379 -2l-100 2h-250l-5 6l5 41c47.333 10 71 45.667 71 107v137h-71l-4 6l5 38h70v96c0 52 14 92 42 120s68.333 42 121 42c30.667 0 66.667 -5.66699 108 -17l-5 -61l-5 -5c-36 21.333 -70.333 32 -103 32c-61.333 0 -92 -33.667 -92 -101v-106h127l4 -5l-4 -39h-128
v-130c0 -45.333 -13.333 -79 -40 -101v-3h164l91 7l4 -7z" />
    <glyph glyph-name="currency" unicode="&#xa4;" horiz-adv-x="435" 
d="M398 501l-66.999 -63c18 -23.333 27 -50 27 -80c0 -29.333 -8.66699 -55.333 -26 -78l68 -62l1 -9l-35 -36l-8 1l-63 67c-24 -18.667 -51 -28 -81 -28c-28 0 -53.667 9 -77 27l-63 -68h-8l-37 35l1 8l67 63c-18 23.333 -27 50 -27 80c0 28 8.66699 54 26 78l-68 63l1 8
l33 36h9l64 -68c23.333 18 49.666 27 78.999 27c28 0 53.667 -8.33301 77 -25l63 67l9 1l35 -35v-9zM145.501 427c-19 -18.667 -28.5 -41.667 -28.5 -69c0 -28 9.33301 -51.167 28 -69.5s41.667 -27.5 69 -27.5c28 0 51.333 9.16699 70 27.5s28 41.5 28 69.5
c0 27.333 -9.33301 50.333 -28 69s-42 28 -70 28c-26.667 0 -49.5 -9.33301 -68.5 -28z" />
    <glyph glyph-name="yen" unicode="&#xa5;" horiz-adv-x="481" 
d="M464 156l-3 -35h-191l2 -121h-65l3 121h-185l-4 5l3 35h186v11l-44 82h-141l-4 5l3 35h120l-109 203h71l11 -28l122 -220h5l132 218l14 30h70l-119 -203h119l4 -4l-3 -36h-144l-46 -78v-15h189z" />
    <glyph glyph-name="brokenbar" unicode="&#xa6;" horiz-adv-x="314" 
d="M187 373l-55 -7l-7 6v421l58 4l5 -5zM187 -259l-55 -3l-7 8v407l55 7l7 -9v-410z" />
    <glyph glyph-name="section" unicode="&#xa7;" horiz-adv-x="420" 
d="M355 188c-16.667 -23.333 -39.3359 -42.002 -68.0029 -56.002c32 -30 48 -62.333 48 -97c0 -24 -7.16699 -46.5 -21.5 -67.5s-34.166 -37.667 -59.499 -50s-54 -18.5 -86 -18.5c-48 0 -92.333 10.667 -133 32l10 68l9 6c39.333 -36 80 -54 122 -54
c27.333 0 49.333 7.33301 66 22s25 31.334 25 50.001c0 18 -7.5 34 -22.5 48s-38.833 32 -71.5 54c-27.333 18 -49.5 33.667 -66.5 47s-31.5 29.333 -43.5 48s-18 39.667 -18 63c0 27.333 8.33301 52.833 25 76.5s39.334 42.834 68.001 57.501
c-31.333 29.333 -47 60.666 -47 93.999c0 24 7 46.333 21 67s33.333 37.167 58 49.5s52.334 18.5 83.001 18.5c38.667 0 75.334 -7 110.001 -21l-11 -68l-11 -3c-36 25.333 -69.333 38 -100 38c-24 0 -43.833 -7.16699 -59.5 -21.5s-23.5 -30.5 -23.5 -48.5
c0 -17.333 7.66699 -33.166 23 -47.499s38.666 -31.5 69.999 -51.5c28 -18 50.5 -33.833 67.5 -47.5s31.5 -29.834 43.5 -48.501s18 -39.667 18 -63c0 -27.333 -8.33301 -52.666 -25 -75.999zM312.998 247.998c0 20.667 -8.16699 38.999 -24.5 54.999
s-41.833 35.667 -76.5 59l-28 19c-48 -22.667 -72 -50.667 -72 -84c0 -19.333 8 -36.833 24 -52.5s40.667 -34.167 74 -55.5l32 -21c47.333 20.667 71 47.334 71 80.001z" />
    <glyph glyph-name="dieresis" unicode="&#xa8;" 
d="M148.658 615.744c7.65723 -7.65723 11.4844 -18.1855 11.4844 -31.5859c0 -14.0381 -3.98828 -25.2051 -11.9648 -33.501c-7.97559 -8.2959 -18.9824 -12.4434 -33.0205 -12.4434c-28.0762 0 -42.1143 14.6768 -42.1143 44.0293c0 13.4004 3.98828 24.248 11.9639 32.543
c7.97656 8.2959 18.9834 12.4434 33.0215 12.4434c12.7627 0 22.9727 -3.82812 30.6299 -11.4854zM298.656 615.745c7.65723 -7.65723 11.4844 -18.1855 11.4844 -31.5859c0 -14.0381 -3.98828 -25.2051 -11.9648 -33.501
c-7.97559 -8.2959 -18.9824 -12.4434 -33.0205 -12.4434c-28.0762 0 -42.1143 14.6768 -42.1143 44.0293c0 13.4004 3.98828 24.248 11.9639 32.543c7.97656 8.2959 18.9834 12.4434 33.0215 12.4434c12.7627 0 22.9727 -3.82812 30.6299 -11.4854z" />
    <glyph glyph-name="copyright" unicode="&#xa9;" horiz-adv-x="685" 
d="M497 560c44.667 -25.333 79.167 -61 103.5 -107s36.5 -99.333 36.5 -160s-12.167 -114 -36.5 -160s-58.833 -81.667 -103.5 -107s-96.334 -38 -155.001 -38s-110.334 12.667 -155.001 38s-79.334 61 -104.001 107s-37 99.333 -37 160s12.333 114 37 160
s59.334 81.667 104.001 107s96.334 38 155.001 38s110.334 -12.667 155.001 -38zM204.5 530.5c-39.667 -22.333 -70.334 -54.002 -92.001 -95.002s-32.5 -88.5 -32.5 -142.5s10.833 -101.5 32.5 -142.5s52.334 -72.667 92.001 -95s85.5 -33.5 137.5 -33.5
c51.333 0 96.833 11.333 136.5 34s70.5 54.334 92.5 95.001s33 88 33 142s-11 101.333 -33 142s-52.833 72.334 -92.5 95.001s-85.167 34 -136.5 34c-52 0 -97.833 -11.167 -137.5 -33.5zM451 441.998l-12 -45.002l-5 -2c-22.667 15.333 -49 23 -79 23
c-68 0 -102 -39.667 -102 -119c0 -84 34 -126 102 -126c29.333 0 57.666 7.66699 84.999 23l6 -2l-5 -45c-28.667 -15.333 -58.667 -23 -90 -23c-51.333 0 -90.166 14.333 -116.499 43s-39.5 70.334 -39.5 125.001s14 96.834 42 126.501s68 44.5 120 44.5
c32 0 63.333 -7.66699 94 -23z" />
    <glyph glyph-name="ordfeminine" unicode="&#xaa;" horiz-adv-x="320" 
d="M240 627c17.333 -14.667 25.998 -35.667 25.998 -63l-3 -81c-2 -32 -3 -55.333 -3 -70c0 -18 5.66699 -27 17 -27c8 0 14.333 2 19 6l6 -4l-8 -40c-12.667 -10 -26.667 -15 -42 -15c-14.667 0 -25.667 3.66699 -33 11s-12.666 19.666 -15.999 36.999h-3
c-23.333 -26.667 -48.333 -43 -75 -49c-28.667 1.33301 -51 9.83301 -67 25.5s-24 36.834 -24 63.501c0 41.333 21.667 66 65 74l101 19l1 37c0 31.333 -16 47 -48 47c-25.333 0 -55.666 -12.333 -90.999 -37l-5 2l-9 47c39.333 26 78.333 39 117 39
c32.667 0 57.667 -7.33301 75 -22zM97.998 427c0 -13.333 3.66699 -24 11 -32s17.333 -12 30 -12c19.333 0 39 12 59 36l1 60l-70 -16c-20.667 -4 -31 -16 -31 -36z" />
    <glyph glyph-name="guillemotleft" unicode="&#xab;" horiz-adv-x="398" 
d="M20 232l145 174l39 -22l1 -10l-124 -149l124 -149l-1 -9l-39 -22l-145 171v16zM186 232l145 174l39 -22l1 -10l-124 -149l124 -149l-1 -9l-39 -22l-145 171v16z" />
    <glyph glyph-name="logicalnot" unicode="&#xac;" horiz-adv-x="480" 
d="M424 60l-50 -4l-6 6v175h-334l-5 6l4 50h385l6 -7v-226z" />
    <glyph glyph-name="softhyphen" unicode="&#xad;" horiz-adv-x="307" 
d="M278 243l-241 -35l-8 8v50l242 34l7 -7v-50z" />
    <glyph glyph-name="registered" unicode="&#xae;" horiz-adv-x="439" 
d="M351.5 652.5c33 -33 49.5 -76.833 49.5 -131.5s-16.5 -98.667 -49.5 -132s-76.833 -50 -131.5 -50s-98.667 16.667 -132 50s-50 77.333 -50 132s16.667 98.5 50 131.5s77.333 49.5 132 49.5s98.5 -16.5 131.5 -49.5zM333.5 408
c28.333 28.667 42.498 66.334 42.498 113.001s-14.167 84.167 -42.5 112.5s-65.833 42.5 -112.5 42.5c-47.333 0 -85.166 -14.167 -113.499 -42.5s-42.5 -65.833 -42.5 -112.5s14.333 -84.334 43 -113.001s66.334 -43 113.001 -43s84.167 14.333 112.5 43zM252.998 508
c12 -19.333 29.334 -42.667 52.001 -70l-1 -4c-8.66699 -2.66699 -20.334 -4.66699 -35.001 -6l-4 3c-16 23.333 -30.333 46 -43 68h-34v-7l2 -61h-36l1 58l-1 135h73c43.333 0 65 -19 65 -57c0 -26 -13 -45.667 -39 -59zM224.999 526.999c20 6.66699 30 19 30 37
c0 20.667 -13 31.667 -39 33l-26 -1l-1 -67z" />
    <glyph glyph-name="macron" unicode="&#xaf;" 
d="M337 582h-283l-6 6l5 46h283l6 -5z" />
    <glyph glyph-name="degree" unicode="&#xb0;" horiz-adv-x="293" 
d="M236.5 611c24.333 -24 36.5 -53.333 36.5 -88s-12.167 -64.167 -36.5 -88.5s-54.166 -36.5 -89.499 -36.5s-65.333 12.167 -90 36.5s-37 53.833 -37 88.5s12.333 64 37 88s54.667 36 90 36s65.166 -12 89.499 -36zM85.5 583c-17 -16.667 -25.5 -36.667 -25.5 -60
s8.5 -43.333 25.5 -60s37.167 -25 60.5 -25c24 0 44.5 8.33301 61.5 25s25.5 36.667 25.5 60s-8.5 43.333 -25.5 60s-37.5 25 -61.5 25c-23.333 0 -43.5 -8.33301 -60.5 -25z" />
    <glyph glyph-name="plusminus" unicode="&#xb1;" horiz-adv-x="480" 
d="M268 293h175l6 -6l-5 -50h-176v-177l-50 -4l-6 6v175h-175l-6 6l5 50h176v177l50 5l6 -7v-175zM444 -91h-407l-6 6l5 50h407l6 -6z" />
    <glyph glyph-name="twosuperior" unicode="&#xb2;" horiz-adv-x="349" 
d="M253.5 681.5c20.333 -15.667 30.501 -36.499 30.501 -62.499c0 -19.333 -6.5 -40.333 -19.5 -63s-34.833 -53 -65.5 -91l-67 -85l2 -2h123l64 3l3 -6l-8 -55l-80 3h-166l-27 -1l-4 3v42l98 114c27.333 33.333 46.666 58.666 57.999 75.999s17 33 17 47
c0 12.667 -4.5 23.167 -13.5 31.5s-21.5 12.5 -37.5 12.5c-16.667 0 -33.667 -4.5 -51 -13.5s-33 -21.5 -47 -37.5h-9l-11 53c43.333 36.667 88 55 134 55c30.667 0 56.167 -7.83301 76.5 -23.5z" />
    <glyph glyph-name="threesuperior" unicode="&#xb3;" horiz-adv-x="308" 
d="M220.5 682.5c19.667 -15.667 29.499 -36.499 29.499 -62.499c0 -18 -5.16699 -35.333 -15.5 -52s-25.833 -29.667 -46.5 -39v-4c50.667 -13.333 76 -43.666 76 -90.999c0 -34.667 -14.5 -62.5 -43.5 -83.5s-67.167 -31.5 -114.5 -31.5c-26 0 -48.667 2.33301 -68 7l-5 50
l6 5c24 -6 46.667 -9 68 -9c27.333 0 48.833 5.66699 64.5 17s23.5 26.666 23.5 45.999c0 36.667 -23.333 55.667 -70 57h-43l-4 5l1 47h30c16.667 0 32.5 6.16699 47.5 18.5s22.5 27.166 22.5 44.499c0 14 -4.66699 24.833 -14 32.5s-22 11.5 -38 11.5
c-22.667 0 -49 -10.333 -79 -31h-7l-11 47c34 26 71.333 39 112 39c32.667 0 58.834 -7.83301 78.501 -23.5z" />
    <glyph glyph-name="acute" unicode="&#xb4;" 
d="M297 654l-2 -8c-66 -51.333 -122.667 -93.666 -170 -126.999l-9 1l-22 32c65.333 53.333 120 101.666 164 144.999l9 -1z" />
    <glyph glyph-name="uni00B5" unicode="&#xb5;" horiz-adv-x="511" 
d="M480 14c-18 -12.667 -37.666 -19 -58.999 -19c-36.667 0 -59.334 21.667 -68.001 65h-7c-40.667 -35.333 -84 -57.333 -130 -66c-26.667 0 -49.667 5.66699 -69 17v-196h-74l2 379l-2 259l74 7v-317c0.666992 -25.333 8 -45.333 22 -60s33.333 -22 58 -22
c38.667 0 79.334 20.333 122.001 61v331l75 7l-5 -357c-0.666992 -33.333 8.66602 -50 27.999 -50c10 0 21.333 4 34 12l8 -6z" />
    <glyph glyph-name="paragraph" unicode="&#xb6;" horiz-adv-x="485" 
d="M453 578h-74.002l-3 -395l1 -54c0 -44 -12.167 -82.333 -36.5 -115s-65.166 -63 -122.499 -91l-23 36v10c37.333 23.333 64.5 47.166 81.5 71.499s25.5 52.166 25.5 83.499v46l-1 409h-59c-38.667 -3.33301 -68.5 -17.166 -89.5 -41.499s-31.5 -56.833 -31.5 -97.5
s11.5 -75 34.5 -103s56.167 -48.667 99.5 -62l-25 -45c-61.333 12 -108.666 36 -141.999 72s-50 83 -50 141c0 62.667 19 111.334 57 146.001s92 52 162 52h196l6 -8z" />
    <glyph glyph-name="periodcentered" unicode="&#xb7;" horiz-adv-x="229" 
d="M148 279c8 -8 12 -18.999 12 -32.999c0 -14.667 -4.16699 -26.334 -12.5 -35.001s-19.833 -13 -34.5 -13c-29.333 0 -44 15.333 -44 46c0 14 4.16699 25.333 12.5 34s19.833 13 34.5 13c13.333 0 24 -4 32 -12z" />
    <glyph glyph-name="cedilla" unicode="&#xb8;" 
d="M234 -71c25.333 -14.667 38 -33.335 38 -56.002c0 -19.333 -7.5 -35.166 -22.5 -47.499s-34.5 -18.5 -58.5 -18.5c-28.667 0 -52.667 10.333 -72 31l7 40l5 1c18.667 -20.667 37.667 -31 57 -31c9.33301 0 16.833 2.33301 22.5 7s8.5 11.334 8.5 20.001s-7 17 -21 25
l-48 29l25 90h46l-21 -70z" />
    <glyph glyph-name="onesuperior" unicode="&#xb9;" horiz-adv-x="258" 
d="M167 458l2 -135h-71l2 126v179l-80 -21l-6 3v56l146 41l9 -9z" />
    <glyph glyph-name="ordmasculine" unicode="&#xba;" horiz-adv-x="339" 
d="M273.5 609c23 -26.667 34.499 -65 34.499 -115c0 -52 -12.333 -92.167 -37 -120.5s-59.667 -42.5 -105 -42.5c-43.333 0 -76.666 13.333 -99.999 40s-35 65 -35 115c0 52.667 12.333 93 37 121s59.667 42 105 42c44 0 77.5 -13.333 100.5 -40zM98.999 493
c0 -74.667 23.667 -112 71 -112c48.667 0 73 35.333 73 106c0 74 -24 111 -72 111s-72 -35 -72 -105z" />
    <glyph glyph-name="guillemotright" unicode="&#xbb;" horiz-adv-x="391" 
d="M373 220l-145 -174l-39 22l-1 10l124 149l-124 149l1 9l39 22l145 -171v-16zM207 220l-145 -174l-39 22l-1 10l124 149l-124 149l1 9l39 22l145 -171v-16z" />
    <glyph glyph-name="onequarter" unicode="&#xbc;" horiz-adv-x="702" 
d="M89 -91l-35 20l-5 12l471 737l35 -20l6 -14zM20 547l-6 3v56l146 41l9 -9l-2 -240l2 -135h-71l2 126v179zM606 101l4 -95l-4 -6l-56 -3l-4 4l1 100h-114l-51 -3l-5 7v44l164 230h65l-1 -226h58l5 -6l-4 -49zM548 153v147h-5l-104 -147h109z" />
    <glyph glyph-name="onehalf" unicode="&#xbd;" horiz-adv-x="716" 
d="M561 644l-472 -735l-35 20l-5 12l471 737l35 -20zM167 398l2 -135h-71l2 126v179l-80 -21l-6 3v56l146 41l9 -9zM620.5 358.5c20.333 -15.667 30.501 -36.499 30.501 -62.499c0 -19.333 -6.5 -40.333 -19.5 -63s-34.833 -53 -65.5 -91l-67 -85l2 -2h123l64 3l3 -6l-8 -55
l-80 3h-166l-27 -1l-4 3v42l98 114c27.333 33.333 46.666 58.666 57.999 75.999s17 33 17 47c0 12.667 -4.5 23.167 -13.5 31.5s-21.5 12.5 -37.5 12.5c-16.667 0 -33.667 -4.5 -51 -13.5s-33 -21.5 -47 -37.5h-9l-11 53c43.333 36.667 88 55 134 55
c30.667 0 56.167 -7.83301 76.5 -23.5z" />
    <glyph glyph-name="threequarters" unicode="&#xbe;" horiz-adv-x="739" 
d="M126 -91l-35 20l-5 12l471 737l35 -20l6 -14zM220.5 290.5c-29 -21 -67.168 -31.499 -114.501 -31.499c-26 0 -48.667 2.33301 -68 7l-5 50l6 5c24 -6 46.667 -9 68 -9c27.333 0 48.833 5.66699 64.5 17s23.5 26.666 23.5 45.999c0 36.667 -23.333 55.667 -70 57h-43
l-4 5l1 47h30c16.667 0 32.5 6.16699 47.5 18.5s22.5 27.166 22.5 44.499c0 14 -4.66699 24.833 -14 32.5s-22 11.5 -38 11.5c-22.667 0 -49 -10.333 -79 -31h-7l-11 47c34 26 71.333 39 112 39c32.667 0 58.834 -7.83301 78.501 -23.5s29.5 -36.5 29.5 -62.5
c0 -18 -5.16699 -35.333 -15.5 -52s-25.833 -29.667 -46.5 -39v-4c50.667 -13.333 76 -43.666 76 -90.999c0 -34.667 -14.5 -62.5 -43.5 -83.5zM642.999 101.001l4 -95l-4 -6l-56 -3l-4 4l1 100h-114l-51 -3l-5 7v44l164 230h65l-1 -226h58l5 -6l-4 -49zM584.999 153.001
v147h-5l-104 -147h109z" />
    <glyph glyph-name="questiondown" unicode="&#xbf;" horiz-adv-x="331" 
d="M65 -149.5c-43.333 27 -65 63.166 -65 108.499c0 54.667 28 99.334 84 134.001l83 54l2 4l-6 96l56 7l7 -7l8 -115l-5 -10l-96 -57c-40.667 -24 -61 -55.333 -61 -94c0 -66.667 65.667 -104 197 -112l6 -8l-15 -44l-10 -5c-80 5.33301 -141.667 21.5 -185 48.5z
M156 386.999c-8 8 -12 18.999 -12 32.999c0 14.667 4.16699 26.334 12.5 35.001s19.833 13 34.5 13c29.333 0 44 -15.333 44 -46c0 -14 -4.16699 -25.333 -12.5 -34s-19.833 -13 -34.5 -13c-13.333 0 -24 4 -32 12z" />
    <glyph glyph-name="Agrave" unicode="&#xc0;" horiz-adv-x="578" 
d="M182 807l-2 8l20 47l9 2c59.333 -34.667 123.333 -69 192 -103l-14 -36l-10 -4zM474 0l-14 64l-36 110l-145 3l-130 -3l-39 -106l-16 -68h-80l236 641h93l214 -641h-83zM297 558h-7l-116 -316l112 -2l115 2z" />
    <glyph glyph-name="Aacute" unicode="&#xc1;" horiz-adv-x="578" 
d="M474 0l-15 64l-36 110l-144 3l-130 -3l-39 -106l-16 -68h-80l235 641h93l214 -641h-82zM297 558h-7l-116 -316l112 -2l115 2zM427 814l-2 -8l-195 -86l-10 4l-14 36c68.667 34 132.667 68.333 192 103l9 -2z" />
    <glyph glyph-name="Acircumflex" unicode="&#xc2;" horiz-adv-x="578" 
d="M162 767c44.667 30.667 83.332 61 115.999 91h23c30 -26.667 69 -57 117 -91l-16 -34h-9c-37.333 22.667 -71.666 44.667 -102.999 66c-26 -18 -60 -40 -102 -66h-10zM473.998 0l-14 64l-36 110l-145 3l-130 -3l-39 -106l-16 -68h-80l236 641h93l214 -641h-83z
M296.998 558h-7l-116 -316l112 -2l115 2z" />
    <glyph glyph-name="Atilde" unicode="&#xc3;" horiz-adv-x="578" 
d="M474 0l-15 64l-36 110l-144 3l-130 -3l-39 -106l-16 -68h-80l235 641h93l214 -641h-82zM297 558h-7l-116 -316l112 -2l115 2zM447 816l-61.001 -69.001l-10 -3c-14.667 1.33301 -42.667 8 -84 20c-38 11.333 -61.667 17 -71 17c-4.66699 0 -9.66699 -2.16699 -15 -6.5
s-13.666 -12.166 -24.999 -23.499l-16 -17h-9l-24 26v7l61 69l10 3c16 -1.33301 43.667 -8 83 -20c41.333 -10.667 65.333 -16 72 -16c8.66699 0 22 9.66699 40 29l17 17h8l24 -25v-8z" />
    <glyph glyph-name="Adieresis" unicode="&#xc4;" horiz-adv-x="578" 
d="M180 756c-7.33301 8 -11 18.667 -11 32s4 24.166 12 32.499s19 12.5 33 12.5c13.333 0 23.666 -3.66699 30.999 -11s11 -17.666 11 -30.999c0 -14 -4 -25.333 -12 -34s-19 -13 -33 -13c-13.333 0 -23.666 4 -30.999 12zM337 756c-7.33301 8 -11 18.667 -11 32
s4 24.166 12 32.499s19 12.5 33 12.5c13.333 0 23.666 -3.66699 30.999 -11s11 -17.666 11 -30.999c0 -14 -4 -25.333 -12 -34s-19 -13 -33 -13c-13.333 0 -23.666 4 -30.999 12zM474 0l-14 64l-36 110l-145 3l-130 -3l-39 -106l-16 -68h-80l236 641h93l214 -641h-83z
M297 558h-7l-116 -316l112 -2l115 2z" />
    <glyph glyph-name="Aring" unicode="&#xc5;" horiz-adv-x="578" 
d="M474 0l-15 64l-36 110l-144 3l-130 -3l-39 -106l-16 -68h-80l235 641h93l214 -641h-82zM297 558h-7l-116 -316l112 -2l115 2zM351 856.5c14.667 -15 22 -34.5 22 -58.5c0 -26 -8.16699 -46.5 -24.5 -61.5s-36.833 -22.5 -61.5 -22.5c-24 0 -43.667 7.16699 -59 21.5
s-23 34.5 -23 60.5c0 25.333 7.66699 45.5 23 60.5s36 22.5 62 22.5s46.333 -7.5 61 -22.5zM243 797c0 -14.667 4.16797 -25.833 12.501 -33.5s19.5 -11.5 33.5 -11.5c13.333 0 24.166 3.66699 32.499 11s12.5 18 12.5 32c0 30 -15.333 45 -46 45c-30 0 -45 -14.333 -45 -43
z" />
    <glyph glyph-name="AE" unicode="&#xc6;" horiz-adv-x="807" 
d="M785 0h-348l-5 64l-29 195l-238 -54l-73 -137l-25 -68h-83l338 641h373l6 -8l-8 -62l-162 4h-97l35 -237l215 45l7 -6l4 -58l-217 -43l31 -211h113l164 5l6 -8zM358 558h-6l-147 -277l188 41z" />
    <glyph glyph-name="Ccedilla" unicode="&#xc7;" horiz-adv-x="520" 
d="M483 122l10.001 -4.99805l-7 -76c-50.667 -28.667 -102.667 -44.334 -156 -47.001l-13 -45l34 -20c25.333 -14.667 38 -33.334 38 -56.001c0 -19.333 -7.5 -35.166 -22.5 -47.499s-34.5 -18.5 -58.5 -18.5c-28.667 0 -52.667 10.333 -72 31l7 40l5 1
c18.667 -20.667 37.667 -31 57 -31c9.33301 0 16.833 2.33301 22.5 7s8.5 11.334 8.5 20.001s-7 17 -21 25l-48 29l18 65c-78.667 5.33301 -139.5 35.666 -182.5 90.999s-64.5 132 -64.5 230c0 106 24.667 187.667 74 245s119.333 86 210 86
c67.333 0 125.666 -16 174.999 -48l-16 -73l-9 -2c-44.667 37.333 -96 56 -154 56c-63.333 0 -112 -21.833 -146 -65.5s-51 -107.5 -51 -191.5c0 -84.667 17 -149.334 51 -194.001s82 -67 144 -67c61.333 0 117 20.333 167 61z" />
    <glyph glyph-name="Egrave" unicode="&#xc8;" horiz-adv-x="482" 
d="M166 807l-2 8l20 47l9 2c59.333 -34.667 123.333 -69 192 -103l-14 -36l-10 -4zM459 62l-6 -62h-360l5 193l-5 448h361l5 -8l-7 -62l-151 3l-127 -2l-2 -210l120 -2l106 3l5 -7l-6 -62l-112 2l-114 -1l-1 -95l3 -133l128 -1l153 4z" />
    <glyph glyph-name="Eacute" unicode="&#xc9;" horiz-adv-x="482" 
d="M453 0h-360l5 193l-5 448h361l4 -8l-6 -62l-151 3l-127 -2l-2 -210l120 -2l106 3l6 -7l-7 -62l-112 2l-114 -1l-1 -95l3 -133l127 -1l154 4l5 -8zM412 814l-2 -8l-195 -86l-10 4l-14 36c68.667 34 132.667 68.333 192 103l9 -2z" />
    <glyph glyph-name="Ecircumflex" unicode="&#xca;" horiz-adv-x="482" 
d="M146 767c44.667 30.667 83.332 61 115.999 91h23c30 -26.667 69 -57 117 -91l-16 -34h-9c-37.333 22.667 -71.666 44.667 -102.999 66c-26 -18 -60 -40 -102 -66h-10zM458.998 62l-6 -62h-360l5 193l-5 448h361l5 -8l-7 -62l-151 3l-127 -2l-2 -210l120 -2l106 3l5 -7
l-6 -62l-112 2l-114 -1l-1 -95l3 -133l128 -1l153 4z" />
    <glyph glyph-name="Edieresis" unicode="&#xcb;" horiz-adv-x="482" 
d="M164 756c-7.33301 8 -11 18.667 -11 32s4 24.166 12 32.499s19 12.5 33 12.5c13.333 0 23.666 -3.66699 30.999 -11s11 -17.666 11 -30.999c0 -14 -4 -25.333 -12 -34s-19 -13 -33 -13c-13.333 0 -23.666 4 -30.999 12zM321 756c-7.33301 8 -11 18.667 -11 32
s4 24.166 12 32.499s19 12.5 33 12.5c13.333 0 23.666 -3.66699 30.999 -11s11 -17.666 11 -30.999c0 -14 -4 -25.333 -12 -34s-19 -13 -33 -13c-13.333 0 -23.666 4 -30.999 12zM459 62l-6 -62h-360l5 193l-5 448h361l5 -8l-7 -62l-151 3l-127 -2l-2 -210l120 -2l106 3
l5 -7l-6 -62l-112 2l-114 -1l-1 -95l3 -133l128 -1l153 4z" />
    <glyph glyph-name="Igrave" unicode="&#xcc;" horiz-adv-x="268" 
d="M245 761l-14 -36l-10 -4l-195 86l-2 8l20 47l9 2c59.333 -34.667 123.333 -69 192 -103zM174 0h-81l5 193l-5 448h82l-5 -441z" />
    <glyph glyph-name="Iacute" unicode="&#xcd;" horiz-adv-x="268" 
d="M174 0h-81l5 193l-5 448h82l-5 -441zM271 814l-2 -8l-195 -86l-10 4l-14 36c68.667 34 132.667 68.333 192 103l9 -2z" />
    <glyph glyph-name="Icircumflex" unicode="&#xce;" horiz-adv-x="268" 
d="M122 858h22.998c30 -26.667 69 -57 117 -91l-16 -34h-9c-37.333 22.667 -71.666 44.667 -102.999 66c-26 -18 -60 -40 -102 -66h-10l-16 34c44.667 30.667 83.334 61 116.001 91zM173.998 0h-81l5 193l-5 448h82l-5 -441z" />
    <glyph glyph-name="Eth" unicode="&#xd0;" horiz-adv-x="668" 
d="M556.5 567c49 -52 73.499 -126.667 73.499 -224c0 -112.667 -26.5 -199 -79.5 -259s-128.833 -90 -227.5 -90c-65.333 0 -134.666 2 -207.999 6h-1l6 193l-1 103h-103l-4 7l3 50h103l-4 288h1l231 4c91.333 0 161.5 -26 210.5 -78zM493.499 127.5
c36.333 44.333 54.5 110.5 54.5 198.5c0 168 -69 252 -207 252c-44 0 -92.667 -1.33301 -146 -4l-2 -221h145l4 -7l-3 -50h-146l-1 -96l2 -133c48 -4 95.333 -6 142 -6c68.667 0 121.167 22.167 157.5 66.5z" />
    <glyph glyph-name="Ntilde" unicode="&#xd1;" horiz-adv-x="683" 
d="M587 0h-84l-331 513h-6l-1 -302l3 -211h-75l5 190l-3 451h84l330 -513h7l-1 509l76 6l-6 -455zM496 816l-61.001 -69.001l-10 -3c-14.667 1.33301 -42.667 8 -84 20c-38 11.333 -61.667 17 -71 17c-4.66699 0 -9.66699 -2.16699 -15 -6.5
s-13.666 -12.166 -24.999 -23.499l-16 -17h-9l-24 26v7l61 69l10 3c16 -1.33301 43.667 -8 83 -20c41.333 -10.667 65.333 -16 72 -16c8.66699 0 22 9.66699 40 29l17 17h8l24 -25v-8z" />
    <glyph glyph-name="Ograve" unicode="&#xd2;" horiz-adv-x="635" 
d="M429 761l-14 -36l-10 -4l-195 86l-2 8l20 47l9 2c59.333 -34.667 123.333 -69 192 -103zM527.5 566c47 -54 70.499 -131.667 70.499 -233c0 -108.667 -25 -192.667 -75 -252s-121 -89 -213 -89c-86.667 0 -153.667 28 -201 84s-71 135.667 -71 239
c0 106.667 24.833 188.667 74.5 246s120.834 86 213.501 86c87.333 0 154.5 -27 201.5 -81zM119.999 325c0 -177.333 65 -266 195 -266c133.333 0 200 86.667 200 260c0 88.667 -16.167 154.5 -48.5 197.5s-81.5 64.5 -147.5 64.5c-132.667 0 -199 -85.333 -199 -256z" />
    <glyph glyph-name="Oacute" unicode="&#xd3;" horiz-adv-x="635" 
d="M527.5 566c47 -54 70.499 -131.667 70.499 -233c0 -108.667 -25 -192.667 -75 -252s-121 -89 -213 -89c-86.667 0 -153.667 28 -201 84s-71 135.667 -71 239c0 106.667 24.833 188.667 74.5 246s120.834 86 213.501 86c87.333 0 154.5 -27 201.5 -81zM119.999 325
c0 -177.333 65 -266 195 -266c133.333 0 200 86.667 200 260c0 88.667 -16.167 154.5 -48.5 197.5s-81.5 64.5 -147.5 64.5c-132.667 0 -199 -85.333 -199 -256zM455.999 814l-2 -8l-195 -86l-10 4l-14 36c68.667 34 132.667 68.333 192 103l9 -2z" />
    <glyph glyph-name="Ocircumflex" unicode="&#xd4;" horiz-adv-x="635" 
d="M306 858h22.998c30 -26.667 69 -57 117 -91l-16 -34h-9c-37.333 22.667 -71.666 44.667 -102.999 66c-26 -18 -60 -40 -102 -66h-10l-16 34c44.667 30.667 83.334 61 116.001 91zM527.498 566c47 -54 70.499 -131.667 70.499 -233c0 -108.667 -25 -192.667 -75 -252
s-121 -89 -213 -89c-86.667 0 -153.667 28 -201 84s-71 135.667 -71 239c0 106.667 24.833 188.667 74.5 246s120.834 86 213.501 86c87.333 0 154.5 -27 201.5 -81zM119.997 325c0 -177.333 65 -266 195 -266c133.333 0 200 86.667 200 260
c0 88.667 -16.167 154.5 -48.5 197.5s-81.5 64.5 -147.5 64.5c-132.667 0 -199 -85.333 -199 -256z" />
    <glyph glyph-name="Otilde" unicode="&#xd5;" horiz-adv-x="635" 
d="M527.5 566c47 -54 70.499 -131.667 70.499 -233c0 -108.667 -25 -192.667 -75 -252s-121 -89 -213 -89c-86.667 0 -153.667 28 -201 84s-71 135.667 -71 239c0 106.667 24.833 188.667 74.5 246s120.834 86 213.501 86c87.333 0 154.5 -27 201.5 -81zM119.999 325
c0 -177.333 65 -266 195 -266c133.333 0 200 86.667 200 260c0 88.667 -16.167 154.5 -48.5 197.5s-81.5 64.5 -147.5 64.5c-132.667 0 -199 -85.333 -199 -256zM475.999 816l-61.001 -69.001l-10 -3c-14.667 1.33301 -42.667 8 -84 20c-38 11.333 -61.667 17 -71 17
c-4.66699 0 -9.66699 -2.16699 -15 -6.5s-13.666 -12.166 -24.999 -23.499l-16 -17h-9l-24 26v7l61 69l10 3c16 -1.33301 43.667 -8 83 -20c41.333 -10.667 65.333 -16 72 -16c8.66699 0 22 9.66699 40 29l17 17h8l24 -25v-8z" />
    <glyph glyph-name="multiply" unicode="&#xd7;" horiz-adv-x="480" 
d="M403 388l-123 -123l123 -123v-9l-38 -33l-125 125l-126 -125l-37 33v8l124 124l-124 123v10l37 32l126 -125l125 125l38 -32v-10z" />
    <glyph glyph-name="Oslash" unicode="&#xd8;" horiz-adv-x="635" 
d="M598 333c0 -108.667 -25 -192.667 -75 -252s-121 -89 -213 -89c-40.667 0 -76.334 6 -107.001 18l-53 -112l-49 17l-4 8l54 115c-75.333 52.667 -113 145 -113 277c0 106.667 24.833 188.667 74.5 246s120.834 86 213.501 86c38 0 72 -5 102 -15l43 92l48 -18l5 -10
l-42 -90c77.333 -50.667 116 -141.667 116 -273zM183 108l215 459.999c-22 8.66699 -48.333 13 -79 13c-132.667 0 -199 -85.333 -199 -256c0 -101.333 21 -173.666 63 -216.999zM515 318.999c0 102.667 -22 175 -66 217l-217 -462c24 -10 51.667 -15 83 -15
c133.333 0 200 86.667 200 260z" />
    <glyph glyph-name="Ugrave" unicode="&#xd9;" horiz-adv-x="626" 
d="M428 761l-14 -36l-10 -4l-195 86l-2 8l20 47l9 2c59.333 -34.667 123.333 -69 192 -103zM551 243c1.33301 -79.333 -19.167 -140.833 -61.5 -184.5s-102.833 -65.5 -181.5 -65.5c-76 0 -134 20.833 -174 62.5s-59.333 101.167 -58 178.5l1 87l-1 320h79l-4 -397
c-1.33301 -120.667 53 -181 163 -181c109.333 0 164 57 164 171l-4 407h80l-2 -326z" />
    <glyph glyph-name="Uacute" unicode="&#xda;" horiz-adv-x="626" 
d="M552 243c1.33301 -78.667 -19.334 -140 -62.001 -184s-103.334 -66 -182.001 -66c-75.333 0 -133.166 21 -173.499 63s-59.833 101.333 -58.5 178l1 87l-1 320h79l-3 -397c-1.33301 -120.667 52.667 -181 162 -181c110.667 0 165.334 57 164.001 171l-4 407h80l-1 -326z
M453 814l-2 -8l-195 -86l-10 4l-14 36c68.667 34 132.667 68.333 192 103l9 -2z" />
    <glyph glyph-name="Ucircumflex" unicode="&#xdb;" horiz-adv-x="626" 
d="M305 858h22.998c30 -26.667 69 -57 117 -91l-16 -34h-9c-37.333 22.667 -71.666 44.667 -102.999 66c-26 -18 -60 -40 -102 -66h-10l-16 34c44.667 30.667 83.334 61 116.001 91zM550.998 243c1.33301 -79.333 -19.167 -140.833 -61.5 -184.5
s-102.833 -65.5 -181.5 -65.5c-76 0 -134 20.833 -174 62.5s-59.333 101.167 -58 178.5l1 87l-1 320h79l-4 -397c-1.33301 -120.667 53 -181 163 -181c109.333 0 164 57 164 171l-4 407h80l-2 -326z" />
    <glyph glyph-name="Udieresis" unicode="&#xdc;" horiz-adv-x="626" 
d="M272 822c7.33301 -7.33301 11 -17.666 11 -30.999c0 -14 -4 -25.333 -12 -34s-19 -13 -33 -13c-13.333 0 -23.666 4 -30.999 12s-11 18.667 -11 32s4 24.166 12 32.499s19 12.5 33 12.5c13.333 0 23.666 -3.66699 30.999 -11zM429 822
c7.33301 -7.33301 11 -17.666 11 -30.999c0 -14 -4 -25.333 -12 -34s-19 -13 -33 -13c-13.333 0 -23.666 4 -30.999 12s-11 18.667 -11 32s4 24.166 12 32.499s19 12.5 33 12.5c13.333 0 23.666 -3.66699 30.999 -11zM551 243
c1.33301 -79.333 -19.167 -140.833 -61.5 -184.5s-102.833 -65.5 -181.5 -65.5c-76 0 -134 20.833 -174 62.5s-59.333 101.167 -58 178.5l1 87l-1 320h79l-4 -397c-1.33301 -120.667 53 -181 163 -181c109.333 0 164 57 164 171l-4 407h80l-2 -326z" />
    <glyph glyph-name="Thorn" unicode="&#xde;" horiz-adv-x="525" 
d="M437 482.5c34 -32.333 51.001 -79.167 51.001 -140.5c0 -72 -20.833 -127.667 -62.5 -167s-100.834 -59 -177.501 -59l-76 -1l2 -115h-80l3 193l-3 448h81l-1 -111l117 1c63.333 0 112 -16.167 146 -48.5zM405.001 335.999c0 82.667 -44 126 -132 130l-100 -3l-2 -263
v-18l106 -2c85.333 15.333 128 67.333 128 156z" />
    <glyph glyph-name="germandbls" unicode="&#xdf;" horiz-adv-x="563" 
d="M375.5 315.5c15 -14.333 38.167 -30.835 69.5 -49.502c24 -14 43.167 -26.333 57.5 -37s26.5 -24.167 36.5 -40.5s15 -35.5 15 -57.5c0 -25.333 -6.5 -48.5 -19.5 -69.5s-31.833 -37.833 -56.5 -50.5s-54 -19 -88 -19c-46.667 0 -90.667 11 -132 33l11 68l8 6
c37.333 -33.333 77 -50 119 -50c26 0 46.833 6.66699 62.5 20s23.5 29.666 23.5 48.999c0 18.667 -7 34.334 -21 47.001s-35.333 27.667 -64 45c-25.333 15.333 -45.666 28.833 -60.999 40.5s-28.5 26.334 -39.5 44.001s-16.5 38.5 -16.5 62.5
c0 24.667 5.33301 44.834 16 60.501s26.334 32.5 47.001 50.5c19.333 17.333 33.666 32.666 42.999 45.999s14 30.333 14 51c0 26 -8.66699 46 -26 60s-41 21 -71 21c-38 0 -67.5 -11.333 -88.5 -34s-31.833 -55.667 -32.5 -99l-4 -315l5 -198h-79l6 190l-2 214h-69l-4 6
l5 47h67v48c0 63.333 17.667 112.333 53 147s84 52 146 52c50.667 0 90 -11.667 118 -35s42 -54.666 42 -93.999c0 -26 -5.33301 -47.5 -16 -64.5s-26.334 -35.5 -47.001 -55.5c-16.667 -16 -29.167 -30.167 -37.5 -42.5s-12.5 -26.5 -12.5 -42.5
c0 -22 7.5 -40.167 22.5 -54.5z" />
    <glyph glyph-name="agrave" unicode="&#xe0;" horiz-adv-x="462" 
d="M324 552l-22 -32l-9 -1c-47.333 33.333 -104 75.666 -170 126.999l-2 8l30 42l9 1c44 -43.333 98.667 -91.666 164 -144.999zM333 434c25.333 -21.333 37.999 -50.667 37.999 -88c0 -11.333 -2 -52.333 -6 -123c-4.66699 -62 -7 -103.333 -7 -124
c0 -14.667 2.33301 -24.834 7 -30.501s13 -8.5 25 -8.5c10 0 21 2 33 6l8 -7l-7 -45c-19.333 -11.333 -38.333 -18 -57 -20c-43.333 4 -66.666 28.667 -69.999 74h-6c-36 -36.667 -71.667 -61.667 -107 -75c-44.667 0 -79.5 11.167 -104.5 33.5s-37.5 52.833 -37.5 91.5
c0 56.667 31 92.334 93 107.001l162 38l1 65c0 26 -6.83301 46 -20.5 60s-33.167 21 -58.5 21c-44 0 -91 -22 -141 -66l-8 4l-11 57c56.667 41.333 114 62 172 62c42.667 0 76.667 -10.667 102 -32zM121.999 160.999c-6 -7.33301 -9.00098 -18.001 -9.00098 -32.001
c0 -22 6.16699 -39.167 18.5 -51.5s28.5 -18.5 48.5 -18.5c36.667 0 74.334 23.667 113.001 71l3 82l-145 -35c-13.333 -3.33301 -23 -8.66602 -29 -15.999z" />
    <glyph glyph-name="aacute" unicode="&#xe1;" horiz-adv-x="462" 
d="M333.5 434c25 -21.333 37.5 -50.667 37.5 -88c0 -11.333 -2 -52.333 -6 -123s-6 -112 -6 -124c0 -14.667 2.33301 -24.834 7 -30.501s12.667 -8.5 24 -8.5c10 0 21.333 2 34 6l8 -7l-8 -45c-19.333 -11.333 -38.333 -18 -57 -20c-20.667 2 -37.167 9.33301 -49.5 22
s-18.833 30 -19.5 52h-7c-36 -36.667 -71.667 -61.667 -107 -75c-44.667 0 -79.5 11.167 -104.5 33.5s-37.5 52.833 -37.5 91.5c0 56.667 31 92.334 93 107.001l162 38l1 65c0 26 -6.83301 46 -20.5 60s-33.167 21 -58.5 21c-43.333 0 -90.333 -22 -141 -66l-8 4l-10 57
c55.333 41.333 112.333 62 171 62c43.333 0 77.5 -10.667 102.5 -32zM122 160.499c-6 -7 -9 -17.5 -9 -31.5c0 -22 6.16699 -39.167 18.5 -51.5s28.833 -18.5 49.5 -18.5c36.667 0 74 23.667 112 71l3 82l-145 -35c-13.333 -4 -23 -9.5 -29 -16.5zM352 653.999l-2 -8
c-66 -51.333 -122.667 -93.666 -170 -126.999l-9 1l-22 32c65.333 53.333 120 101.666 164 144.999l9 -1z" />
    <glyph glyph-name="acircumflex" unicode="&#xe2;" horiz-adv-x="462" 
d="M212 689h24.001c41.333 -51.333 81.666 -96 120.999 -134l-22 -32h-9c-41.333 39.333 -75.333 74 -102 104c-25.333 -28 -59.333 -62.667 -102 -104h-10l-22 32c38 38 78.667 82.667 122 134zM333.001 434c25.333 -21.333 37.999 -50.667 37.999 -88
c0 -11.333 -2 -52.333 -6 -123c-4.66699 -62 -7 -103.333 -7 -124c0 -14.667 2.33301 -24.834 7 -30.501s13 -8.5 25 -8.5c10 0 21 2 33 6l8 -7l-7 -45c-19.333 -11.333 -38.333 -18 -57 -20c-43.333 4 -66.666 28.667 -69.999 74h-6c-36 -36.667 -71.667 -61.667 -107 -75
c-44.667 0 -79.5 11.167 -104.5 33.5s-37.5 52.833 -37.5 91.5c0 56.667 31 92.334 93 107.001l162 38l1 65c0 26 -6.83301 46 -20.5 60s-33.167 21 -58.5 21c-44 0 -91 -22 -141 -66l-8 4l-11 57c56.667 41.333 114 62 172 62c42.667 0 76.667 -10.667 102 -32z
M122 160.999c-6 -7.33301 -9.00098 -18.001 -9.00098 -32.001c0 -22 6.16699 -39.167 18.5 -51.5s28.5 -18.5 48.5 -18.5c36.667 0 74.334 23.667 113.001 71l3 82l-145 -35c-13.333 -3.33301 -23 -8.66602 -29 -15.999z" />
    <glyph glyph-name="atilde" unicode="&#xe3;" horiz-adv-x="462" 
d="M333.5 434c25 -21.333 37.5 -50.667 37.5 -88c0 -11.333 -2 -52.333 -6 -123s-6 -112 -6 -124c0 -14.667 2.33301 -24.834 7 -30.501s12.667 -8.5 24 -8.5c10 0 21.333 2 34 6l8 -7l-8 -45c-19.333 -11.333 -38.333 -18 -57 -20c-20.667 2 -37.167 9.33301 -49.5 22
s-18.833 30 -19.5 52h-7c-36 -36.667 -71.667 -61.667 -107 -75c-44.667 0 -79.5 11.167 -104.5 33.5s-37.5 52.833 -37.5 91.5c0 56.667 31 92.334 93 107.001l162 38l1 65c0 26 -6.83301 46 -20.5 60s-33.167 21 -58.5 21c-43.333 0 -90.333 -22 -141 -66l-8 4l-10 57
c55.333 41.333 112.333 62 171 62c43.333 0 77.5 -10.667 102.5 -32zM122 160.499c-6 -7 -9 -17.5 -9 -31.5c0 -22 6.16699 -39.167 18.5 -51.5s28.833 -18.5 49.5 -18.5c36.667 0 74 23.667 112 71l3 82l-145 -35c-13.333 -4 -23 -9.5 -29 -16.5zM380 633.999
l-61.001 -69.001l-10 -3c-14.667 1.33301 -42.667 8 -84 20c-38 11.333 -61.667 17 -71 17c-4.66699 0 -9.66699 -2.16699 -15 -6.5s-13.666 -12.166 -24.999 -23.499l-16 -17h-9l-24 26v7l61 69l10 3c16 -1.33301 43.667 -8 83 -20c41.333 -10.667 65.333 -16 72 -16
c8.66699 0 22 9.66699 40 29l17 17h8l24 -25v-8z" />
    <glyph glyph-name="adieresis" unicode="&#xe4;" horiz-adv-x="462" 
d="M178 640c7.33301 -7.33301 11 -17.666 11 -30.999c0 -14 -4 -25.333 -12 -34s-19 -13 -33 -13c-13.333 0 -23.666 4 -30.999 12s-11 18.667 -11 32s4 24.166 12 32.499s19 12.5 33 12.5c13.333 0 23.666 -3.66699 30.999 -11zM335 640
c7.33301 -7.33301 11 -17.666 11 -30.999c0 -14 -4 -25.333 -12 -34s-19 -13 -33 -13c-13.333 0 -23.666 4 -30.999 12s-11 18.667 -11 32s4 24.166 12 32.499s19 12.5 33 12.5c13.333 0 23.666 -3.66699 30.999 -11zM333 434c25.333 -21.333 37.999 -50.667 37.999 -88
c0 -11.333 -2 -52.333 -6 -123c-4.66699 -62 -7 -103.333 -7 -124c0 -14.667 2.33301 -24.834 7 -30.501s13 -8.5 25 -8.5c10 0 21 2 33 6l8 -7l-7 -45c-19.333 -11.333 -38.333 -18 -57 -20c-43.333 4 -66.666 28.667 -69.999 74h-6c-36 -36.667 -71.667 -61.667 -107 -75
c-44.667 0 -79.5 11.167 -104.5 33.5s-37.5 52.833 -37.5 91.5c0 56.667 31 92.334 93 107.001l162 38l1 65c0 26 -6.83301 46 -20.5 60s-33.167 21 -58.5 21c-44 0 -91 -22 -141 -66l-8 4l-11 57c56.667 41.333 114 62 172 62c42.667 0 76.667 -10.667 102 -32z
M121.999 160.999c-6 -7.33301 -9.00098 -18.001 -9.00098 -32.001c0 -22 6.16699 -39.167 18.5 -51.5s28.5 -18.5 48.5 -18.5c36.667 0 74.334 23.667 113.001 71l3 82l-145 -35c-13.333 -3.33301 -23 -8.66602 -29 -15.999z" />
    <glyph glyph-name="aring" unicode="&#xe5;" horiz-adv-x="462" 
d="M333.5 434c25 -21.333 37.5 -50.667 37.5 -88c0 -11.333 -2 -52.333 -6 -123s-6 -112 -6 -124c0 -14.667 2.33301 -24.834 7 -30.501s12.667 -8.5 24 -8.5c10 0 21.333 2 34 6l8 -7l-8 -45c-19.333 -11.333 -38.333 -18 -57 -20c-20.667 2 -37.167 9.33301 -49.5 22
s-18.833 30 -19.5 52h-7c-36 -36.667 -71.667 -61.667 -107 -75c-44.667 0 -79.5 11.167 -104.5 33.5s-37.5 52.833 -37.5 91.5c0 56.667 31 92.334 93 107.001l162 38l1 65c0 26 -6.83301 46 -20.5 60s-33.167 21 -58.5 21c-43.333 0 -90.333 -22 -141 -66l-8 4l-10 57
c55.333 41.333 112.333 62 171 62c43.333 0 77.5 -10.667 102.5 -32zM122 160.499c-6 -7 -9 -17.5 -9 -31.5c0 -22 6.16699 -39.167 18.5 -51.5s28.833 -18.5 49.5 -18.5c36.667 0 74 23.667 112 71l3 82l-145 -35c-13.333 -4 -23 -9.5 -29 -16.5zM284 674.499
c14.667 -15 22 -34.5 22 -58.5c0 -26 -8.16699 -46.5 -24.5 -61.5s-36.833 -22.5 -61.5 -22.5c-24 0 -43.667 7.16699 -59 21.5s-23 34.5 -23 60.5c0 25.333 7.66699 45.5 23 60.5s36 22.5 62 22.5s46.333 -7.5 61 -22.5zM176 614.999
c0 -14.667 4.16797 -25.833 12.501 -33.5s19.5 -11.5 33.5 -11.5c13.333 0 24.166 3.66699 32.499 11s12.5 18 12.5 32c0 30 -15.333 45 -46 45c-30 0 -45 -14.333 -45 -43z" />
    <glyph glyph-name="ae" unicode="&#xe6;" horiz-adv-x="678" 
d="M607 416.5c29.333 -32.333 42.998 -78.8311 40.998 -139.498l-9 -11l-283 -48c5.33301 -110.667 50.333 -166 135 -166c45.333 0 88 15.333 128 46l8 -4l-9 -65c-42 -24.667 -86.333 -37 -133 -37c-75.333 0 -129.666 33 -162.999 99
c-36.667 -46.667 -82 -79.334 -136 -98.001c-45.333 0 -81.166 11.167 -107.499 33.5s-39.5 53.166 -39.5 92.499c0 30 8 54.5 24 73.5s39 30.833 69 35.5l160 27v73c0 26 -6.66699 46 -20 60s-32.333 21 -57 21c-40.667 0 -87 -22 -139 -66l-8 4l-12 57
c55.333 41.333 111.333 62 168 62c31.333 0 57 -6.5 77 -19.5s34.333 -30.5 43 -52.5c35.333 47.333 84 71 146 71c48.667 0 87.667 -16.167 117 -48.5zM416.498 392.002c-19 -12.667 -33.833 -29.5 -44.5 -50.5s-16 -44.167 -16 -69.5v-6l220 42
c-2 32.667 -11.667 58 -29 76s-40 27 -68 27c-22.667 0 -43.5 -6.33301 -62.5 -19zM234.998 76.502c17.333 11 39.001 30.5 65.001 58.5c-4.66699 32.667 -7.33398 56.667 -8.00098 72l-131 -26c-34 -6 -51 -24 -51 -54c0 -21.333 6.66699 -37.833 20 -49.5
s30.333 -17.5 51 -17.5c18.667 0 36.667 5.5 54 16.5z" />
    <glyph glyph-name="ccedilla" unicode="&#xe7;" horiz-adv-x="385" 
d="M359 90l7.99902 -5.00098l-8 -67c-38 -15.333 -74.333 -24 -109 -26l-13 -43l34 -20c25.333 -14.667 38 -33.334 38 -56.001c0 -19.333 -7.5 -35.166 -22.5 -47.499s-34.5 -18.5 -58.5 -18.5c-28.667 0 -52.667 10.333 -72 31l7 40l5 1c18.667 -20.667 37.667 -31 57 -31
c9.33301 0 16.833 2.33301 22.5 7s8.5 11.334 8.5 20.001s-7 17 -21 25l-48 29l18 65c-51.333 7.33301 -91.333 31.333 -120 72s-43 94 -43 160c0 74 18 132.5 54 175.5s85.667 64.5 149 64.5c44.667 0 85.667 -9 123 -27l-14 -69l-9 -3c-36 22.667 -70.333 34 -103 34
c-39.333 0 -70 -15 -92 -45s-33 -72 -33 -126s11.5 -96.5 34.5 -127.5s54.5 -46.5 94.5 -46.5c38.667 0 76.334 11.333 113.001 34z" />
    <glyph glyph-name="egrave" unicode="&#xe8;" horiz-adv-x="452" 
d="M145 646l-2 8l30 42l9 1c44 -43.333 98.667 -91.666 164 -144.999l-22 -32l-9 -1c-47.333 33.333 -104 75.666 -170 126.999zM117 230c0 -55.333 11.498 -98.168 34.498 -128.501s57.167 -45.5 102.5 -45.5c46 0 90.667 15 134 45l9 -5l-9 -67
c-47.333 -24.667 -93.666 -37 -138.999 -37c-65.333 0 -116.166 20.833 -152.499 62.5s-54.5 98.834 -54.5 171.501c0 73.333 19.333 131.5 58 174.5s90.667 64.5 156 64.5c50 0 89 -15.167 117 -45.5s42 -72.5 42 -126.5c0 -18.667 -1 -34 -3 -46l-16 -13l-279 -1v-3z
M165.498 376.998c-22.333 -21.333 -36.832 -51.668 -43.499 -91.001l219 6l2 12c0 34.667 -8.33301 60.834 -25 78.501s-39.334 26.5 -68.001 26.5c-34 0 -62.167 -10.667 -84.5 -32z" />
    <glyph glyph-name="eacute" unicode="&#xe9;" horiz-adv-x="452" 
d="M117 230c0 -55.333 11.5 -98.168 34.5 -128.501s57.167 -45.5 102.5 -45.5c46 0 90.667 15 134 45l9 -5l-8 -67c-48 -24.667 -94.333 -37 -139 -37c-65.333 0 -116.333 20.833 -153 62.5s-55 98.834 -55 171.501c0 74 19.333 132.333 58 175s91 64 157 64
c50 0 88.833 -15.167 116.5 -45.5s41.5 -72.5 41.5 -126.5l-2 -46l-17 -13l-279 -1v-3zM165.5 376.998c-22.333 -21.333 -36.833 -51.668 -43.5 -91.001l220 6l2 12c0 34.667 -8.5 60.834 -25.5 78.501s-39.833 26.5 -68.5 26.5c-34 0 -62.167 -10.667 -84.5 -32z
M375 653.996l-2 -8c-66 -51.333 -122.667 -93.666 -170 -126.999l-9 1l-22 32c65.333 53.333 120 101.666 164 144.999l9 -1z" />
    <glyph glyph-name="ecircumflex" unicode="&#xea;" horiz-adv-x="452" 
d="M112 555c38.667 38.667 79.334 83.333 122.001 134h24c41.333 -51.333 81.666 -96 120.999 -134l-22 -32h-9c-41.333 39.333 -75.333 74 -102 104c-25.333 -28 -59.333 -62.667 -102 -104h-10zM117 229.999c0 -55.333 11.498 -98.168 34.498 -128.501
s57.167 -45.5 102.5 -45.5c46 0 90.667 15 134 45l9 -5l-9 -67c-47.333 -24.667 -93.666 -37 -138.999 -37c-65.333 0 -116.166 20.833 -152.499 62.5s-54.5 98.834 -54.5 171.501c0 73.333 19.333 131.5 58 174.5s90.667 64.5 156 64.5c50 0 89 -15.167 117 -45.5
s42 -72.5 42 -126.5c0 -18.667 -1 -34 -3 -46l-16 -13l-279 -1v-3zM165.498 376.997c-22.333 -21.333 -36.832 -51.668 -43.499 -91.001l219 6l2 12c0 34.667 -8.33301 60.834 -25 78.501s-39.334 26.5 -68.001 26.5c-34 0 -62.167 -10.667 -84.5 -32z" />
    <glyph glyph-name="edieresis" unicode="&#xeb;" horiz-adv-x="452" 
d="M135 574c-7.33301 8 -11 18.667 -11 32s4 24.166 12 32.499s19 12.5 33 12.5c13.333 0 23.666 -3.66699 30.999 -11s11 -17.666 11 -30.999c0 -14 -4 -25.333 -12 -34s-19 -13 -33 -13c-13.333 0 -23.666 4 -30.999 12zM292 574c-7.33301 8 -11 18.667 -11 32
s4 24.166 12 32.499s19 12.5 33 12.5c13.333 0 23.666 -3.66699 30.999 -11s11 -17.666 11 -30.999c0 -14 -4 -25.333 -12 -34s-19 -13 -33 -13c-13.333 0 -23.666 4 -30.999 12zM117 230c0 -55.333 11.498 -98.168 34.498 -128.501s57.167 -45.5 102.5 -45.5
c46 0 90.667 15 134 45l9 -5l-9 -67c-47.333 -24.667 -93.666 -37 -138.999 -37c-65.333 0 -116.166 20.833 -152.499 62.5s-54.5 98.834 -54.5 171.501c0 73.333 19.333 131.5 58 174.5s90.667 64.5 156 64.5c50 0 89 -15.167 117 -45.5s42 -72.5 42 -126.5
c0 -18.667 -1 -34 -3 -46l-16 -13l-279 -1v-3zM165.498 376.998c-22.333 -21.333 -36.832 -51.668 -43.499 -91.001l219 6l2 12c0 34.667 -8.33301 60.834 -25 78.501s-39.334 26.5 -68.001 26.5c-34 0 -62.167 -10.667 -84.5 -32z" />
    <glyph glyph-name="igrave" unicode="&#xec;" horiz-adv-x="238" 
d="M221 552l-22 -32l-9 -1c-47.333 33.333 -104 75.666 -170 126.999l-2 8l30 42l9 1c44 -43.333 98.667 -91.666 164 -144.999zM158 0h-79l5 194l-4 259l79 7l-6 -259z" />
    <glyph glyph-name="iacute" unicode="&#xed;" horiz-adv-x="238" 
d="M158 0h-79l6 194l-5 259l79 7l-6 -259zM249 654l-2 -8c-66 -51.333 -122.667 -93.666 -170 -126.999l-9 1l-22 32c65.333 53.333 120 101.666 164 144.999l9 -1z" />
    <glyph glyph-name="icircumflex" unicode="&#xee;" horiz-adv-x="238" 
d="M109 689l24 -0.000976562c41.333 -51.333 81.666 -96 120.999 -134l-22 -32h-9c-41.333 39.333 -75.333 74 -102 104c-25.333 -28 -59.333 -62.667 -102 -104h-10l-22 32c38.667 38.667 79.334 83.334 122.001 134.001zM158 -0.000976562h-79l5 194l-4 259l79 7l-6 -259z
" />
    <glyph glyph-name="eth" unicode="&#xf0;" horiz-adv-x="489" 
d="M444 246c0 -80.667 -17.6689 -143.168 -53.002 -187.501s-85.333 -66.5 -150 -66.5c-61.333 0 -109.666 20.333 -144.999 61s-53 97.667 -53 171c0 74 17.833 131.667 53.5 173s85.5 62 149.5 62c30.667 0 59 -5 85 -15c-23.333 43.333 -54.333 82 -93 116l-122 -61l-8 3
l-16 38l104 52c-35.333 24.667 -77.666 47.334 -126.999 68.001v10l45 36h6c54.667 -24 101 -51.333 139 -82l116 59l7 -3l17 -38l-102 -51c98 -94 147 -209 147 -345zM374.998 240.999c0 44 -4.33203 83.667 -12.999 119c-32 30 -69.333 45 -112 45
c-44.667 0 -78.834 -15.5 -102.501 -46.5s-35.5 -75.833 -35.5 -134.5c0 -58 11.667 -102.167 35 -132.5s56.333 -45.5 99 -45.5c86 0 129 65 129 195z" />
    <glyph glyph-name="ntilde" unicode="&#xf1;" horiz-adv-x="515" 
d="M349 375c-13.333 15.333 -33 22.999 -59 22.999c-44 0 -89 -23.667 -135 -71l-1 -126l4 -201h-79l5 194l-4 259l76 7l-1 -67h6c41.333 36.667 83.666 60.334 126.999 71.001c50.667 0 89 -11.667 115 -35s38.667 -56.666 38 -99.999l-2 -130l4 -199h-80l5 311
c0.666992 27.333 -5.66602 48.666 -18.999 63.999zM429 633.999l-61.001 -69.001l-10 -3c-14.667 1.33301 -42.667 8 -84 20c-38 11.333 -61.667 17 -71 17c-4.66699 0 -9.66699 -2.16699 -15 -6.5s-13.666 -12.166 -24.999 -23.499l-16 -17h-9l-24 26v7l61 69l10 3
c16 -1.33301 43.667 -8 83 -20c41.333 -10.667 65.333 -16 72 -16c8.66699 0 22 9.66699 40 29l17 17h8l24 -25v-8z" />
    <glyph glyph-name="ograve" unicode="&#xf2;" horiz-adv-x="491" 
d="M347 552l-22 -32l-9 -1c-47.333 33.333 -104 75.666 -170 126.999l-2 8l30 42l9 1c44 -43.333 98.667 -91.666 164 -144.999zM395.5 405.5c34.333 -40.333 51.5 -97.166 51.5 -170.499c0 -77.333 -18.167 -137.166 -54.5 -179.499s-87.5 -63.5 -153.5 -63.5
c-62.667 0 -111.167 20.167 -145.5 60.5s-51.5 97.166 -51.5 170.499c0 77.333 18.167 137.166 54.5 179.499s87.5 63.5 153.5 63.5c62.667 0 111.167 -20.167 145.5 -60.5zM150 367c-22 -28.667 -33 -70.667 -33 -126c0 -128 42.333 -192 127 -192c86 0 129 56 129 168
c0 63.333 -10.833 111.333 -32.5 144s-53.167 49 -94.5 49c-42 0 -74 -14.333 -96 -43z" />
    <glyph glyph-name="oacute" unicode="&#xf3;" horiz-adv-x="491" 
d="M395.5 405.5c34.333 -40.333 51.5 -97.166 51.5 -170.499c0 -77.333 -18 -137.166 -54 -179.499s-87.333 -63.5 -154 -63.5c-62.667 0 -111.167 20.167 -145.5 60.5s-51.5 97.166 -51.5 170.499c0 77.333 18.167 137.166 54.5 179.499s87.833 63.5 154.5 63.5
c62 0 110.167 -20.167 144.5 -60.5zM150 367c-22 -28.667 -33 -70.667 -33 -126c0 -128 42.333 -192 127 -192c86 0 129 56 129 168c0 63.333 -10.833 111.333 -32.5 144s-53.167 49 -94.5 49c-42 0 -74 -14.333 -96 -43zM375 654l-2 -8
c-66 -51.333 -122.667 -93.666 -170 -126.999l-9 1l-22 32c65.333 53.333 120 101.666 164 144.999l9 -1z" />
    <glyph glyph-name="ocircumflex" unicode="&#xf4;" horiz-adv-x="491" 
d="M235 689l24.001 -0.000976562c41.333 -51.333 81.666 -96 120.999 -134l-22 -32h-9c-41.333 39.333 -75.333 74 -102 104c-25.333 -28 -59.333 -62.667 -102 -104h-10l-22 32c38 38.667 78.667 83.334 122 134.001zM395.501 405.499
c34.333 -40.333 51.5 -97.166 51.5 -170.499c0 -77.333 -18.167 -137.166 -54.5 -179.499s-87.5 -63.5 -153.5 -63.5c-62.667 0 -111.167 20.167 -145.5 60.5s-51.5 97.166 -51.5 170.499c0 77.333 18.167 137.166 54.5 179.499s87.5 63.5 153.5 63.5
c62.667 0 111.167 -20.167 145.5 -60.5zM150.001 366.999c-22 -28.667 -33 -70.667 -33 -126c0 -128 42.333 -192 127 -192c86 0 129 56 129 168c0 63.333 -10.833 111.333 -32.5 144s-53.167 49 -94.5 49c-42 0 -74 -14.333 -96 -43z" />
    <glyph glyph-name="otilde" unicode="&#xf5;" horiz-adv-x="491" 
d="M395.5 405.5c34.333 -40.333 51.5 -97.166 51.5 -170.499c0 -77.333 -18 -137.166 -54 -179.499s-87.333 -63.5 -154 -63.5c-62.667 0 -111.167 20.167 -145.5 60.5s-51.5 97.166 -51.5 170.499c0 77.333 18.167 137.166 54.5 179.499s87.833 63.5 154.5 63.5
c62 0 110.167 -20.167 144.5 -60.5zM150 367c-22 -28.667 -33 -70.667 -33 -126c0 -128 42.333 -192 127 -192c86 0 129 56 129 168c0 63.333 -10.833 111.333 -32.5 144s-53.167 49 -94.5 49c-42 0 -74 -14.333 -96 -43zM403 634l-61.001 -69.001l-10 -3
c-14.667 1.33301 -42.667 8 -84 20c-38 11.333 -61.667 17 -71 17c-4.66699 0 -9.66699 -2.16699 -15 -6.5s-13.666 -12.166 -24.999 -23.499l-16 -17h-9l-24 26v7l61 69l10 3c16 -1.33301 43.667 -8 83 -20c41.333 -10.667 65.333 -16 72 -16c8.66699 0 22 9.66699 40 29
l17 17h8l24 -25v-8z" />
    <glyph glyph-name="divide" unicode="&#xf7;" horiz-adv-x="480" 
d="M454 237h-407l-6 6l5 50h407l6 -6zM281.103 120.431c7.51855 -7.51855 11.2783 -17.8574 11.2783 -31.0156c0 -13.7852 -3.91602 -24.75 -11.748 -32.8955c-7.83301 -8.14551 -18.6416 -12.2188 -32.4268 -12.2188c-27.5693 0 -41.3545 14.4111 -41.3545 43.2344
c0 13.1582 3.91602 23.8105 11.749 31.9561c7.83203 8.14551 18.6406 12.2178 32.4258 12.2178c12.5322 0 22.5576 -3.75977 30.0762 -11.2783zM281.103 449.431c7.51855 -7.51855 11.2783 -17.8574 11.2783 -31.0156c0 -13.7852 -3.91602 -24.75 -11.748 -32.8955
c-7.83301 -8.14551 -18.6416 -12.2188 -32.4268 -12.2188c-27.5693 0 -41.3545 14.4111 -41.3545 43.2344c0 13.1582 3.91602 23.8105 11.749 31.9561c7.83203 8.14551 18.6406 12.2178 32.4258 12.2178c12.5322 0 22.5576 -3.75977 30.0762 -11.2783z" />
    <glyph glyph-name="oslash" unicode="&#xf8;" horiz-adv-x="491" 
d="M447 235c0 -77.333 -18.168 -137.166 -54.501 -179.499s-87.5 -63.5 -153.5 -63.5c-27.333 0 -52.666 4 -75.999 12l-60 -120l-44 20l-3 8l60 119c-49.333 39.333 -74 103.333 -74 192c0 77.333 18.167 137.166 54.5 179.499s87.5 63.5 153.5 63.5
c29.333 0 55 -4.33301 77 -13l49 98l41 -19l5 -9l-48 -96c48.667 -40.667 73 -104.667 73 -192zM148.999 98l150.001 300.001c-14.667 8 -32.334 12 -53.001 12c-42 0 -74 -14.333 -96 -43s-33 -70.667 -33 -126c0 -62.667 10.667 -110.334 32 -143.001zM373 217.001
c0 62.667 -10.667 110.333 -32 143l-150 -300c16 -7.33301 33.667 -11 53 -11c86 0 129 56 129 168z" />
    <glyph glyph-name="ugrave" unicode="&#xf9;" horiz-adv-x="511" 
d="M357 552l-22 -32l-9 -1c-47.333 33.333 -104 75.666 -170 126.999l-2 8l30 42l9 1c44 -43.333 98.667 -91.666 164 -144.999zM425.5 68.5c4.33301 -5.66699 11.8311 -8.5 22.498 -8.5s22.334 2 35.001 6l8 -7l-8 -45c-18 -11.333 -37 -18 -57 -20
c-40.667 4 -63.667 27.333 -69 70h-8c-40 -36 -81 -59.333 -123 -70c-49.333 0 -87 11.667 -113 35s-38.667 56.666 -38 99.999l2 127l-4 197l80 7l-5 -312c-0.666992 -27.333 5.5 -48.666 18.5 -63.999s32.167 -23 57.5 -23c40.667 0 82.334 20.333 125.001 61v331l75 7
l-5 -362c0 -14 2.16699 -23.833 6.5 -29.5z" />
    <glyph glyph-name="uacute" unicode="&#xfa;" horiz-adv-x="511" 
d="M425 68.5c4.66699 -5.66699 12.334 -8.5 23.001 -8.5s22.334 2 35.001 6l7 -7l-7 -45c-19.333 -11.333 -38.333 -18 -57 -20c-40.667 4 -63.667 27.333 -69 70h-8c-40 -36 -81.333 -59.333 -124 -70c-49.333 0 -86.833 11.667 -112.5 35s-38.167 56.666 -37.5 99.999
l1 127l-3 197l80 7l-6 -312c-0.666992 -27.333 5.66602 -48.666 18.999 -63.999s32.666 -23 57.999 -23c40.667 0 82 20.333 124 61v331l76 7l-6 -362c0 -14 2.33301 -23.833 7 -29.5zM385 654l-2 -8c-66 -51.333 -122.667 -93.666 -170 -126.999l-9 1l-22 32
c65.333 53.333 120 101.666 164 144.999l9 -1z" />
    <glyph glyph-name="ucircumflex" unicode="&#xfb;" horiz-adv-x="511" 
d="M245 689l24 -0.000976562c41.333 -51.333 81.666 -96 120.999 -134l-22 -32h-9c-41.333 39.333 -75.333 74 -102 104c-25.333 -28 -59.333 -62.667 -102 -104h-10l-22 32c38.667 38.667 79.334 83.334 122.001 134.001zM425.5 68.499
c4.33301 -5.66699 11.8311 -8.5 22.498 -8.5s22.334 2 35.001 6l8 -7l-8 -45c-18 -11.333 -37 -18 -57 -20c-40.667 4 -63.667 27.333 -69 70h-8c-40 -36 -81 -59.333 -123 -70c-49.333 0 -87 11.667 -113 35s-38.667 56.666 -38 99.999l2 127l-4 197l80 7l-5 -312
c-0.666992 -27.333 5.5 -48.666 18.5 -63.999s32.167 -23 57.5 -23c40.667 0 82.334 20.333 125.001 61v331l75 7l-5 -362c0 -14 2.16699 -23.833 6.5 -29.5z" />
    <glyph glyph-name="udieresis" unicode="&#xfc;" horiz-adv-x="511" 
d="M211 640c7.33301 -7.33301 11 -17.666 11 -30.999c0 -14 -4 -25.333 -12 -34s-19 -13 -33 -13c-13.333 0 -23.666 4 -30.999 12s-11 18.667 -11 32s4 24.166 12 32.499s19 12.5 33 12.5c13.333 0 23.666 -3.66699 30.999 -11zM368 640
c7.33301 -7.33301 11 -17.666 11 -30.999c0 -14 -4 -25.333 -12 -34s-19 -13 -33 -13c-13.333 0 -23.666 4 -30.999 12s-11 18.667 -11 32s4 24.166 12 32.499s19 12.5 33 12.5c13.333 0 23.666 -3.66699 30.999 -11zM425.5 68.5c4.33301 -5.66699 11.8311 -8.5 22.498 -8.5
s22.334 2 35.001 6l8 -7l-8 -45c-18 -11.333 -37 -18 -57 -20c-40.667 4 -63.667 27.333 -69 70h-8c-40 -36 -81 -59.333 -123 -70c-49.333 0 -87 11.667 -113 35s-38.667 56.666 -38 99.999l2 127l-4 197l80 7l-5 -312c-0.666992 -27.333 5.5 -48.666 18.5 -63.999
s32.167 -23 57.5 -23c40.667 0 82.334 20.333 125.001 61v331l75 7l-5 -362c0 -14 2.16699 -23.833 6.5 -29.5z" />
    <glyph glyph-name="thorn" unicode="&#xfe;" horiz-adv-x="512" 
d="M424.5 405.5c30.333 -38.333 45.499 -92.5 45.499 -162.5c0 -80 -19.333 -141.833 -58 -185.5s-92.667 -65.5 -162 -65.5c-29.333 0 -59.333 6.33301 -90 19l2 -196h-78l6 379l-6 501l79 7l-3 -307h6c22.667 18.667 43.334 33 62.001 43s40 18.333 64 25
c58 0 102.167 -19.167 132.5 -57.5zM357.999 95c24.667 30 36.998 74.333 36.998 133c0 54 -9.5 95.833 -28.5 125.5s-46.167 44.5 -81.5 44.5c-40.667 0 -82.667 -23.667 -126 -71l-1 -126l1 -118c32.667 -22 65.334 -33 98.001 -33c42.667 0 76.334 15 101.001 45z" />
    <glyph glyph-name="ydieresis" unicode="&#xff;" horiz-adv-x="426" 
d="M171 640c7.33301 -7.33301 11 -17.666 11 -30.999c0 -14 -4 -25.333 -12 -34s-19 -13 -33 -13c-13.333 0 -23.666 4 -30.999 12s-11 18.667 -11 32s4 24.166 12 32.499s19 12.5 33 12.5c13.333 0 23.666 -3.66699 30.999 -11zM328 640
c7.33301 -7.33301 11 -17.666 11 -30.999c0 -14 -4 -25.333 -12 -34s-19 -13 -33 -13c-13.333 0 -23.666 4 -30.999 12s-11 18.667 -11 32s4 24.166 12 32.499s19 12.5 33 12.5c13.333 0 23.666 -3.66699 30.999 -11zM211 89h7l110 305l15 64h73l-162 -441
c-22 -59.333 -50.667 -105 -86 -137s-83.333 -55.667 -144 -71h-9c-16 16 -28.333 32.667 -37 50l3 10c50 9.33301 90.167 24 120.5 44s55.833 49 76.5 87l-169 456l78 5l15 -59z" />
    <glyph glyph-name="Amacron" unicode="&#x100;" horiz-adv-x="578" 
d="M474 0l-15 64l-36 110l-144 3l-130 -3l-39 -106l-16 -68h-80l235 641h93l214 -641h-82zM297 558h-7l-116 -316l112 -2l115 2zM432 764h-283l-6 6l5 46h283l6 -5z" />
    <glyph glyph-name="amacron" unicode="&#x101;" horiz-adv-x="462" 
d="M333.5 434c25 -21.333 37.5 -50.667 37.5 -88c0 -11.333 -2 -52.333 -6 -123s-6 -112 -6 -124c0 -14.667 2.33301 -24.834 7 -30.501s12.667 -8.5 24 -8.5c10 0 21.333 2 34 6l8 -7l-8 -45c-19.333 -11.333 -38.333 -18 -57 -20c-20.667 2 -37.167 9.33301 -49.5 22
s-18.833 30 -19.5 52h-7c-36 -36.667 -71.667 -61.667 -107 -75c-44.667 0 -79.5 11.167 -104.5 33.5s-37.5 52.833 -37.5 91.5c0 56.667 31 92.334 93 107.001l162 38l1 65c0 26 -6.83301 46 -20.5 60s-33.167 21 -58.5 21c-43.333 0 -90.333 -22 -141 -66l-8 4l-10 57
c55.333 41.333 112.333 62 171 62c43.333 0 77.5 -10.667 102.5 -32zM122 160.499c-6 -7 -9 -17.5 -9 -31.5c0 -22 6.16699 -39.167 18.5 -51.5s28.833 -18.5 49.5 -18.5c36.667 0 74 23.667 112 71l3 82l-145 -35c-13.333 -4 -23 -9.5 -29 -16.5zM365 581.999h-283l-6 6
l5 46h283l6 -5z" />
    <glyph glyph-name="Abreve" unicode="&#x102;" horiz-adv-x="578" 
d="M474 0l-15 64l-36 110l-144 3l-130 -3l-39 -106l-16 -68h-80l235 641h93l214 -641h-82zM297 558h-7l-116 -316l112 -2l115 2zM368 747.5c-22 -15.667 -48.668 -23.498 -80.001 -23.498c-30.667 0 -56.667 7.66699 -78 23s-36.666 37.666 -45.999 66.999l22 28h12
c14.667 -40.667 45.667 -61 93 -61c44.667 0 75 20.333 91 61h12l23 -28c-10.667 -28.667 -27 -50.834 -49 -66.501z" />
    <glyph glyph-name="abreve" unicode="&#x103;" horiz-adv-x="462" 
d="M333.5 434c25 -21.333 37.5 -50.667 37.5 -88c0 -11.333 -2 -52.333 -6 -123s-6 -112 -6 -124c0 -14.667 2.33301 -24.834 7 -30.501s12.667 -8.5 24 -8.5c10 0 21.333 2 34 6l8 -7l-8 -45c-19.333 -11.333 -38.333 -18 -57 -20c-20.667 2 -37.167 9.33301 -49.5 22
s-18.833 30 -19.5 52h-7c-36 -36.667 -71.667 -61.667 -107 -75c-44.667 0 -79.5 11.167 -104.5 33.5s-37.5 52.833 -37.5 91.5c0 56.667 31 92.334 93 107.001l162 38l1 65c0 26 -6.83301 46 -20.5 60s-33.167 21 -58.5 21c-43.333 0 -90.333 -22 -141 -66l-8 4l-10 57
c55.333 41.333 112.333 62 171 62c43.333 0 77.5 -10.667 102.5 -32zM122 160.499c-6 -7 -9 -17.5 -9 -31.5c0 -22 6.16699 -39.167 18.5 -51.5s28.833 -18.5 49.5 -18.5c36.667 0 74 23.667 112 71l3 82l-145 -35c-13.333 -4 -23 -9.5 -29 -16.5zM222 526.999
c-67.333 0 -108.669 38.333 -124.002 115l22 29h12c12.667 -58 43.334 -87 92.001 -87s79.334 29 92.001 87h12l23 -29c-18 -76.667 -61 -115 -129 -115z" />
    <glyph glyph-name="Aogonek" unicode="&#x104;" horiz-adv-x="578" 
d="M511 -197c-23.333 0 -42.002 7.00195 -56.002 21.002s-21 33 -21 57c0 15.333 3.83301 31.666 11.5 48.999s21.834 40.666 42.501 69.999h-14l-14 64l-36 110l-145 3l-130 -3l-39 -106l-16 -68h-80l236 641h93l214 -641h-20c-33.333 -49.333 -50 -85.333 -50 -108
c0 -23.333 11.333 -35 34 -35c24.667 0 49.334 12.333 74.001 37h5l11 -38c-32 -35.333 -65.333 -53 -100 -53zM296.998 558.002h-7l-116 -316l112 -2l115 2z" />
    <glyph glyph-name="aogonek" unicode="&#x105;" horiz-adv-x="462" 
d="M355 -197c-20.667 0 -37.999 6.49902 -51.999 19.499s-21 30.5 -21 52.5c0 15.333 5.16699 31.5 15.5 48.5s30.166 41.167 59.499 72.5c-36.667 7.33301 -56.667 31.333 -60 72h-6c-36 -36.667 -71.667 -61.667 -107 -75c-44.667 0 -79.5 11.167 -104.5 33.5
s-37.5 52.833 -37.5 91.5c0 56.667 31 92.334 93 107.001l162 38l1 65c0 26 -6.83301 46 -20.5 60s-33.167 21 -58.5 21c-44 0 -91 -22 -141 -66l-8 4l-11 57c56.667 41.333 114 62 172 62c42.667 0 76.667 -10.667 102 -32s38 -50.666 38 -87.999
c0 -11.333 -2 -52.333 -6 -123c-4.66699 -62 -7 -103.333 -7 -124c0 -14.667 2.33301 -24.834 7 -30.501s13 -8.5 25 -8.5c10 0 21 2 33 6l8 -7l-7 -45c-35.333 -39.333 -58.833 -67.5 -70.5 -84.5s-17.5 -31.167 -17.5 -42.5c0 -19.333 10.333 -29 31 -29
s40.334 11.667 59.001 35h4l14 -41c-30.667 -32.667 -60.334 -49 -89.001 -49zM151.001 176.999c-13.333 -3.33301 -23.001 -8.66699 -29.001 -16s-9 -18 -9 -32c0 -22 6.16699 -39.167 18.5 -51.5s28.5 -18.5 48.5 -18.5c36.667 0 74.334 23.667 113.001 71l3 82z" />
    <glyph glyph-name="Cacute" unicode="&#x106;" horiz-adv-x="520" 
d="M497 598l-15.999 -72.999l-9 -2c-44.667 37.333 -96 56 -154 56c-63.333 0 -112 -21.833 -146 -65.5s-51 -107.5 -51 -191.5c0 -84.667 17 -149.334 51 -194.001s82 -67 144 -67c61.333 0 117 20.333 167 61l10 -5l-7 -76c-58 -32 -117 -48 -177 -48
c-86 0 -152.667 27.833 -200 83.5s-71 135.167 -71 238.5c0 106 24.667 187.667 74 245s119.333 86 210 86c67.333 0 125.666 -16 174.999 -48zM451.001 814.001l-2 -8l-195 -86l-10 4l-14 36c68.667 34 132.667 68.333 192 103l9 -2z" />
    <glyph glyph-name="cacute" unicode="&#x107;" horiz-adv-x="385" 
d="M368 439l-13.998 -69.001l-9 -3c-34.667 22.667 -69 34 -103 34c-39.333 0 -70 -15 -92 -45s-33 -72 -33 -126s11.5 -96.5 34.5 -127.5s54.833 -46.5 95.5 -46.5c38 0 75.333 11.333 112 34l9 -5l-9 -67c-40.667 -17.333 -81.334 -26 -122.001 -26
c-60.667 0 -108.334 20.833 -143.001 62.5s-52 98.834 -52 171.501c0 74 18.167 132.5 54.5 175.5s85.833 64.5 148.5 64.5c44.667 0 85.667 -9 123 -27zM366.002 653.999l-2 -8c-66 -51.333 -122.667 -93.666 -170 -126.999l-9 1l-22 32
c65.333 53.333 120 101.666 164 144.999l9 -1z" />
    <glyph glyph-name="Ccircumflex" unicode="&#x108;" horiz-adv-x="520" 
d="M302 858h22.998c30 -26.667 69 -57 117 -91l-16 -34h-9c-37.333 22.667 -71.666 44.667 -102.999 66c-26 -18 -60 -40 -102 -66h-10l-16 34c44.667 30.667 83.334 61 116.001 91zM496.998 598l-15.999 -72.999l-9 -2c-44.667 37.333 -96 56 -154 56
c-63.333 0 -112 -21.833 -146 -65.5s-51 -107.5 -51 -191.5c0 -84.667 17 -149.334 51 -194.001s82 -67 144 -67c61.333 0 117 20.333 167 61l10 -5l-7 -76c-58 -32 -117 -48 -177 -48c-86 0 -152.667 27.833 -200 83.5s-71 135.167 -71 238.5c0 106 24.667 187.667 74 245
s119.333 86 210 86c67.333 0 125.666 -16 174.999 -48z" />
    <glyph glyph-name="ccircumflex" unicode="&#x109;" horiz-adv-x="385" 
d="M226 689l24 -0.000976562c41.333 -51.333 81.666 -96 120.999 -134l-22 -32h-9c-41.333 39.333 -75.333 74 -102 104c-25.333 -28 -59.333 -62.667 -102 -104h-10l-22 32c38.667 38.667 79.334 83.334 122.001 134.001zM368 438.999l-14 -69.001l-9 -3
c-36 22.667 -70.333 34 -103 34c-39.333 0 -70 -15 -92 -45s-33 -72 -33 -126s11.5 -96.5 34.5 -127.5s54.5 -46.5 94.5 -46.5c38.667 0 76.334 11.333 113.001 34l8 -5l-8 -67c-41.333 -17.333 -82 -26 -122 -26c-60.667 0 -108.334 20.833 -143.001 62.5
s-52 98.834 -52 171.501c0 74 18 132.5 54 175.5s85.667 64.5 149 64.5c44.667 0 85.667 -9 123 -27z" />
    <glyph glyph-name="Cdotaccent" unicode="&#x10a;" horiz-adv-x="520" 
d="M497 598l-15.999 -72.999l-9 -2c-44.667 37.333 -96 56 -154 56c-63.333 0 -112 -21.833 -146 -65.5s-51 -107.5 -51 -191.5c0 -84.667 17 -149.334 51 -194.001s82 -67 144 -67c61.333 0 117 20.333 167 61l10 -5l-7 -76c-58 -32 -117 -48 -177 -48
c-86 0 -152.667 27.833 -200 83.5s-71 135.167 -71 238.5c0 106 24.667 187.667 74 245s119.333 86 210 86c67.333 0 125.666 -16 174.999 -48zM348.001 833.001c8 -8 12 -18.999 12 -32.999c0 -14.667 -4.16699 -26.334 -12.5 -35.001s-19.833 -13 -34.5 -13
c-29.333 0 -44 15.333 -44 46c0 14 4.16699 25.333 12.5 34s19.833 13 34.5 13c13.333 0 24 -4 32 -12z" />
    <glyph glyph-name="cdotaccent" unicode="&#x10b;" horiz-adv-x="385" 
d="M270 651c8 -8 12 -18.667 12 -32c0 -15.333 -4.16699 -27.333 -12.5 -36s-19.833 -13 -34.5 -13c-29.333 0 -44 15.333 -44 46c0 14 4.16699 25.333 12.5 34s19.833 13 34.5 13c13.333 0 24 -4 32 -12zM368 439l-14 -69.001l-9 -3c-36 22.667 -70.333 34 -103 34
c-39.333 0 -70 -15 -92 -45s-33 -72 -33 -126s11.5 -96.5 34.5 -127.5s54.5 -46.5 94.5 -46.5c38.667 0 76.334 11.333 113.001 34l8 -5l-8 -67c-41.333 -17.333 -82 -26 -122 -26c-60.667 0 -108.334 20.833 -143.001 62.5s-52 98.834 -52 171.501c0 74 18 132.5 54 175.5
s85.667 64.5 149 64.5c44.667 0 85.667 -9 123 -27z" />
    <glyph glyph-name="Ccaron" unicode="&#x10c;" horiz-adv-x="520" 
d="M497 598l-15.999 -72.999l-9 -2c-44.667 37.333 -96 56 -154 56c-63.333 0 -112 -21.833 -146 -65.5s-51 -107.5 -51 -191.5c0 -84.667 17 -149.334 51 -194.001s82 -67 144 -67c61.333 0 117 20.333 167 61l10 -5l-7 -76c-58 -32 -117 -48 -177 -48
c-86 0 -152.667 27.833 -200 83.5s-71 135.167 -71 238.5c0 106 24.667 187.667 74 245s119.333 86 210 86c67.333 0 125.666 -16 174.999 -48zM327.001 723.001h-22.998c-30 26.667 -69 57 -117 91l16 34h9c37.333 -22.667 71.666 -44.667 102.999 -66c26 18 60 40 102 66
h10l16 -34c-44.667 -30.667 -83.334 -61 -116.001 -91z" />
    <glyph glyph-name="ccaron" unicode="&#x10d;" horiz-adv-x="385" 
d="M368 439l-13.998 -69.001l-9 -3c-34.667 22.667 -69 34 -103 34c-39.333 0 -70 -15 -92 -45s-33 -72 -33 -126s11.5 -96.5 34.5 -127.5s54.833 -46.5 95.5 -46.5c38 0 75.333 11.333 112 34l9 -5l-9 -67c-40.667 -17.333 -81.334 -26 -122.001 -26
c-60.667 0 -108.334 20.833 -143.001 62.5s-52 98.834 -52 171.501c0 74 18.167 132.5 54.5 175.5s85.833 64.5 148.5 64.5c44.667 0 85.667 -9 123 -27zM249.002 521.999h-24.001c-41.333 51.333 -81.666 96 -120.999 134l22 32h9c41.333 -39.333 75.333 -74 102 -104
c25.333 28 59.333 62.667 102 104h10l22 -32c-38 -38 -78.667 -82.667 -122 -134z" />
    <glyph glyph-name="Dcaron" unicode="&#x10e;" horiz-adv-x="646" 
d="M535 567c48.667 -52 73 -126.667 73 -224c0 -112.667 -26.333 -199 -79 -259s-128.334 -90 -227.001 -90c-65.333 0 -134.666 2 -207.999 6h-1l5 193l-5 448h1l231 4c91.333 0 161.333 -26 210 -78zM471.5 127.5c36.333 44.333 54.5 110.5 54.5 198.5
c0 168 -69 252 -207 252c-42 0 -90.333 -1.33301 -145 -4l-4 -374l3 -133c46.667 -4 94 -6 142 -6c68 0 120.167 22.167 156.5 66.5zM327 723h-22.998c-30 26.667 -69 57 -117 91l16 34h9c37.333 -22.667 71.666 -44.667 102.999 -66c26 18 60 40 102 66h10l16 -34
c-44.667 -30.667 -83.334 -61 -116.001 -91z" />
    <glyph glyph-name="dcaron" unicode="&#x10f;" horiz-adv-x="536" 
d="M425 98c0.666992 -14 2.99902 -23.833 6.99902 -29.5s11 -8.5 21 -8.5c10.667 0 22.334 2 35.001 6l8 -7l-8 -45c-18 -11.333 -37 -18 -57 -20c-40.667 4 -63.667 27.333 -69 70h-8c-37.333 -32.667 -73.333 -55.667 -108 -69c-66 0 -116.667 20.167 -152 60.5
s-53 97.833 -53 172.5c0 75.333 19.5 133.833 58.5 175.5s93.5 62.5 163.5 62.5c30 0 59.333 -3.33301 88 -10l-2 239l79 7l-6 -501zM535.999 471l-38 -6l-7 6l5 175l57 4l6 -7zM151.999 366.5c-24.667 -29 -36.999 -70.833 -36.999 -125.5
c0 -56.667 11.167 -100.667 33.5 -132s53.166 -47 92.499 -47c38 0 74.667 20.333 110 61l2 72l-3 190c-35.333 16.667 -67.666 25 -96.999 25c-42.667 0 -76.334 -14.5 -101.001 -43.5z" />
    <glyph glyph-name="Dcroat" unicode="&#x110;" horiz-adv-x="646" 
d="M535 567c48.667 -52 73 -126.667 73 -224c0 -112.667 -26.333 -199 -79 -259s-128.334 -90 -227.001 -90c-65.333 0 -134.666 2 -207.999 6h-1l5 193l-5 448h1l231 4c91.333 0 161.333 -26 210 -78zM471.5 127.5c36.333 44.333 54.5 110.5 54.5 198.5
c0 168 -69 252 -207 252c-42 0 -90.333 -1.33301 -145 -4l-4 -374l3 -133c46.667 -4 94 -6 142 -6c68 0 120.167 22.167 156.5 66.5zM456 764h-283l-6 6l5 46h283l6 -5z" />
    <glyph glyph-name="dcroat" unicode="&#x111;" horiz-adv-x="520" 
d="M422 201l2.99902 -103c0.666992 -14 3 -23.833 7 -29.5s11 -8.5 21 -8.5c10.667 0 22.334 2 35.001 6l8 -7l-8 -45c-18 -11.333 -37 -18 -57 -20c-40.667 4 -63.667 27.333 -69 70h-8c-37.333 -32.667 -73.333 -55.667 -108 -69c-66 0 -116.667 20.167 -152 60.5
s-53 97.833 -53 172.5c0 75.333 19.5 133.833 58.5 175.5s93.5 62.5 163.5 62.5c30 0 59.333 -3.33301 88 -10l-1 100h-124l-6 6l5 43h125l-1 90l79 7l-1 -97h71l7 -7l-5 -42h-74zM349.999 385c-35.333 16.667 -67.665 25 -96.998 25
c-42.667 0 -76.334 -14.5 -101.001 -43.5s-37 -70.833 -37 -125.5c0 -56.667 11.167 -100.667 33.5 -132s53.166 -47 92.499 -47c38 0 74.667 20.333 110 61l2 72z" />
    <glyph glyph-name="Emacron" unicode="&#x112;" horiz-adv-x="482" 
d="M453 0h-360l5 193l-5 448h361l4 -8l-6 -62l-151 3l-127 -2l-2 -210l120 -2l106 3l6 -7l-7 -62l-112 2l-114 -1l-1 -95l3 -133l127 -1l154 4l5 -8zM416 764h-283l-6 6l5 46h283l6 -5z" />
    <glyph glyph-name="emacron" unicode="&#x113;" horiz-adv-x="452" 
d="M117 230c0 -55.333 11.5 -98.168 34.5 -128.501s57.167 -45.5 102.5 -45.5c46 0 90.667 15 134 45l9 -5l-8 -67c-48 -24.667 -94.333 -37 -139 -37c-65.333 0 -116.333 20.833 -153 62.5s-55 98.834 -55 171.501c0 74 19.333 132.333 58 175s91 64 157 64
c50 0 88.833 -15.167 116.5 -45.5s41.5 -72.5 41.5 -126.5l-2 -46l-17 -13l-279 -1v-3zM165.5 376.998c-22.333 -21.333 -36.833 -51.668 -43.5 -91.001l220 6l2 12c0 34.667 -8.5 60.834 -25.5 78.501s-39.833 26.5 -68.5 26.5c-34 0 -62.167 -10.667 -84.5 -32z
M387 581.996h-283l-6 6l5 46h283l6 -5z" />
    <glyph glyph-name="Ebreve" unicode="&#x114;" horiz-adv-x="482" 
d="M453 0h-360l5 193l-5 448h361l4 -8l-6 -62l-151 3l-127 -2l-2 -210l120 -2l106 3l6 -7l-7 -62l-112 2l-114 -1l-1 -95l3 -133l127 -1l154 4l5 -8zM352 747.5c-22 -15.667 -48.668 -23.498 -80.001 -23.498c-30.667 0 -56.667 7.66699 -78 23
s-36.666 37.666 -45.999 66.999l22 28h12c14.667 -40.667 45.667 -61 93 -61c44.667 0 75 20.333 91 61h12l23 -28c-10.667 -28.667 -27 -50.834 -49 -66.501z" />
    <glyph glyph-name="ebreve" unicode="&#x115;" horiz-adv-x="452" 
d="M117 230c0 -55.333 11.5 -98.168 34.5 -128.501s57.167 -45.5 102.5 -45.5c46 0 90.667 15 134 45l9 -5l-8 -67c-48 -24.667 -94.333 -37 -139 -37c-65.333 0 -116.333 20.833 -153 62.5s-55 98.834 -55 171.501c0 74 19.333 132.333 58 175s91 64 157 64
c50 0 88.833 -15.167 116.5 -45.5s41.5 -72.5 41.5 -126.5l-2 -46l-17 -13l-279 -1v-3zM165.5 376.998c-22.333 -21.333 -36.833 -51.668 -43.5 -91.001l220 6l2 12c0 34.667 -8.5 60.834 -25.5 78.501s-39.833 26.5 -68.5 26.5c-34 0 -62.167 -10.667 -84.5 -32z
M244 526.996c-67.333 0 -108.669 38.333 -124.002 115l22 29h12c12.667 -58 43.334 -87 92.001 -87s79.334 29 92.001 87h12l23 -29c-18 -76.667 -61 -115 -129 -115z" />
    <glyph glyph-name="Edotaccent" unicode="&#x116;" horiz-adv-x="482" 
d="M229 798c0 14 4.16699 25.333 12.5 34s19.833 13 34.5 13c13.333 0 24 -4 32 -12s12 -18.667 12 -32c0 -15.333 -4.16699 -27.333 -12.5 -36s-19.833 -13 -34.5 -13c-29.333 0 -44 15.333 -44 46zM459 62l-6 -62h-360l5 193l-5 448h361l5 -8l-7 -62l-151 3l-127 -2
l-2 -210l120 -2l106 3l5 -7l-6 -62l-112 2l-114 -1l-1 -95l3 -133l128 -1l153 4z" />
    <glyph glyph-name="edotaccent" unicode="&#x117;" horiz-adv-x="452" 
d="M200 616c0 14 4.16699 25.333 12.5 34s19.833 13 34.5 13c13.333 0 24 -4 32 -12s12 -18.667 12 -32c0 -15.333 -4.16699 -27.333 -12.5 -36s-19.833 -13 -34.5 -13c-29.333 0 -44 15.333 -44 46zM117 230c0 -55.333 11.498 -98.168 34.498 -128.501
s57.167 -45.5 102.5 -45.5c46 0 90.667 15 134 45l9 -5l-9 -67c-47.333 -24.667 -93.666 -37 -138.999 -37c-65.333 0 -116.166 20.833 -152.499 62.5s-54.5 98.834 -54.5 171.501c0 73.333 19.333 131.5 58 174.5s90.667 64.5 156 64.5c50 0 89 -15.167 117 -45.5
s42 -72.5 42 -126.5c0 -18.667 -1 -34 -3 -46l-16 -13l-279 -1v-3zM165.498 376.998c-22.333 -21.333 -36.832 -51.668 -43.499 -91.001l219 6l2 12c0 34.667 -8.33301 60.834 -25 78.501s-39.334 26.5 -68.001 26.5c-34 0 -62.167 -10.667 -84.5 -32z" />
    <glyph glyph-name="Eogonek" unicode="&#x118;" horiz-adv-x="482" 
d="M368 -197c-24 0 -43.167 7.33398 -57.5 22.001s-21.5 34 -21.5 58c0 25.333 8.33301 49.666 25 72.999l30 44h-251l5 193l-5 448h361l5 -8l-7 -62l-151 3l-127 -2l-2 -210l120 -2l106 3l5 -7l-6 -62l-112 2l-114 -1l-1 -95l3 -133l128 -1l153 4l5 -8l-6 -62h-59l-35 -53
c-12 -19.333 -18 -36 -18 -50c0 -12 3.5 -21.667 10.5 -29s16.833 -11 29.5 -11c22.667 0 45.667 12.667 69 38h5l11 -40c-33.333 -34.667 -66 -52 -98 -52z" />
    <glyph glyph-name="eogonek" unicode="&#x119;" horiz-adv-x="452" 
d="M117 230c0 -55.333 11.499 -98.167 34.499 -128.5s57.167 -45.5 102.5 -45.5c46 0 90.667 15 134 45l9 -5l-9 -67c-17.333 -8.66699 -32 -15 -44 -19l-41 -63c-12 -19.333 -18 -36 -18 -50c0 -12 3.5 -21.667 10.5 -29s16.833 -11 29.5 -11c22.667 0 45.667 12.667 69 38
h5l11 -40c-33.333 -34.667 -66 -52 -98 -52c-24 0 -43.167 7.33301 -57.5 22s-21.5 34 -21.5 58c0 25.333 8.33301 49.666 25 72.999l27 39c-12 -2 -24 -3 -36 -3c-65.333 0 -116.166 20.833 -152.499 62.5s-54.5 98.834 -54.5 171.501c0 73.333 19.333 131.5 58 174.5
s90.667 64.5 156 64.5c50 0 89 -15.167 117 -45.5s42 -72.5 42 -126.5c0 -18.667 -1 -34 -3 -46l-16 -13l-279 -1v-3zM165.499 376.999c-22.333 -21.333 -36.832 -51.668 -43.499 -91.001l219 6l2 12c0 34.667 -8.33301 60.834 -25 78.501s-39.334 26.5 -68.001 26.5
c-34 0 -62.167 -10.667 -84.5 -32z" />
    <glyph glyph-name="Ecaron" unicode="&#x11a;" horiz-adv-x="482" 
d="M453 0h-360l5 193l-5 448h361l4 -8l-6 -62l-151 3l-127 -2l-2 -210l120 -2l106 3l6 -7l-7 -62l-112 2l-114 -1l-1 -95l3 -133l127 -1l154 4l5 -8zM287 723h-22.998c-30 26.667 -69 57 -117 91l16 34h9c37.333 -22.667 71.666 -44.667 102.999 -66c26 18 60 40 102 66h10
l16 -34c-44.667 -30.667 -83.334 -61 -116.001 -91z" />
    <glyph glyph-name="ecaron" unicode="&#x11b;" horiz-adv-x="452" 
d="M117 230c0 -55.333 11.5 -98.168 34.5 -128.501s57.167 -45.5 102.5 -45.5c46 0 90.667 15 134 45l9 -5l-8 -67c-48 -24.667 -94.333 -37 -139 -37c-65.333 0 -116.333 20.833 -153 62.5s-55 98.834 -55 171.501c0 74 19.333 132.333 58 175s91 64 157 64
c50 0 88.833 -15.167 116.5 -45.5s41.5 -72.5 41.5 -126.5l-2 -46l-17 -13l-279 -1v-3zM165.5 376.998c-22.333 -21.333 -36.833 -51.668 -43.5 -91.001l220 6l2 12c0 34.667 -8.5 60.834 -25.5 78.501s-39.833 26.5 -68.5 26.5c-34 0 -62.167 -10.667 -84.5 -32z
M257 521.996h-24.001c-41.333 51.333 -81.666 96 -120.999 134l22 32h9c41.333 -39.333 75.333 -74 102 -104c25.333 28 59.333 62.667 102 104h10l22 -32c-38 -38 -78.667 -82.667 -122 -134z" />
    <glyph glyph-name="Gcircumflex" unicode="&#x11c;" horiz-adv-x="600" 
d="M314 858h22.998c30 -26.667 69 -57 117 -91l-16 -34h-9c-37.333 22.667 -71.666 44.667 -102.999 66c-26 -18 -60 -40 -102 -66h-10l-16 34c44.667 30.667 83.334 61 116.001 91zM538.998 601l-17 -76l-10 -2c-32 20 -61.5 34.333 -88.5 43s-55.5 13 -85.5 13
c-144.667 0 -217 -89.333 -217 -268c0 -86 16.833 -149.167 50.5 -189.5s85.834 -60.5 156.501 -60.5c33.333 0 76.666 8 129.999 24l3 75l-2 91l75 6l-2 -86l4 -140c-81.333 -25.333 -152 -38 -212 -38c-95.333 0 -166.833 27 -214.5 81s-71.5 132 -71.5 234
c0 110 27 193.833 81 251.5s131 86.5 231 86.5c66.667 0 129.667 -15 189 -45z" />
    <glyph glyph-name="gcircumflex" unicode="&#x11d;" horiz-adv-x="487" 
d="M112 545c38.667 38.667 79.334 83.333 122.001 134h24c41.333 -51.333 81.666 -96 120.999 -134l-22 -32h-9c-41.333 39.333 -75.333 74 -102 104c-25.333 -28 -59.333 -62.667 -102 -104h-10zM393 397.999l-1.99902 -4.00293c14.667 -23.333 22 -51.666 22 -84.999
c0 -48 -16 -86.5 -48 -115.5s-75.667 -43.5 -131 -43.5c-22 0 -43 2.66699 -63 8c-18.667 -15.333 -28 -28.333 -28 -39c0 -14 8.66699 -23.833 26 -29.5s45.666 -11.5 84.999 -17.5c38 -5.33301 69.5 -11.333 94.5 -18s46.333 -17.5 64 -32.5s26.5 -35.833 26.5 -62.5
c0 -28 -9.5 -53.667 -28.5 -77s-44.833 -41.666 -77.5 -54.999s-68.667 -20 -108 -20c-54 0 -95.833 12.167 -125.5 36.5s-44.5 55.833 -44.5 94.5c16.667 32 46 61 88 87v5c-50 15.333 -75 42 -75 80c14.667 24 35.334 44.333 62.001 61v4
c-44 26.667 -66 69.334 -66 128.001c0 50 16.167 89.167 48.5 117.5s75.5 42.5 129.5 42.5c34.667 0 64.667 -6 90 -18c46 8.66699 94.333 20 145 34l8 -6v-54c-20.667 -6 -51.334 -13 -92.001 -21zM315.001 231.996c18.667 18.667 27.998 44.667 27.998 78
c0 32 -8.66699 56.667 -26 74s-42.666 26 -75.999 26s-59.333 -9 -78 -27s-28 -43.667 -28 -77c0 -32 8.83301 -57 26.5 -75s42.834 -27 75.501 -27c33.333 0 59.333 9.33301 78 28zM350.999 -19.5039c-12 9 -26.834 15.5 -44.501 19.5s-42.167 8.33301 -73.5 13l-31 5
c-51.333 -31.333 -77 -60.666 -77 -87.999c0 -19.333 9.5 -35.333 28.5 -48s45.833 -19 80.5 -19c38.667 0 70.834 7.66699 96.501 23s38.5 34.666 38.5 57.999c0 15.333 -6 27.5 -18 36.5z" />
    <glyph glyph-name="Gbreve" unicode="&#x11e;" horiz-adv-x="600" 
d="M538 601l-16 -76l-10 -2c-32 20 -61.5 34.333 -88.5 43s-55.5 13 -85.5 13c-144.667 0 -217 -89.333 -217 -268c0 -86 16.833 -149.167 50.5 -189.5s85.834 -60.5 156.501 -60.5c33.333 0 76.666 8 129.999 24l2 75l-1 91l75 6l-2 -86l4 -140
c-81.333 -25.333 -152 -38 -212 -38c-95.333 0 -166.833 27 -214.5 81s-71.5 132 -71.5 234c0 110 27 193.833 81 251.5s131 86.5 231 86.5c67.333 0 130 -15 188 -45zM404 747.5c-22 -15.667 -48.668 -23.498 -80.001 -23.498c-30.667 0 -56.667 7.66699 -78 23
s-36.666 37.666 -45.999 66.999l22 28h12c14.667 -40.667 45.667 -61 93 -61c44.667 0 75 20.333 91 61h12l23 -28c-10.667 -28.667 -27 -50.834 -49 -66.501z" />
    <glyph glyph-name="gbreve" unicode="&#x11f;" horiz-adv-x="487" 
d="M393 398l-2 -4.00098c14.667 -23.333 22 -51.666 22 -84.999c0 -48.667 -16.167 -87.334 -48.5 -116.001s-76.166 -43 -131.499 -43c-22 0 -42.667 2.66699 -62 8c-19.333 -14.667 -29 -27.667 -29 -39c0 -14 8.66699 -23.833 26 -29.5s45.666 -11.5 84.999 -17.5
c38.667 -5.33301 70.334 -11.333 95.001 -18s46 -17.5 64 -32.5s27 -35.833 27 -62.5c0 -28 -9.5 -53.667 -28.5 -77s-45 -41.666 -78 -54.999s-69.167 -20 -108.5 -20c-53.333 0 -94.833 12.167 -124.5 36.5s-44.5 55.833 -44.5 94.5c16 32 45.333 61 88 87v5
c-50 15.333 -75 42 -75 80c14 23.333 34.333 43.666 61 60.999v4c-43.333 26.667 -65 69.334 -65 128.001c0 50 16.167 89.167 48.5 117.5s75.5 42.5 129.5 42.5c34.667 0 64.667 -6 90 -18c46 8.66699 94.333 20 145 34l8 -6v-54c-20.667 -6 -51.334 -13 -92.001 -21z
M314.5 231.999c18.333 18.667 27.5 44.667 27.5 78c0 32 -8.66699 56.667 -26 74s-42.333 26 -75 26c-33.333 0 -59.333 -9 -78 -27s-28 -43.667 -28 -77c0 -32 8.83301 -57 26.5 -75s42.834 -27 75.501 -27c33.333 0 59.166 9.33301 77.499 28zM351 -19.501
c-12 9 -26.833 15.498 -44.5 19.498s-42.167 8.33301 -73.5 13l-31 5c-51.333 -31.333 -77 -60.666 -77 -87.999c0 -19.333 9.5 -35.333 28.5 -48s45.5 -19 79.5 -19c38.667 0 71 7.83301 97 23.5s39 34.834 39 57.501c0 15.333 -6 27.5 -18 36.5zM244 516.997
c-67.333 0 -108.669 38.333 -124.002 115l22 29h12c12.667 -58 43.334 -87 92.001 -87s79.334 29 92.001 87h12l23 -29c-18 -76.667 -61 -115 -129 -115z" />
    <glyph glyph-name="Gdotaccent" unicode="&#x120;" horiz-adv-x="600" 
d="M538 601l-16 -76l-10 -2c-32 20 -61.5 34.333 -88.5 43s-55.5 13 -85.5 13c-144.667 0 -217 -89.333 -217 -268c0 -86 16.833 -149.167 50.5 -189.5s85.834 -60.5 156.501 -60.5c33.333 0 76.666 8 129.999 24l2 75l-1 91l75 6l-2 -86l4 -140
c-81.333 -25.333 -152 -38 -212 -38c-95.333 0 -166.833 27 -214.5 81s-71.5 132 -71.5 234c0 110 27 193.833 81 251.5s131 86.5 231 86.5c67.333 0 130 -15 188 -45zM360 833c8 -8 12 -18.999 12 -32.999c0 -14.667 -4.16699 -26.334 -12.5 -35.001s-19.833 -13 -34.5 -13
c-29.333 0 -44 15.333 -44 46c0 14 4.16699 25.333 12.5 34s19.833 13 34.5 13c13.333 0 24 -4 32 -12z" />
    <glyph glyph-name="gdotaccent" unicode="&#x121;" horiz-adv-x="487" 
d="M200 606c0 14 4.16699 25.333 12.5 34s19.833 13 34.5 13c13.333 0 24 -4 32 -12s12 -18.667 12 -32c0 -15.333 -4.16699 -27.333 -12.5 -36s-19.833 -13 -34.5 -13c-29.333 0 -44 15.333 -44 46zM393 398l-1.99902 -4.00293c14.667 -23.333 22 -51.666 22 -84.999
c0 -48 -16 -86.5 -48 -115.5s-75.667 -43.5 -131 -43.5c-22 0 -43 2.66699 -63 8c-18.667 -15.333 -28 -28.333 -28 -39c0 -14 8.66699 -23.833 26 -29.5s45.666 -11.5 84.999 -17.5c38 -5.33301 69.5 -11.333 94.5 -18s46.333 -17.5 64 -32.5s26.5 -35.833 26.5 -62.5
c0 -28 -9.5 -53.667 -28.5 -77s-44.833 -41.666 -77.5 -54.999s-68.667 -20 -108 -20c-54 0 -95.833 12.167 -125.5 36.5s-44.5 55.833 -44.5 94.5c16.667 32 46 61 88 87v5c-50 15.333 -75 42 -75 80c14.667 24 35.334 44.333 62.001 61v4
c-44 26.667 -66 69.334 -66 128.001c0 50 16.167 89.167 48.5 117.5s75.5 42.5 129.5 42.5c34.667 0 64.667 -6 90 -18c46 8.66699 94.333 20 145 34l8 -6v-54c-20.667 -6 -51.334 -13 -92.001 -21zM315.001 231.997c18.667 18.667 27.998 44.667 27.998 78
c0 32 -8.66699 56.667 -26 74s-42.666 26 -75.999 26s-59.333 -9 -78 -27s-28 -43.667 -28 -77c0 -32 8.83301 -57 26.5 -75s42.834 -27 75.501 -27c33.333 0 59.333 9.33301 78 28zM350.999 -19.5029c-12 9 -26.834 15.5 -44.501 19.5s-42.167 8.33301 -73.5 13l-31 5
c-51.333 -31.333 -77 -60.666 -77 -87.999c0 -19.333 9.5 -35.333 28.5 -48s45.833 -19 80.5 -19c38.667 0 70.834 7.66699 96.501 23s38.5 34.666 38.5 57.999c0 15.333 -6 27.5 -18 36.5z" />
    <glyph glyph-name="Gcommaaccent" unicode="&#x122;" horiz-adv-x="600" 
d="M539 601l-17 -76l-10 -2c-32 20 -61.5 34.333 -88.5 43s-55.5 13 -85.5 13c-144.667 0 -217 -89.333 -217 -268c0 -86 16.833 -149.167 50.5 -189.5s85.834 -60.5 156.501 -60.5c33.333 0 76.666 8 129.999 24l3 75l-2 91l75 6l-2 -86l4 -140
c-81.333 -25.333 -152 -38 -212 -38c-95.333 0 -166.833 27 -214.5 81s-71.5 132 -71.5 234c0 110 27 193.833 81 251.5s131 86.5 231 86.5c66.667 0 129.667 -15 189 -45zM365 -118c0 -40.667 -29.333 -82.332 -88 -124.999l-26 23v6c34.667 27.333 52 54.666 52 81.999
c0 16 -9.66699 31 -29 45v7c16 10.667 33.333 19 52 25c26 -18 39 -39 39 -63z" />
    <glyph glyph-name="gcommaaccent" unicode="&#x123;" horiz-adv-x="487" 
d="M192 588c0 38 22.668 79.667 68.001 125l29 -20v-6c-26 -28 -39 -54 -39 -78c0 -24.667 12 -42 36 -52v-7c-12.667 -11.333 -27.334 -22 -44.001 -32c-33.333 12.667 -50 36 -50 70zM393.001 398l-1.99902 -4.00293c14.667 -23.333 22 -51.666 22 -84.999
c0 -48 -16 -86.5 -48 -115.5s-75.667 -43.5 -131 -43.5c-22 0 -43 2.66699 -63 8c-18.667 -15.333 -28 -28.333 -28 -39c0 -14 8.66699 -23.833 26 -29.5s45.666 -11.5 84.999 -17.5c38 -5.33301 69.5 -11.333 94.5 -18s46.333 -17.5 64 -32.5s26.5 -35.833 26.5 -62.5
c0 -28 -9.5 -53.667 -28.5 -77s-44.833 -41.666 -77.5 -54.999s-68.667 -20 -108 -20c-54 0 -95.833 12.167 -125.5 36.5s-44.5 55.833 -44.5 94.5c16.667 32 46 61 88 87v5c-50 15.333 -75 42 -75 80c14.667 24 35.334 44.333 62.001 61v4
c-44 26.667 -66 69.334 -66 128.001c0 50 16.167 89.167 48.5 117.5s75.5 42.5 129.5 42.5c34.667 0 64.667 -6 90 -18c46 8.66699 94.333 20 145 34l8 -6v-54c-20.667 -6 -51.334 -13 -92.001 -21zM315.002 231.997c18.667 18.667 27.998 44.667 27.998 78
c0 32 -8.66699 56.667 -26 74s-42.666 26 -75.999 26s-59.333 -9 -78 -27s-28 -43.667 -28 -77c0 -32 8.83301 -57 26.5 -75s42.834 -27 75.501 -27c33.333 0 59.333 9.33301 78 28zM351 -19.5029c-12 9 -26.834 15.5 -44.501 19.5s-42.167 8.33301 -73.5 13l-31 5
c-51.333 -31.333 -77 -60.666 -77 -87.999c0 -19.333 9.5 -35.333 28.5 -48s45.833 -19 80.5 -19c38.667 0 70.834 7.66699 96.501 23s38.5 34.666 38.5 57.999c0 15.333 -6 27.5 -18 36.5z" />
    <glyph glyph-name="Hcircumflex" unicode="&#x124;" horiz-adv-x="683" 
d="M210 767c44.667 30.667 83.332 61 115.999 91h23c30 -26.667 69 -57 117 -91l-16 -34h-9c-37.333 22.667 -71.666 44.667 -102.999 66c-26 -18 -60 -40 -102 -66h-10zM588.998 0h-81l5 193l-1 96l-178 3l-163 -3l-1 -89l4 -200h-81l5 193l-5 448h82l-3 -282l169 -3l170 3
l-3 282h82l-5 -441z" />
    <glyph glyph-name="hcircumflex" unicode="&#x125;" horiz-adv-x="520" 
d="M122 805c-26 -18 -60.002 -40 -102.002 -66h-10l-16 34c44.667 30.667 83.334 61 116.001 91h23c30 -26.667 69 -57 117 -91l-16 -34h-9c-37.333 22.667 -71.666 44.667 -102.999 66zM353.498 374.5c-13.667 15.667 -33.165 23.4971 -58.498 23.4971
c-44.667 0 -89.667 -23.667 -135 -71l-2 -126l5 -201h-79l5 195l-4 500l79 7l-4 -309h6c41.333 36.667 83.666 60.334 126.999 71.001c50 0 88.167 -11.667 114.5 -35s39.166 -56.666 38.499 -99.999l-2 -130l3 -199h-80l6 311
c0.666992 26.667 -5.83301 47.834 -19.5 63.501z" />
    <glyph glyph-name="Hbar" unicode="&#x126;" horiz-adv-x="715" 
d="M600 200l3 -200h-81l6 193l-1 96l-179 3l-163 -3l-1 -89l4 -200h-81l5 193l-3 285h-64l-5 4l4 52h64l-1 107h82l-1 -107h335l-1 107h82l-1 -107h67l5 -6l-4 -50h-68zM187 478l-1 -119l168 -3l172 3l-2 119h-337z" />
    <glyph glyph-name="hbar" unicode="&#x127;" horiz-adv-x="514" 
d="M348.5 374.5c-13.667 15.667 -33.165 23.4971 -58.498 23.4971c-44.667 0 -89.667 -23.667 -135 -71l-2 -126l5 -201h-79l5 195l-3 361h-70l-6 6l4 43h72l-1 90l79 7l-1 -97h124l7 -7l-4 -42h-128l-2 -163h6c41.333 36.667 83.666 60.334 126.999 71.001
c50 0 88.167 -11.667 114.5 -35s39.166 -56.666 38.499 -99.999l-2 -130l3 -199h-80l6 311c0.666992 26.667 -5.83301 47.834 -19.5 63.501z" />
    <glyph glyph-name="Imacron" unicode="&#x12a;" horiz-adv-x="268" 
d="M174 0h-81l5 193l-5 448h82l-5 -441zM243 764h-217l-5 6l4 46h217l5 -5z" />
    <glyph glyph-name="imacron" unicode="&#x12b;" horiz-adv-x="238" 
d="M158 0h-79l6 194l-5 259l79 7l-6 -259zM229 582h-217l-5 6l4 46h217l5 -5z" />
    <glyph glyph-name="Ibreve" unicode="&#x12c;" horiz-adv-x="268" 
d="M174 0h-81l5 193l-5 448h82l-5 -441zM212 747.5c-22 -15.667 -48.668 -23.498 -80.001 -23.498c-30.667 0 -56.667 7.66699 -78 23s-36.666 37.666 -45.999 66.999l22 28h12c14.667 -40.667 45.667 -61 93 -61c44.667 0 75 20.333 91 61h12l23 -28
c-10.667 -28.667 -27 -50.834 -49 -66.501z" />
    <glyph glyph-name="ibreve" unicode="&#x12d;" horiz-adv-x="238" 
d="M158 0h-79l6 194l-5 259l79 7l-6 -259zM119 527c-67.333 0 -108.669 38.333 -124.002 115l22 29h12c12.667 -58 43.334 -87 92.001 -87s79.334 29 92.001 87h12l23 -29c-18 -76.667 -61 -115 -129 -115z" />
    <glyph glyph-name="Iogonek" unicode="&#x12e;" horiz-adv-x="268" 
d="M110 -197c-22 0 -39.833 6.83301 -53.5 20.5s-20.5 32.167 -20.5 55.5c0 16 4 32.833 12 50.5s22.667 41.167 44 70.5h1l5 193l-5 448h82l-5 -441l4 -200h-32c-35.333 -50.667 -53 -87 -53 -109c0 -22.667 10.667 -34 32 -34c14.667 0 29 8 43 24h6l10 -47
c-22 -20.667 -45.333 -31 -70 -31z" />
    <glyph glyph-name="iogonek" unicode="&#x12f;" horiz-adv-x="238" 
d="M75 616c0 14 4.16699 25.333 12.5 34s19.833 13 34.5 13c13.333 0 24 -4 32 -12s12 -18.667 12 -32c0 -15.333 -4.16699 -27.333 -12.5 -36s-19.833 -13 -34.5 -13c-29.333 0 -44 15.333 -44 46zM97 -197c-22 0 -39.833 6.83301 -53.5 20.5s-20.5 32.167 -20.5 55.5
c0 16 4 32.833 12 50.5s22.667 41.167 44 70.5l5 194l-4 259l79 7l-6 -259l5 -201h-29c-35.333 -50.667 -53 -87 -53 -109c0 -22.667 10.667 -34 32 -34c14.667 0 29 8 43 24h6l10 -47c-22 -20.667 -45.333 -31 -70 -31z" />
    <glyph glyph-name="Idotaccent" unicode="&#x130;" horiz-adv-x="268" 
d="M167 833c8 -8 12 -18.667 12 -32c0 -15.333 -4.16699 -27.333 -12.5 -36s-19.833 -13 -34.5 -13c-29.333 0 -44 15.333 -44 46c0 14 4.16699 25.333 12.5 34s19.833 13 34.5 13c13.333 0 24 -4 32 -12zM174 0h-81l5 193l-5 448h82l-5 -441z" />
    <glyph glyph-name="dotlessi" unicode="&#x131;" horiz-adv-x="238" 
d="M158 0h-79l6 194l-5 259l79 7l-6 -259z" />
    <glyph glyph-name="IJ" unicode="&#x132;" horiz-adv-x="578" 
d="M174 0h-81l5 193l-5 448h82l-5 -441zM483 118c0 -50.667 -12.667 -92.5 -38 -125.5s-69.333 -64.5 -132 -94.5l-31 45v10c46 24.667 78.667 49 98 73s29 54.333 29 91v87l-4 372l-123 -1l-8 7l5 59h206l-4 -429z" />
    <glyph glyph-name="ij" unicode="&#x133;" horiz-adv-x="503" 
d="M154 651c8 -8 12 -18.667 12 -32c0 -15.333 -4.16699 -27.333 -12.5 -36s-19.833 -13 -34.5 -13c-29.333 0 -44 15.333 -44 46c0 14 4.16699 25.333 12.5 34s19.833 13 34.5 13c13.333 0 24 -4 32 -12zM397 651c8 -8 12 -18.667 12 -32
c0 -15.333 -4.16699 -27.333 -12.5 -36s-19.833 -13 -34.5 -13c-29.333 0 -44 15.333 -44 46c0 14 4.16699 25.333 12.5 34s19.833 13 34.5 13c13.333 0 24 -4 32 -12zM158 0h-79l5 194l-4 259l79 7l-6 -259zM413 201l5 -181.999c0 -52 -10.5 -93.833 -31.5 -125.5
s-56.833 -60.834 -107.5 -87.501l-30 36v9c35.333 20.667 59.833 43 73.5 67s20.5 56.333 20.5 97l2 179l-4 210h-92l-6 7l5 46h94l75 3l3 -2z" />
    <glyph glyph-name="Jcircumflex" unicode="&#x134;" horiz-adv-x="310" 
d="M215 118c0 -50.667 -12.667 -92.5 -38 -125.5s-69.333 -64.5 -132 -94.5l-31 45v10c46 24.667 78.667 49 98 73s29 54.333 29 91v87l-4 372l-123 -1l-8 7l5 59h206l-4 -429zM121 858h22.998c30 -26.667 69 -57 117 -91l-16 -34h-9
c-37.333 22.667 -71.666 44.667 -102.999 66c-26 -18 -60 -40 -102 -66h-10l-16 34c44.667 30.667 83.334 61 116.001 91z" />
    <glyph glyph-name="jcircumflex" unicode="&#x135;" horiz-adv-x="265" 
d="M115 689l24 -0.000976562c41.333 -51.333 81.666 -96 120.999 -134l-22 -32h-9c-41.333 39.333 -75.333 74 -102 104c-25.333 -28 -59.333 -62.667 -102 -104h-10l-22 32c38.667 38.667 79.334 83.334 122.001 134.001zM175 200.999l4.00098 -182
c0 -52 -10.333 -93.833 -31 -125.5s-56.334 -60.834 -107.001 -87.501l-30 36v9c35.333 21.333 59.833 43.833 73.5 67.5s20.5 55.834 20.5 96.501l2 179l-4 210h-92l-6 7l5 46h94l74 3l3 -2z" />
    <glyph glyph-name="Kcommaaccent" unicode="&#x136;" horiz-adv-x="546" 
d="M173 0h-81l5 193l-5 448h82l-5 -441zM547 17l-1.00098 -9.99902c-22.667 -6.66699 -48 -12 -76 -16l-10 5c-114 130.667 -206 243.667 -276 339v6l214 244l40 56h91l-260 -301c88.667 -114.667 181.334 -222.334 278.001 -323.001zM344.999 -117.999
c0 -40.667 -29.333 -82.332 -88 -124.999l-26 23v6c34.667 27.333 52 54.666 52 81.999c0 16 -9.66699 31 -29 45v7c16 10.667 33.333 19 52 25c26 -18 39 -39 39 -63z" />
    <glyph glyph-name="kcommaaccent" unicode="&#x137;" horiz-adv-x="456" 
d="M163 0h-79l5 195l-4 500l79 7l-6 -501zM448 14l0.000976562 -9c-10.667 -3.33301 -34.334 -8 -71.001 -14l-10 4c-70.667 83.333 -134 165.333 -190 246v7l143 169l27 41h89l-180 -210c46 -62 110 -140 192 -234zM310.001 -118c0 -40.667 -29.333 -82.332 -88 -124.999
l-26 23v6c34.667 27.333 52 54.666 52 81.999c0 16 -9.66699 31 -29 45v7c16 10.667 33.333 19 52 25c26 -18 39 -39 39 -63z" />
    <glyph glyph-name="kgreenlandic" unicode="&#x138;" horiz-adv-x="456" 
d="M158 0h-79l5 194l-4 259l79 7l-6 -259zM447 14l0.000976562 -9c-10.667 -3.33301 -34.334 -8 -71.001 -14l-10 4c-70.667 83.333 -134 165.333 -190 246v7l143 169l27 41h89l-180 -210c46 -62 110 -140 192 -234z" />
    <glyph glyph-name="Lacute" unicode="&#x139;" horiz-adv-x="416" 
d="M406 0h-316l5 193l-5 448h82l-5 -441l3 -133h237l6 -7zM342 814l-2 -8l-195 -86l-10 4l-14 36c68.667 34 132.667 68.333 192 103l9 -2z" />
    <glyph glyph-name="lacute" unicode="&#x13a;" horiz-adv-x="247" 
d="M163 0h-79l6 195l-5 500l79 7l-6 -501zM261 854l-2 -8l-195 -86l-10 4l-14 36c68.667 34 132.667 68.333 192 103l9 -2z" />
    <glyph glyph-name="Lcommaaccent" unicode="&#x13b;" horiz-adv-x="416" 
d="M406 0h-316l5 193l-5 448h82l-5 -441l3 -133h237l6 -7zM293 -118c0 -40.667 -29.333 -82.332 -88 -124.999l-26 23v6c34.667 27.333 52 54.666 52 81.999c0 16 -9.66699 31 -29 45v7c16 10.667 33.333 19 52 25c26 -18 39 -39 39 -63z" />
    <glyph glyph-name="lcommaaccent" unicode="&#x13c;" horiz-adv-x="247" 
d="M163 0h-79l5 195l-4 500l79 7l-6 -501zM181 -118c0 -40.667 -29.333 -82.332 -88 -124.999l-26 23v6c34.667 27.333 52 54.666 52 81.999c0 16 -9.66699 31 -29 45v7c16 10.667 33.333 19 52 25c26 -18 39 -39 39 -63z" />
    <glyph glyph-name="Lcaron" unicode="&#x13d;" horiz-adv-x="424" 
d="M406 0h-316l5 193l-5 448h82l-5 -441l3 -133h237l6 -7zM312 404l5 175l57 4l6 -7l-23 -172l-38 -6z" />
    <glyph glyph-name="lcaron" unicode="&#x13e;" horiz-adv-x="257" 
d="M163 0h-79l5 195l-4 500l79 7l-6 -501zM267 470l-38 -6l-6 6l5 175l57 4l5 -7z" />
    <glyph glyph-name="Ldot" unicode="&#x13f;" horiz-adv-x="416" 
d="M406 0h-316l5 193l-5 448h82l-5 -441l3 -133h237l6 -7zM371 413c8 -8 12 -18.999 12 -32.999c0 -14.667 -4.16699 -26.334 -12.5 -35.001s-19.833 -13 -34.5 -13c-29.333 0 -44 15.333 -44 46c0 14 4.16699 25.333 12.5 34s19.833 13 34.5 13c13.333 0 24 -4 32 -12z" />
    <glyph glyph-name="ldot" unicode="&#x140;" horiz-adv-x="308" 
d="M163 0h-79l5 195l-4 500l79 7l-6 -501zM300 314c8 -8 12 -18.667 12 -32c0 -15.333 -4.16699 -27.333 -12.5 -36s-19.833 -13 -34.5 -13c-29.333 0 -44 15.333 -44 46c0 14 4.16699 25.333 12.5 34s19.833 13 34.5 13c13.333 0 24 -4 32 -12z" />
    <glyph glyph-name="Lslash" unicode="&#x141;" horiz-adv-x="429" 
d="M420 0h-316l5 193l-1 96l-73 -39l-10 5l-15 48l97 51l-3 287h81l-2 -247l130 68l9 -4l15 -47l-155 -83l-1 -128l3 -133h237l6 -7z" />
    <glyph glyph-name="lslash" unicode="&#x142;" horiz-adv-x="260" 
d="M170 0h-80l6 195l-1 134l-65 -34l-5 3l-17 52l86 44l-3 301l80 7l-4 -271l64 33l5 -2l16 -52l-86 -46l-2 -163z" />
    <glyph glyph-name="Nacute" unicode="&#x143;" horiz-adv-x="683" 
d="M587 0h-84l-331 513h-6l-1 -302l3 -211h-75l5 190l-3 451h84l330 -513h7l-1 509l76 6l-6 -455zM477 814l-2 -8l-195 -86l-10 4l-14 36c68.667 34 132.667 68.333 192 103l9 -2z" />
    <glyph glyph-name="nacute" unicode="&#x144;" horiz-adv-x="515" 
d="M349 375c-13.333 15.333 -33 22.999 -59 22.999c-44 0 -89 -23.667 -135 -71l-1 -126l4 -201h-79l5 194l-4 259l76 7l-1 -67h6c41.333 36.667 83.666 60.334 126.999 71.001c50.667 0 89 -11.667 115 -35s38.667 -56.666 38 -99.999l-2 -130l4 -199h-80l5 311
c0.666992 27.333 -5.66602 48.666 -18.999 63.999zM401 653.999l-2 -8c-66 -51.333 -122.667 -93.666 -170 -126.999l-9 1l-22 32c65.333 53.333 120 101.666 164 144.999l9 -1z" />
    <glyph glyph-name="Ncommaaccent" unicode="&#x145;" horiz-adv-x="683" 
d="M587 0h-84l-330 513h-7l-1 -302l4 -211h-76l5 190l-3 451h84l331 -513h6l-1 509l76 6l-6 -455zM396 -118c0 -40.667 -29.333 -82.332 -88 -124.999l-26 23v6c34.667 27.333 52 54.666 52 81.999c0 16 -9.66699 31 -29 45v7c16 10.667 33.333 19 52 25
c26 -18 39 -39 39 -63z" />
    <glyph glyph-name="ncommaaccent" unicode="&#x146;" horiz-adv-x="515" 
d="M348.5 374.5c-13.667 15.667 -33.165 23.4971 -58.498 23.4971c-44.667 0 -90 -23.667 -136 -71v-126l4 -201h-79l5 194l-4 259l75 7v-67h6c41.333 36.667 83.666 60.334 126.999 71.001c50 0 88.167 -11.667 114.5 -35s39.166 -56.666 38.499 -99.999l-2 -130l4 -199
h-81l6 311c0.666992 26.667 -5.83301 47.834 -19.5 63.501zM317.002 -118.003c0 -40.667 -29.333 -82.332 -88 -124.999l-26 23v6c34.667 27.333 52 54.666 52 81.999c0 16 -9.66699 31 -29 45v7c16 10.667 33.333 19 52 25c26 -18 39 -39 39 -63z" />
    <glyph glyph-name="Ncaron" unicode="&#x147;" horiz-adv-x="683" 
d="M587 0h-84l-331 513h-6l-1 -302l3 -211h-75l5 190l-3 451h84l330 -513h7l-1 509l76 6l-6 -455zM352 723h-22.998c-30 26.667 -69 57 -117 91l16 34h9c37.333 -22.667 71.666 -44.667 102.999 -66c26 18 60 40 102 66h10l16 -34c-44.667 -30.667 -83.334 -61 -116.001 -91
z" />
    <glyph glyph-name="ncaron" unicode="&#x148;" horiz-adv-x="515" 
d="M349 375c-13.333 15.333 -33 22.999 -59 22.999c-44 0 -89 -23.667 -135 -71l-1 -126l4 -201h-79l5 194l-4 259l76 7l-1 -67h6c41.333 36.667 83.666 60.334 126.999 71.001c50.667 0 89 -11.667 115 -35s38.667 -56.666 38 -99.999l-2 -130l4 -199h-80l5 311
c0.666992 27.333 -5.66602 48.666 -18.999 63.999zM284 521.999h-24.001c-41.333 51.333 -81.666 96 -120.999 134l22 32h9c41.333 -39.333 75.333 -74 102 -104c25.333 28 59.333 62.667 102 104h10l22 -32c-38 -38 -78.667 -82.667 -122 -134z" />
    <glyph glyph-name="Eng" unicode="&#x14a;" horiz-adv-x="683" 
d="M586 56c0 -49.333 -12.667 -90.333 -38 -123s-69.333 -63.667 -132 -93l-31 44v10c33.333 18 59.333 35.333 78 52s32 35 40 55l-331 512h-6l-1 -302l3 -211h-75l5 190l-3 451h84l330 -512h7l-1 508l76 6l-6 -455z" />
    <glyph glyph-name="eng" unicode="&#x14b;" horiz-adv-x="527" 
d="M413 -106.5c-20.667 -31.667 -56.332 -60.834 -106.999 -87.501l-31 36v9c35.333 20.667 59.833 43 73.5 67s20.5 56.333 20.5 97l-1 296c0 27.333 -6.5 48.666 -19.5 63.999s-32.5 23 -58.5 23c-44 0 -89 -23.667 -135 -71l-1 -126l4 -201h-79l5 194l-4 259l76 7l-1 -67
h6c41.333 36.667 83.666 60.334 126.999 71.001c50.667 0 89 -11.667 115 -35s38.667 -56.666 38 -99.999l-2 -129l5 -181c0 -52 -10.333 -93.833 -31 -125.5z" />
    <glyph glyph-name="Omacron" unicode="&#x14c;" horiz-adv-x="635" 
d="M527.5 566c47 -54 70.499 -131.667 70.499 -233c0 -108.667 -25 -192.667 -75 -252s-121 -89 -213 -89c-86.667 0 -153.667 28 -201 84s-71 135.667 -71 239c0 106.667 24.833 188.667 74.5 246s120.834 86 213.501 86c87.333 0 154.5 -27 201.5 -81zM119.999 325
c0 -177.333 65 -266 195 -266c133.333 0 200 86.667 200 260c0 88.667 -16.167 154.5 -48.5 197.5s-81.5 64.5 -147.5 64.5c-132.667 0 -199 -85.333 -199 -256zM460.999 764h-283l-6 6l5 46h283l6 -5z" />
    <glyph glyph-name="omacron" unicode="&#x14d;" horiz-adv-x="491" 
d="M395.5 405.5c34.333 -40.333 51.5 -97.166 51.5 -170.499c0 -77.333 -18 -137.166 -54 -179.499s-87.333 -63.5 -154 -63.5c-62.667 0 -111.167 20.167 -145.5 60.5s-51.5 97.166 -51.5 170.499c0 77.333 18.167 137.166 54.5 179.499s87.833 63.5 154.5 63.5
c62 0 110.167 -20.167 144.5 -60.5zM150 367c-22 -28.667 -33 -70.667 -33 -126c0 -128 42.333 -192 127 -192c86 0 129 56 129 168c0 63.333 -10.833 111.333 -32.5 144s-53.167 49 -94.5 49c-42 0 -74 -14.333 -96 -43zM388 582h-283l-6 6l5 46h283l6 -5z" />
    <glyph glyph-name="Obreve" unicode="&#x14e;" horiz-adv-x="635" 
d="M527.5 566c47 -54 70.499 -131.667 70.499 -233c0 -108.667 -25 -192.667 -75 -252s-121 -89 -213 -89c-86.667 0 -153.667 28 -201 84s-71 135.667 -71 239c0 106.667 24.833 188.667 74.5 246s120.834 86 213.501 86c87.333 0 154.5 -27 201.5 -81zM119.999 325
c0 -177.333 65 -266 195 -266c133.333 0 200 86.667 200 260c0 88.667 -16.167 154.5 -48.5 197.5s-81.5 64.5 -147.5 64.5c-132.667 0 -199 -85.333 -199 -256zM396.999 747.5c-22 -15.667 -48.668 -23.498 -80.001 -23.498c-30.667 0 -56.667 7.66699 -78 23
s-36.666 37.666 -45.999 66.999l22 28h12c14.667 -40.667 45.667 -61 93 -61c44.667 0 75 20.333 91 61h12l23 -28c-10.667 -28.667 -27 -50.834 -49 -66.501z" />
    <glyph glyph-name="obreve" unicode="&#x14f;" horiz-adv-x="491" 
d="M395.5 405.5c34.333 -40.333 51.5 -97.166 51.5 -170.499c0 -77.333 -18 -137.166 -54 -179.499s-87.333 -63.5 -154 -63.5c-62.667 0 -111.167 20.167 -145.5 60.5s-51.5 97.166 -51.5 170.499c0 77.333 18.167 137.166 54.5 179.499s87.833 63.5 154.5 63.5
c62 0 110.167 -20.167 144.5 -60.5zM150 367c-22 -28.667 -33 -70.667 -33 -126c0 -128 42.333 -192 127 -192c86 0 129 56 129 168c0 63.333 -10.833 111.333 -32.5 144s-53.167 49 -94.5 49c-42 0 -74 -14.333 -96 -43zM245 527c-67.333 0 -108.669 38.333 -124.002 115
l22 29h12c12.667 -58 43.334 -87 92.001 -87s79.334 29 92.001 87h12l23 -29c-18 -76.667 -61 -115 -129 -115z" />
    <glyph glyph-name="Ohungarumlaut" unicode="&#x150;" horiz-adv-x="635" 
d="M527.5 566c47 -54 70.499 -131.667 70.499 -233c0 -108.667 -25 -192.667 -75 -252s-121 -89 -213 -89c-86.667 0 -153.667 28 -201 84s-71 135.667 -71 239c0 106.667 24.833 188.667 74.5 246s120.834 86 213.501 86c87.333 0 154.5 -27 201.5 -81zM119.999 325
c0 -177.333 65 -266 195 -266c133.333 0 200 86.667 200 260c0 88.667 -16.167 154.5 -48.5 197.5s-81.5 64.5 -147.5 64.5c-132.667 0 -199 -85.333 -199 -256zM213.999 761c47.333 52 77.667 86 91 102h8l36 -25v-9c-24 -24 -63.333 -60.667 -118 -110l-9 -1l-26 24z
M448 863h7l37 -25v-9l-86 -81l-32 -29l-9 -1l-26 24z" />
    <glyph glyph-name="ohungarumlaut" unicode="&#x151;" horiz-adv-x="491" 
d="M395.5 405.5c34.333 -40.333 51.5 -97.166 51.5 -170.499c0 -77.333 -18 -137.166 -54 -179.499s-87.333 -63.5 -154 -63.5c-62.667 0 -111.167 20.167 -145.5 60.5s-51.5 97.166 -51.5 170.499c0 77.333 18.167 137.166 54.5 179.499s87.833 63.5 154.5 63.5
c62 0 110.167 -20.167 144.5 -60.5zM150 367c-22 -28.667 -33 -70.667 -33 -126c0 -128 42.333 -192 127 -192c86 0 129 56 129 168c0 63.333 -10.833 111.333 -32.5 144s-53.167 49 -94.5 49c-42 0 -74 -14.333 -96 -43zM257 697l7 1.00098l37 -27v-8
c-42 -44 -90 -91.667 -144 -143l-9 -1l-26 24c31.333 33.333 76.333 84.666 135 153.999zM398 697.001l8 1l37 -27l-1 -8c-42 -44 -90 -91.667 -144 -143l-8 -1l-27 24c36.667 38.667 81.667 90 135 154z" />
    <glyph glyph-name="OE" unicode="&#x152;" horiz-adv-x="851" 
d="M444 647c36 -4 62.667 -6 80 -6h298l5 -8l-6 -62l-144 3h-135l-1 -212l114 -2l113 3l5 -7l-7 -62l-117 2l-110 -1v-100l1 -128l125 -1l157 4l6 -8l-7 -62h-297c-14.667 0.666992 -46 -1.33301 -94 -6c-40 -4 -70 -6 -90 -6c-96 0 -170.333 28.667 -223 86
s-79 138 -79 242c0 106.667 27.667 189.5 83 248.5s133.333 88.5 234 88.5c22 0 51.667 -2 89 -6zM178 519c-38.667 -44.667 -58 -110.667 -58 -198c0 -178 76 -267 228 -267c38 0 69.333 3.33301 94 10c16.667 5.33301 25 17 25 35l-4 437c0 22 -4.66699 34.333 -14 37
c-7.33301 3.33301 -20.833 6.33301 -40.5 9s-39.5 4 -59.5 4c-75.333 0 -132.333 -22.333 -171 -67z" />
    <glyph glyph-name="oe" unicode="&#x153;" horiz-adv-x="775" 
d="M696 419.5c28 -30.333 41.999 -72.501 41.999 -126.501c0 -18.667 -1 -34 -3 -46l-16 -13l-284 -1v-3c0 -55.333 11.833 -98.166 35.5 -128.499s59.167 -45.5 106.5 -45.5c46 0 90.667 15 134 45l8 -5l-8 -67c-47.333 -24.667 -93.666 -37 -138.999 -37
c-78.667 0 -135.334 32.333 -170.001 97c-32.667 -64.667 -89.334 -97 -170.001 -97c-62 0 -110 20.167 -144 60.5s-51 97.5 -51 171.5c0 76 18.167 135.167 54.5 177.5s86.5 63.5 150.5 63.5c78.667 0 133.334 -31.667 164.001 -95c36.667 63.333 94.334 95 173.001 95
c50 0 89 -15.167 117 -45.5zM371.999 216.999c0 63.333 -10.833 111.333 -32.5 144s-53.167 49 -94.5 49c-42 0 -74 -14.333 -96 -43s-33 -70.667 -33 -126c0 -128 42.333 -192 127 -192c86 0 129 56 129 168zM640.999 382.499c-16.667 17.667 -39.667 26.498 -69 26.498
c-34.667 0 -63.5 -10.667 -86.5 -32s-38.167 -51.666 -45.5 -90.999l224 6l2 12c0 34.667 -8.33301 60.834 -25 78.501z" />
    <glyph glyph-name="Racute" unicode="&#x154;" horiz-adv-x="555" 
d="M520 19l-1 -9.99902c-24 -9.33301 -48.667 -15.333 -74 -18l-11 7c-54.667 82 -103.667 162 -147 240h-117v-38l4 -200h-81l5 193l-5 448l196 1c62.667 0 111.167 -15.833 145.5 -47.5s51.5 -76.834 51.5 -135.501c0 -44 -11.5 -83.5 -34.5 -118.5
s-55.5 -62.167 -97.5 -81.5c44 -72.667 99.333 -152.667 166 -240zM291 303.001c74.667 21.333 112 71.001 112 149.001c0 79.333 -44 120.666 -132 123.999l-97 -3l-3 -267zM407 836.002l-2 -8c-66 -51.333 -122.667 -93.666 -170 -126.999l-9 1l-22 32
c65.333 53.333 120 101.666 164 144.999l9 -1z" />
    <glyph glyph-name="racute" unicode="&#x155;" horiz-adv-x="323" 
d="M315 457v-77l-9 -3c-11.333 3.33301 -23.333 5 -36 5c-43.333 0 -82 -37 -116 -111l-1 -70l5 -201h-79l6 194l-5 259l76 7l-1 -94h6c35.333 62 78 93 128 93c8 0 16.667 -0.666992 26 -2zM324 654l-2 -8c-66 -51.333 -122.667 -93.666 -170 -126.999l-9 1l-22 32
c65.333 53.333 120 101.666 164 144.999l9 -1z" />
    <glyph glyph-name="Rcommaaccent" unicode="&#x156;" horiz-adv-x="555" 
d="M520 19l-0.999023 -9.99902c-24 -9.33301 -48.667 -15.333 -74 -18l-11 7c-54.667 82 -103.667 162 -147 240h-117v-38l4 -200h-81l5 193l-5 448l197 1c62.667 0 111 -15.833 145 -47.5s51 -76.834 51 -135.501c0 -44.667 -11.5 -84.5 -34.5 -119.5
s-55.5 -62.167 -97.5 -81.5c53.333 -85.333 108.666 -165 165.999 -239zM292.001 303.001c74 21.333 111 71.001 111 149.001c0 79.333 -44 120.666 -132 123.999l-97 -3l-3 -267zM336.001 -117.998c0 -40.667 -29.333 -82.332 -88 -124.999l-26 23v6
c34.667 27.333 52 54.666 52 81.999c0 16 -9.66699 31 -29 45v7c16 10.667 33.333 19 52 25c26 -18 39 -39 39 -63z" />
    <glyph glyph-name="rcommaaccent" unicode="&#x157;" horiz-adv-x="323" 
d="M315 457v-77l-9 -3c-12 3.33301 -24.333 5 -37 5c-42.667 0 -81 -37 -115 -111l-1 -70l5 -201h-79l5 194l-4 259l75 7l-1 -94h6c35.333 62 78.333 93 129 93c8 0 16.667 -0.666992 26 -2zM177 -118c0 -40.667 -29.333 -82.332 -88 -124.999l-26 23v6
c34.667 27.333 52 54.666 52 81.999c0 16 -9.66699 31 -29 45v7c16 10.667 33.333 19 52 25c26 -18 39 -39 39 -63z" />
    <glyph glyph-name="Rcaron" unicode="&#x158;" horiz-adv-x="555" 
d="M520 19l-1 -9.99902c-24 -9.33301 -48.667 -15.333 -74 -18l-11 7c-54.667 82 -103.667 162 -147 240h-117v-38l4 -200h-81l5 193l-5 448l196 1c62.667 0 111.167 -15.833 145.5 -47.5s51.5 -76.834 51.5 -135.501c0 -44 -11.5 -83.5 -34.5 -118.5
s-55.5 -62.167 -97.5 -81.5c44 -72.667 99.333 -152.667 166 -240zM291 303.001c74.667 21.333 112 71.001 112 149.001c0 79.333 -44 120.666 -132 123.999l-97 -3l-3 -267zM290 704.002h-24.001c-41.333 51.333 -81.666 96 -120.999 134l22 32h9
c41.333 -39.333 75.333 -74 102 -104c25.333 28 59.333 62.667 102 104h10l22 -32c-38 -38 -78.667 -82.667 -122 -134z" />
    <glyph glyph-name="rcaron" unicode="&#x159;" horiz-adv-x="323" 
d="M315 457v-77l-9 -3c-11.333 3.33301 -23.333 5 -36 5c-43.333 0 -82 -37 -116 -111l-1 -70l5 -201h-79l6 194l-5 259l76 7l-1 -94h6c35.333 62 78 93 128 93c8 0 16.667 -0.666992 26 -2zM206 522h-24.001c-41.333 51.333 -81.666 96 -120.999 134l22 32h9
c41.333 -39.333 75.333 -74 102 -104c25.333 28 59.333 62.667 102 104h10l22 -32c-38 -38 -78.667 -82.667 -122 -134z" />
    <glyph glyph-name="Sacute" unicode="&#x15a;" horiz-adv-x="472" 
d="M410 616l-13.0059 -77.002l-14 -4c-40 30.667 -82 46 -126 46c-24.667 0 -46.167 -5 -64.5 -15s-32.333 -23 -42 -39s-14.5 -32.667 -14.5 -50c0 -18 5.5 -33.833 16.5 -47.5s24.833 -25.5 41.5 -35.5s39.334 -22 68.001 -36c36 -16.667 65 -32.167 87 -46.5
s40.833 -32.5 56.5 -54.5s23.5 -48.667 23.5 -80c0 -33.333 -9 -64 -27 -92s-43.333 -50.333 -76 -67s-70 -25 -112 -25c-61.333 0 -118.666 15 -171.999 45l10 82l11 5c23.333 -22.667 49.166 -39.5 77.499 -50.5s55.5 -16.5 81.5 -16.5c25.333 0 47.833 5 67.5 15
s34.667 23.333 45 40s15.5 34.334 15.5 53.001c0 28 -10.667 50.5 -32 67.5s-53.666 35.5 -96.999 55.5c-35.333 17.333 -63.666 32.833 -84.999 46.5s-39.666 31.334 -54.999 53.001s-23 48.167 -23 79.5c0 32.667 8.83301 62.667 26.5 90s42.334 48.833 74.001 64.5
s67.834 23.5 108.501 23.5c46 0 93.667 -10 143 -30zM376.994 835.998l-2 -8c-66 -51.333 -122.667 -93.666 -170 -126.999l-9 1l-22 32c65.333 53.333 120 101.666 164 144.999l9 -1z" />
    <glyph glyph-name="sacute" unicode="&#x15b;" horiz-adv-x="370" 
d="M315 443l-11 -65.0039l-12 -3c-33.333 22 -65.333 33 -96 33c-22.667 0 -41 -6.33301 -55 -19s-21 -28 -21 -46s7.16699 -32.5 21.5 -43.5s36.5 -23.5 66.5 -37.5c26 -12 46.833 -22.833 62.5 -32.5s29.167 -22.5 40.5 -38.5s17 -35.667 17 -59
c0 -24.667 -6.33301 -47.667 -19 -69s-31.334 -38.5 -56.001 -51.5s-54 -19.5 -88 -19.5c-46.667 0 -91 11 -133 33l10 68l9 6c18.667 -16 38.834 -28.333 60.501 -37s42.167 -13 61.5 -13c24.667 0 44.667 6.83301 60 20.5s23 29.834 23 48.501
c0 18 -7.16699 32.5 -21.5 43.5s-36.5 23.5 -66.5 37.5c-26 12 -47 22.833 -63 32.5s-29.667 22.834 -41 39.501s-17 37.334 -17 62.001c0 38.667 14.167 70.334 42.5 95.001s66.833 37 115.5 37c38 0 74.667 -7.33301 110 -22zM313 653.996l-2 -8
c-66 -51.333 -122.667 -93.666 -170 -126.999l-9 1l-22 32c65.333 53.333 120 101.666 164 144.999l9 -1z" />
    <glyph glyph-name="Scircumflex" unicode="&#x15c;" horiz-adv-x="472" 
d="M236 871h24c41.333 -51.333 81.666 -96 120.999 -134l-22 -32h-9c-41.333 39.333 -75.333 74 -102 104c-25.333 -28 -59.333 -62.667 -102 -104h-10l-22 32c38.667 38 79.334 82.667 122.001 134zM410 616l-13.0059 -77.002l-14 -4c-40 30.667 -82 46 -126 46
c-24.667 0 -46.167 -5 -64.5 -15s-32.333 -23 -42 -39s-14.5 -32.667 -14.5 -50c0 -18 5.5 -33.833 16.5 -47.5s24.833 -25.5 41.5 -35.5s39.334 -22 68.001 -36c36 -16.667 65 -32.167 87 -46.5s40.833 -32.5 56.5 -54.5s23.5 -48.667 23.5 -80c0 -33.333 -9 -64 -27 -92
s-43.333 -50.333 -76 -67s-70 -25 -112 -25c-61.333 0 -118.666 15 -171.999 45l10 82l11 5c23.333 -22.667 49.166 -39.5 77.499 -50.5s55.5 -16.5 81.5 -16.5c25.333 0 47.833 5 67.5 15s34.667 23.333 45 40s15.5 34.334 15.5 53.001c0 28 -10.667 50.5 -32 67.5
s-53.666 35.5 -96.999 55.5c-35.333 17.333 -63.666 32.833 -84.999 46.5s-39.666 31.334 -54.999 53.001s-23 48.167 -23 79.5c0 32.667 8.83301 62.667 26.5 90s42.334 48.833 74.001 64.5s67.834 23.5 108.501 23.5c46 0 93.667 -10 143 -30z" />
    <glyph glyph-name="scircumflex" unicode="&#x15d;" horiz-adv-x="370" 
d="M173 689l24 -0.000976562c41.333 -51.333 81.666 -96 120.999 -134l-22 -32h-9c-41.333 39.333 -75.333 74 -102 104c-25.333 -28 -59.333 -62.667 -102 -104h-10l-22 32c38.667 38.667 79.334 83.334 122.001 134.001zM315 442.999l-10.998 -65.0029l-12 -3
c-34 22 -66.333 33 -97 33c-22.667 0 -40.834 -6.33301 -54.501 -19s-20.5 -28 -20.5 -46s7.16699 -32.5 21.5 -43.5s36.5 -23.5 66.5 -37.5c26 -12 46.833 -22.833 62.5 -32.5s29.167 -22.5 40.5 -38.5s17 -35.667 17 -59c0 -24.667 -6.33301 -47.667 -19 -69
s-31.334 -38.5 -56.001 -51.5s-54 -19.5 -88 -19.5c-46.667 0 -91 11 -133 33l9 68l10 6c18 -16 37.833 -28.333 59.5 -37s42.167 -13 61.5 -13c25.333 0 45.5 6.83301 60.5 20.5s22.5 29.834 22.5 48.501c0 18 -7 32.667 -21 44s-36 23.666 -66 36.999
c-26 12 -47 22.833 -63 32.5s-29.667 22.834 -41 39.501s-17 37.334 -17 62.001c0 38.667 14.167 70.334 42.5 95.001s66.833 37 115.5 37c38 0 74.667 -7.33301 110 -22z" />
    <glyph glyph-name="Scedilla" unicode="&#x15e;" horiz-adv-x="472" 
d="M380.5 58c-32.333 -34 -74.8379 -54.6699 -127.505 -62.0029l-14 -47l34 -20c25.333 -14.667 38 -33.334 38 -56.001c0 -19.333 -7.5 -35.166 -22.5 -47.499s-34.5 -18.5 -58.5 -18.5c-28.667 0 -52.667 10.333 -72 31l7 40l5 1c18.667 -20.667 37.667 -31 57 -31
c9.33301 0 16.833 2.33301 22.5 7s8.5 11.334 8.5 20.001s-7 17 -21 25l-48 29l18 64c-59.333 1.33301 -114.333 16.333 -165 45l10 82l11 5c23.333 -22.667 49.166 -39.5 77.499 -50.5s55.5 -16.5 81.5 -16.5c25.333 0 47.833 5 67.5 15s34.667 23.333 45 40
s15.5 34.334 15.5 53.001c0 28 -10.667 50.5 -32 67.5s-53.666 35.5 -96.999 55.5c-35.333 17.333 -63.666 32.833 -84.999 46.5s-39.666 31.334 -54.999 53.001s-23 48.167 -23 79.5c0 32.667 8.83301 62.667 26.5 90s42.334 48.833 74.001 64.5s67.834 23.5 108.501 23.5
c46 0 93.667 -10 143 -30l-13 -77l-14 -4c-40 30.667 -82 46 -126 46c-24.667 0 -46.167 -5 -64.5 -15s-32.333 -23 -42 -39s-14.5 -32.667 -14.5 -50c0 -18 5.5 -33.833 16.5 -47.5s24.833 -25.5 41.5 -35.5s39.334 -22 68.001 -36c36 -16.667 65 -32.167 87 -46.5
s40.833 -32.5 56.5 -54.5s23.5 -48.667 23.5 -80c0 -45.333 -16.167 -85 -48.5 -119z" />
    <glyph glyph-name="scedilla" unicode="&#x15f;" horiz-adv-x="370" 
d="M293.5 42c-23 -26 -54.832 -42.0039 -95.499 -48.0039l-14 -45l34 -20c25.333 -14.667 38 -33.334 38 -56.001c0 -19.333 -7.5 -35.166 -22.5 -47.499s-34.5 -18.5 -58.5 -18.5c-28.667 0 -52.667 10.333 -72 31l7 40l5 1c18.667 -20.667 37.667 -31 57 -31
c9.33301 0 16.833 2.33301 22.5 7s8.5 11.334 8.5 20.001s-7 17 -21 25l-48 29l18 63c-42 2 -82 13 -120 33l9 68l10 6c18 -16 37.833 -28.333 59.5 -37s42.167 -13 61.5 -13c25.333 0 45.5 6.83301 60.5 20.5s22.5 29.834 22.5 48.501c0 18 -7 32.667 -21 44
s-36 23.666 -66 36.999c-26 12 -47 22.833 -63 32.5s-29.667 22.834 -41 39.501s-17 37.334 -17 62.001c0 38.667 14.167 70.334 42.5 95.001s66.833 37 115.5 37c38 0 74.667 -7.33301 110 -22l-11 -65l-12 -3c-34 22 -66.333 33 -97 33
c-22.667 0 -40.834 -6.33301 -54.501 -19s-20.5 -28 -20.5 -46s7.16699 -32.5 21.5 -43.5s36.5 -23.5 66.5 -37.5c26 -12 46.833 -22.833 62.5 -32.5s29.167 -22.5 40.5 -38.5s17 -35.667 17 -59c0 -34 -11.5 -64 -34.5 -90z" />
    <glyph glyph-name="Scaron" unicode="&#x160;" horiz-adv-x="472" 
d="M410 616l-13.0059 -77.002l-14 -4c-40 30.667 -82 46 -126 46c-24.667 0 -46.167 -5 -64.5 -15s-32.333 -23 -42 -39s-14.5 -32.667 -14.5 -50c0 -18 5.5 -33.833 16.5 -47.5s24.833 -25.5 41.5 -35.5s39.334 -22 68.001 -36c36 -16.667 65 -32.167 87 -46.5
s40.833 -32.5 56.5 -54.5s23.5 -48.667 23.5 -80c0 -33.333 -9 -64 -27 -92s-43.333 -50.333 -76 -67s-70 -25 -112 -25c-61.333 0 -118.666 15 -171.999 45l10 82l11 5c23.333 -22.667 49.166 -39.5 77.499 -50.5s55.5 -16.5 81.5 -16.5c25.333 0 47.833 5 67.5 15
s34.667 23.333 45 40s15.5 34.334 15.5 53.001c0 28 -10.667 50.5 -32 67.5s-53.666 35.5 -96.999 55.5c-35.333 17.333 -63.666 32.833 -84.999 46.5s-39.666 31.334 -54.999 53.001s-23 48.167 -23 79.5c0 32.667 8.83301 62.667 26.5 90s42.334 48.833 74.001 64.5
s67.834 23.5 108.501 23.5c46 0 93.667 -10 143 -30zM258.994 703.998h-24.001c-41.333 51.333 -81.666 96 -120.999 134l22 32h9c41.333 -39.333 75.333 -74 102 -104c25.333 28 59.333 62.667 102 104h10l22 -32c-38 -38 -78.667 -82.667 -122 -134z" />
    <glyph glyph-name="scaron" unicode="&#x161;" horiz-adv-x="370" 
d="M315 443l-11 -65.0039l-12 -3c-33.333 22 -65.333 33 -96 33c-22.667 0 -41 -6.33301 -55 -19s-21 -28 -21 -46s7.16699 -32.5 21.5 -43.5s36.5 -23.5 66.5 -37.5c26 -12 46.833 -22.833 62.5 -32.5s29.167 -22.5 40.5 -38.5s17 -35.667 17 -59
c0 -24.667 -6.33301 -47.667 -19 -69s-31.334 -38.5 -56.001 -51.5s-54 -19.5 -88 -19.5c-46.667 0 -91 11 -133 33l10 68l9 6c18.667 -16 38.834 -28.333 60.501 -37s42.167 -13 61.5 -13c24.667 0 44.667 6.83301 60 20.5s23 29.834 23 48.501
c0 18 -7.16699 32.5 -21.5 43.5s-36.5 23.5 -66.5 37.5c-26 12 -47 22.833 -63 32.5s-29.667 22.834 -41 39.501s-17 37.334 -17 62.001c0 38.667 14.167 70.334 42.5 95.001s66.833 37 115.5 37c38 0 74.667 -7.33301 110 -22zM196 521.996h-24.001
c-41.333 51.333 -81.666 96 -120.999 134l22 32h9c41.333 -39.333 75.333 -74 102 -104c25.333 28 59.333 62.667 102 104h10l22 -32c-38 -38 -78.667 -82.667 -122 -134z" />
    <glyph glyph-name="Tcedilla" unicode="&#x162;" horiz-adv-x="490" 
d="M463 571l-112 5.99902h-65l-4 -377l4 -200h-21l-15 -51l34 -20c25.333 -14.667 38 -33.334 38 -56.001c0 -19.333 -7.5 -35.166 -22.5 -47.499s-34.5 -18.5 -58.5 -18.5c-28.667 0 -52.667 10.333 -72 31l7 40l5 1c18.667 -20.667 37.667 -31 57 -31
c9.33301 0 16.833 2.33301 22.5 7s8.5 11.334 8.5 20.001s-7 17 -21 25l-48 29l20 71h-15l5 193l-4 384h-64l-114 -6l-6 8l7 62h435l5 -8z" />
    <glyph glyph-name="tcedilla" unicode="&#x163;" horiz-adv-x="319" 
d="M297 81l8.00098 -6.00098l-7 -52c-32 -14.667 -60.333 -23.667 -85 -27l-14 -47l34 -20c25.333 -14.667 38 -33.334 38 -56.001c0 -19.333 -7.5 -35.166 -22.5 -47.499s-34.5 -18.5 -58.5 -18.5c-28.667 0 -52.667 10.333 -72 31l7 40l5 1
c18.667 -20.667 37.667 -31 57 -31c9.33301 0 16.833 2.33301 22.5 7s8.5 11.334 8.5 20.001s-7 17 -21 25l-48 29l20 72c-28 9.33301 -48.167 24 -60.5 44s-18.5 47 -18.5 81l4 71l-1 207h-64l-4 6l5 47h62v74l69 30l7 -7l-2 -97h136l3 -6l-4 -47h-135l-5 -271
c-0.666992 -26 4.16602 -44.5 14.499 -55.5s26.5 -16.5 48.5 -16.5c22.667 0 47 6.66699 73 20z" />
    <glyph glyph-name="Tcaron" unicode="&#x164;" horiz-adv-x="490" 
d="M463 571l-112 6h-65l-3 -377l3 -200h-81l6 193l-5 384h-65l-114 -6l-5 8l6 62h435l6 -8zM260 704h-24.001c-41.333 51.333 -81.666 96 -120.999 134l22 32h9c41.333 -39.333 75.333 -74 102 -104c25.333 28 59.333 62.667 102 104h10l22 -32
c-38 -38 -78.667 -82.667 -122 -134z" />
    <glyph glyph-name="tcaron" unicode="&#x165;" horiz-adv-x="319" 
d="M296 81l9 -5.99805l-8 -52c-36 -16.667 -69.333 -26.334 -100 -29.001c-38 7.33301 -65.333 21.333 -82 42s-25 50.667 -25 90l3 71l-1 207h-63l-4 6l5 47h61v74l69 30l8 -7l-2 -97h136l4 -6l-5 -47h-135l-5 -271c-0.666992 -26.667 4 -45.334 14 -56.001
s26.333 -16 49 -16c22 0 46 6.66699 72 20zM270 501.002l-38 -6l-6 6l4 175l57 4l6 -7z" />
    <glyph glyph-name="Tbar" unicode="&#x166;" horiz-adv-x="490" 
d="M284 345h104l7 -5l-4 -45h-108l-1 -95l4 -200h-81l5 193l-1 102h-95l-6 6l4 44h96l-2 232h-64l-114 -6l-6 8l7 62h435l5 -8l-6 -62l-112 6h-65z" />
    <glyph glyph-name="tbar" unicode="&#x167;" horiz-adv-x="323" 
d="M298 81l9 -5.99805l-8 -52c-36 -16.667 -69.333 -26.334 -100 -29.001c-38 7.33301 -65.333 21.333 -82 42s-25 50.667 -25 90l3 71v43h-62l-6 6l4 44h63v114h-63l-4 6l5 47h61v74l69 30l8 -7l-2 -97h136l4 -6l-5 -47h-135l-2 -114h123l7 -5l-4 -45h-127l-2 -107
c-0.666992 -26.667 4 -45.334 14 -56.001s26.333 -16 49 -16c22 0 46 6.66699 72 20z" />
    <glyph glyph-name="Umacron" unicode="&#x16a;" horiz-adv-x="626" 
d="M552 243c1.33301 -78.667 -19.334 -140 -62.001 -184s-103.334 -66 -182.001 -66c-75.333 0 -133.166 21 -173.499 63s-59.833 101.333 -58.5 178l1 87l-1 320h79l-3 -397c-1.33301 -120.667 52.667 -181 162 -181c110.667 0 165.334 57 164.001 171l-4 407h80l-1 -326z
M457 764h-283l-6 6l5 46h283l6 -5z" />
    <glyph glyph-name="umacron" unicode="&#x16b;" horiz-adv-x="511" 
d="M425 68.5c4.66699 -5.66699 12.334 -8.5 23.001 -8.5s22.334 2 35.001 6l7 -7l-7 -45c-19.333 -11.333 -38.333 -18 -57 -20c-40.667 4 -63.667 27.333 -69 70h-8c-40 -36 -81.333 -59.333 -124 -70c-49.333 0 -86.833 11.667 -112.5 35s-38.167 56.666 -37.5 99.999
l1 127l-3 197l80 7l-6 -312c-0.666992 -27.333 5.66602 -48.666 18.999 -63.999s32.666 -23 57.999 -23c40.667 0 82 20.333 124 61v331l76 7l-6 -362c0 -14 2.33301 -23.833 7 -29.5zM398 582h-283l-6 6l5 46h283l6 -5z" />
    <glyph glyph-name="Ubreve" unicode="&#x16c;" horiz-adv-x="626" 
d="M552 243c1.33301 -78.667 -19.334 -140 -62.001 -184s-103.334 -66 -182.001 -66c-75.333 0 -133.166 21 -173.499 63s-59.833 101.333 -58.5 178l1 87l-1 320h79l-3 -397c-1.33301 -120.667 52.667 -181 162 -181c110.667 0 165.334 57 164.001 171l-4 407h80l-1 -326z
M314 709c-67.333 0 -108.669 38.333 -124.002 115l22 29h12c12.667 -58 43.334 -87 92.001 -87s79.334 29 92.001 87h12l23 -29c-18 -76.667 -61 -115 -129 -115z" />
    <glyph glyph-name="ubreve" unicode="&#x16d;" horiz-adv-x="511" 
d="M425 68.5c4.66699 -5.66699 12.334 -8.5 23.001 -8.5s22.334 2 35.001 6l7 -7l-7 -45c-19.333 -11.333 -38.333 -18 -57 -20c-40.667 4 -63.667 27.333 -69 70h-8c-40 -36 -81.333 -59.333 -124 -70c-49.333 0 -86.833 11.667 -112.5 35s-38.167 56.666 -37.5 99.999
l1 127l-3 197l80 7l-6 -312c-0.666992 -27.333 5.66602 -48.666 18.999 -63.999s32.666 -23 57.999 -23c40.667 0 82 20.333 124 61v331l76 7l-6 -362c0 -14 2.33301 -23.833 7 -29.5zM255 527c-67.333 0 -108.669 38.333 -124.002 115l22 29h12
c12.667 -58 43.334 -87 92.001 -87s79.334 29 92.001 87h12l23 -29c-18 -76.667 -61 -115 -129 -115z" />
    <glyph glyph-name="Uring" unicode="&#x16e;" horiz-adv-x="626" 
d="M552 243c1.33301 -78.667 -19.334 -140 -62.001 -184s-103.334 -66 -182.001 -66c-75.333 0 -133.166 21 -173.499 63s-59.833 101.333 -58.5 178l1 87l-1 320h79l-3 -397c-1.33301 -120.667 52.667 -181 162 -181c110.667 0 165.334 57 164.001 171l-4 407h80l-1 -326z
M376 856.5c14.667 -15 22 -34.5 22 -58.5c0 -26 -8.16699 -46.5 -24.5 -61.5s-36.833 -22.5 -61.5 -22.5c-24 0 -43.667 7.16699 -59 21.5s-23 34.5 -23 60.5c0 25.333 7.66699 45.5 23 60.5s36 22.5 62 22.5s46.333 -7.5 61 -22.5zM268 797
c0 -14.667 4.16797 -25.833 12.501 -33.5s19.5 -11.5 33.5 -11.5c13.333 0 24.166 3.66699 32.499 11s12.5 18 12.5 32c0 30 -15.333 45 -46 45c-30 0 -45 -14.333 -45 -43z" />
    <glyph glyph-name="uring" unicode="&#x16f;" horiz-adv-x="511" 
d="M425 68.5c4.66699 -5.66699 12.334 -8.5 23.001 -8.5s22.334 2 35.001 6l7 -7l-7 -45c-19.333 -11.333 -38.333 -18 -57 -20c-40.667 4 -63.667 27.333 -69 70h-8c-40 -36 -81.333 -59.333 -124 -70c-49.333 0 -86.833 11.667 -112.5 35s-38.167 56.666 -37.5 99.999
l1 127l-3 197l80 7l-6 -312c-0.666992 -27.333 5.66602 -48.666 18.999 -63.999s32.666 -23 57.999 -23c40.667 0 82 20.333 124 61v331l76 7l-6 -362c0 -14 2.33301 -23.833 7 -29.5zM317 674.5c14.667 -15 22 -34.5 22 -58.5c0 -26 -8.16699 -46.5 -24.5 -61.5
s-36.833 -22.5 -61.5 -22.5c-24 0 -43.667 7.16699 -59 21.5s-23 34.5 -23 60.5c0 25.333 7.66699 45.5 23 60.5s36 22.5 62 22.5s46.333 -7.5 61 -22.5zM209 615c0 -14.667 4.16797 -25.833 12.501 -33.5s19.5 -11.5 33.5 -11.5c13.333 0 24.166 3.66699 32.499 11
s12.5 18 12.5 32c0 30 -15.333 45 -46 45c-30 0 -45 -14.333 -45 -43z" />
    <glyph glyph-name="Uhungarumlaut" unicode="&#x170;" horiz-adv-x="626" 
d="M552 243c1.33301 -78.667 -19.334 -140 -62.001 -184s-103.334 -66 -182.001 -66c-75.333 0 -133.166 21 -173.499 63s-59.833 101.333 -58.5 178l1 87l-1 320h79l-3 -397c-1.33301 -120.667 52.667 -181 162 -181c110.667 0 165.334 57 164.001 171l-4 407h80l-1 -326z
M211 761c47.333 52 77.667 86 91 102h8l36 -25v-9c-24 -24 -63.333 -60.667 -118 -110l-9 -1l-26 24zM445.001 863h7l37 -25v-9l-86 -81l-32 -29l-9 -1l-26 24z" />
    <glyph glyph-name="uhungarumlaut" unicode="&#x171;" horiz-adv-x="511" 
d="M425 68.5c4.66699 -5.66699 12.334 -8.5 23.001 -8.5s22.334 2 35.001 6l7 -7l-7 -45c-19.333 -11.333 -38.333 -18 -57 -20c-40.667 4 -63.667 27.333 -69 70h-8c-40 -36 -81.333 -59.333 -124 -70c-49.333 0 -86.833 11.667 -112.5 35s-38.167 56.666 -37.5 99.999
l1 127l-3 197l80 7l-6 -312c-0.666992 -27.333 5.66602 -48.666 18.999 -63.999s32.666 -23 57.999 -23c40.667 0 82 20.333 124 61v331l76 7l-6 -362c0 -14 2.33301 -23.833 7 -29.5zM267 697l7 1.00098l37 -27v-8c-42 -44 -90 -91.667 -144 -143l-9 -1l-26 24
c31.333 33.333 76.333 84.666 135 153.999zM408 697.001l8 1l37 -27l-1 -8c-42 -44 -90 -91.667 -144 -143l-8 -1l-27 24c36.667 38.667 81.667 90 135 154z" />
    <glyph glyph-name="Uogonek" unicode="&#x172;" horiz-adv-x="626" 
d="M551 243c2 -94 -26.667 -162.333 -86 -205l-60 -98c-11.333 -17.333 -17 -34 -17 -50c0 -22.667 12.333 -34 37 -34c25.333 0 49.666 12.667 72.999 38h4l12 -38c-32 -35.333 -65 -53 -99 -53c-23.333 0 -42.166 7.33301 -56.499 22s-21.5 34 -21.5 58
c0 22 7.33301 44 22 66l36 55c-27.333 -7.33301 -56.333 -11 -87 -11c-76 0 -134 20.833 -174 62.5s-59.333 101.167 -58 178.5l1 87l-1 320h79l-4 -397c-1.33301 -120.667 53 -181 163 -181c109.333 0 164 57 164 171l-4 407h80l-2 -326z" />
    <glyph glyph-name="uogonek" unicode="&#x173;" horiz-adv-x="512" 
d="M410 -197c-20.667 0 -38.002 6.49805 -52.002 19.498s-21 30.5 -21 52.5c0 15.333 5.16699 31.5 15.5 48.5s30.166 41.167 59.499 72.5c-32.667 8 -51 30.667 -55 68h-8c-40 -36 -81 -59.333 -123 -70c-49.333 0 -87 11.667 -113 35s-38.667 56.666 -38 99.999l2 127
l-4 197l80 7l-5 -312c-0.666992 -27.333 5.5 -48.666 18.5 -63.999s32.167 -23 57.5 -23c40.667 0 82.334 20.333 125.001 61v331l75 7l-5 -362c0 -14 2.16699 -23.833 6.5 -29.5s11.833 -8.5 22.5 -8.5s22.334 2 35.001 6l8 -7l-8 -45l-8 -5
c-33.333 -37.333 -55.666 -64.166 -66.999 -80.499s-17 -30.166 -17 -41.499c0 -19.333 10.333 -29 31 -29s40.334 11.667 59.001 35h4l14 -41c-30.667 -32.667 -60.334 -49 -89.001 -49z" />
    <glyph glyph-name="Wcircumflex" unicode="&#x174;" horiz-adv-x="893" 
d="M427 858h22.998c30 -26.667 69 -57 117 -91l-16 -34h-9c-37.333 22.667 -71.666 44.667 -102.999 66c-26 -18 -60 -40 -102 -66h-10l-16 34c44.667 30.667 83.334 61 116.001 91zM571.998 0l-125 372h-7l-132 -372h-83l-204 641h79l12 -62l156 -490h7l138 390l-55 162h82
l16 -69l158 -483h6l174 486l15 66h75l-229 -641h-83z" />
    <glyph glyph-name="wcircumflex" unicode="&#x175;" horiz-adv-x="676" 
d="M331 689l24 -0.000976562c41.333 -51.333 81.666 -96 120.999 -134l-22 -32h-9c-41.333 39.333 -75.333 74 -102 104c-25.333 -28 -59.333 -62.667 -102 -104h-10l-22 32c38.667 38.667 79.334 83.334 122.001 134.001zM189 85.999h6l97 312l15 60h78l11 -56l84 -316h6
l97 312l15 60h69l-151 -458h-75l-96 355h-7l-111 -355h-78l-128 456l73 5l11 -59z" />
    <glyph glyph-name="Ycircumflex" unicode="&#x176;" horiz-adv-x="528" 
d="M130 767c44.667 30.667 83.332 61 115.999 91h23c30 -26.667 69 -57 117 -91l-16 -34h-9c-37.333 22.667 -71.666 44.667 -102.999 66c-26 -18 -60 -40 -102 -66h-10zM294.998 0h-81l5 187l-1 44l-203 410h86l13 -36l140 -288h8l153 286l15 38h85l-223 -413l-1 -41z" />
    <glyph glyph-name="ycircumflex" unicode="&#x177;" horiz-adv-x="426" 
d="M205 689l24 -0.000976562c41.333 -51.333 81.666 -96 120.999 -134l-22 -32h-9c-41.333 39.333 -75.333 74 -102 104c-25.333 -28 -59.333 -62.667 -102 -104h-10l-22 32c38.667 38.667 79.334 83.334 122.001 134.001zM211 88.999h7l110 305l15 64h73l-162 -441
c-22 -59.333 -50.667 -105 -86 -137s-83.333 -55.667 -144 -71h-9c-16 16 -28.333 32.667 -37 50l3 10c50 9.33301 90.167 24 120.5 44s55.833 49 76.5 87l-169 456l78 5l15 -59z" />
    <glyph glyph-name="Ydieresis" unicode="&#x178;" horiz-adv-x="528" 
d="M148 756c-7.33301 8 -11 18.667 -11 32s4 24.166 12 32.499s19 12.5 33 12.5c13.333 0 23.666 -3.66699 30.999 -11s11 -17.666 11 -30.999c0 -14 -4 -25.333 -12 -34s-19 -13 -33 -13c-13.333 0 -23.666 4 -30.999 12zM305 756c-7.33301 8 -11 18.667 -11 32
s4 24.166 12 32.499s19 12.5 33 12.5c13.333 0 23.666 -3.66699 30.999 -11s11 -17.666 11 -30.999c0 -14 -4 -25.333 -12 -34s-19 -13 -33 -13c-13.333 0 -23.666 4 -30.999 12zM295 0h-81l5 187l-1 44l-203 410h86l13 -36l140 -288h8l153 286l15 38h85l-223 -413l-1 -41z
" />
    <glyph glyph-name="Zacute" unicode="&#x179;" horiz-adv-x="528" 
d="M127 65h266l95 7l4 -6l-7 -68l-116 2h-281l-57 -3v59l360 519h-247l-96 -7l-5 6l6 68l388 -1l49 1v-60zM407 814l-2 -8l-195 -86l-10 4l-14 36c68.667 34 132.667 68.333 192 103l9 -2z" />
    <glyph glyph-name="zacute" unicode="&#x17a;" horiz-adv-x="412" 
d="M334 458l38 1l2 -48l-256 -355h181l75 7l5 -7l-7 -58l-92 2h-200l-47 -2v48l257 357h-173l-71 -8l-6 7l7 58l82 -2h205zM335 654l-2 -8c-66 -51.333 -122.667 -93.666 -170 -126.999l-9 1l-22 32c65.333 53.333 120 101.666 164 144.999l9 -1z" />
    <glyph glyph-name="Zdotaccent" unicode="&#x17b;" horiz-adv-x="528" 
d="M303 833c8 -8 12 -18.667 12 -32c0 -15.333 -4.16699 -27.333 -12.5 -36s-19.833 -13 -34.5 -13c-29.333 0 -44 15.333 -44 46c0 14 4.16699 25.333 12.5 34s19.833 13 34.5 13c13.333 0 24 -4 32 -12zM127 65h266l95 7l4 -6l-7 -68l-116 2h-281l-57 -3v59l360 519h-247
l-96 -7l-5 6l6 68l388 -1l49 1v-60z" />
    <glyph glyph-name="zdotaccent" unicode="&#x17c;" horiz-adv-x="412" 
d="M239 651c8 -8 12 -18.667 12 -32c0 -15.333 -4.16699 -27.333 -12.5 -36s-19.833 -13 -34.5 -13c-29.333 0 -44 15.333 -44 46c0 14 4.16699 25.333 12.5 34s19.833 13 34.5 13c13.333 0 24 -4 32 -12zM334 458l39 1l2 -48l-257 -355h182l75 7l5 -7l-7 -58l-93 2h-200
l-46 -2l-1 48l257 357h-172l-72 -8l-5 7l6 58l82 -2h205z" />
    <glyph glyph-name="Zcaron" unicode="&#x17d;" horiz-adv-x="528" 
d="M127 65h266l95 7l4 -6l-7 -68l-116 2h-281l-57 -3v59l360 519h-247l-96 -7l-5 6l6 68l388 -1l49 1v-60zM282 723h-22.998c-30 26.667 -69 57 -117 91l16 34h9c37.333 -22.667 71.666 -44.667 102.999 -66c26 18 60 40 102 66h10l16 -34
c-44.667 -30.667 -83.334 -61 -116.001 -91z" />
    <glyph glyph-name="zcaron" unicode="&#x17e;" horiz-adv-x="412" 
d="M334 458l38 1l2 -48l-256 -355h181l75 7l5 -7l-7 -58l-92 2h-200l-47 -2v48l257 357h-173l-71 -8l-6 7l7 58l82 -2h205zM217 522h-24.001c-41.333 51.333 -81.666 96 -120.999 134l22 32h9c41.333 -39.333 75.333 -74 102 -104c25.333 28 59.333 62.667 102 104h10
l22 -32c-38 -38 -78.667 -82.667 -122 -134z" />
    <glyph glyph-name="florin" unicode="&#x192;" horiz-adv-x="277" 
d="M372 607l-11.999 -51.999l-6 -3c-20.667 8.66699 -41.667 13 -63 13c-57.333 0 -90.333 -31.333 -99 -94l-13 -97h111l3 -6l-4 -38h-115l-20 -145l-18 -138c-5.33301 -45.333 -16.5 -81.833 -33.5 -109.5s-45.833 -56.834 -86.5 -87.501l-32 31l1 7
c30 26 51.167 49.833 63.5 71.5s20.833 50.167 25.5 85.5l17 135l18 150h-65l-5 4l5 40h71l11 88c6 49.333 24.167 87.333 54.5 114s70.166 40 119.499 40c20 0 44 -3 72 -9z" />
    <glyph glyph-name="Ohorn" unicode="&#x1a0;" horiz-adv-x="640" 
d="M613.5 739.5c11.667 -17 17.5 -37.168 17.5 -60.501c0 -31.333 -10.833 -56.333 -32.5 -75s-49.834 -29 -84.501 -31c56 -54 84 -135.333 84 -244c0 -106 -25 -188.667 -75 -248s-120.667 -89 -212 -89c-87.333 0 -154.666 28 -201.999 84s-71 135.667 -71 239
c0 106.667 24.833 188.667 74.5 246s119.5 86 209.5 86c34 0 72.667 -7 116 -21c26 -8.66699 45.333 -13 58 -13c20 0 36.833 5.33301 50.5 16s20.5 25.334 20.5 44.001c0 25.333 -10.667 48 -32 68l2 8c14 10.667 27 16 39 16c13.333 0 25.833 -8.5 37.5 -25.5z
M120 324.999c0 -177.333 65 -266 195 -266c133.333 0 200 86.667 200 260c0 88.667 -16.167 154.5 -48.5 197.5s-81.5 64.5 -147.5 64.5c-132.667 0 -199 -85.333 -199 -256z" />
    <glyph glyph-name="ohorn" unicode="&#x1a1;" horiz-adv-x="492" 
d="M498.5 559.5c11.667 -15.667 17.499 -34.502 17.499 -56.502c0 -32.667 -11 -59.167 -33 -79.5s-49.333 -30.5 -82 -30.5c30.667 -36.667 46 -89.667 46 -159c0 -76.667 -18 -136.167 -54 -178.5s-86.667 -63.5 -152 -63.5c-64 0 -113.167 20.167 -147.5 60.5
s-51.5 97.5 -51.5 171.5c0 76.667 18.167 136.167 54.5 178.5s87.833 63.5 154.5 63.5c23.333 0 51 -5.33301 83 -16c24 -8 42 -12 54 -12c20 0 35.833 4.83301 47.5 14.5s17.5 22.834 17.5 39.501c0 22.667 -11 44.334 -33 65.001l3 9c14.667 11.333 27.667 17 39 17
c12.667 0 24.834 -7.83301 36.501 -23.5zM149.999 364.498c-22 -30.333 -33 -74.833 -33 -133.5c0 -121.333 42.333 -182 127 -182c86 0 129 59.333 129 178c0 122 -42.333 183 -127 183c-42 0 -74 -15.167 -96 -45.5z" />
    <glyph glyph-name="Uhorn" unicode="&#x1af;" horiz-adv-x="636" 
d="M616.5 637.5c-15.667 -17 -36.501 -28.833 -62.501 -35.5l-2 -287l-1 -72c1.33301 -79.333 -19.167 -140.833 -61.5 -184.5s-102.833 -65.5 -181.5 -65.5c-76 0 -134 20.833 -174 62.5s-59.333 101.167 -58 178.5l1 87l-1 320h79l-4 -397
c-1.33301 -120.667 53 -181 163 -181c109.333 0 164 57 164 171l-4 407h38c43.333 0 65 17 65 51c0 20.667 -11 40.667 -33 60l3 8c15.333 10.667 28.333 16 39 16c12.667 0 24.834 -7.83301 36.501 -23.5s17.5 -34.167 17.5 -55.5c0 -22.667 -7.83301 -42.5 -23.5 -59.5z
" />
    <glyph glyph-name="uhorn" unicode="&#x1b0;" horiz-adv-x="519" 
d="M501 583.5c11.333 -15.667 17.001 -34.168 17.001 -55.501c0 -49.333 -31.667 -83.333 -95 -102l-4 -328c0 -14 2.16699 -23.833 6.5 -29.5s11.833 -8.5 22.5 -8.5s22.334 2 35.001 6l8 -7l-8 -45c-18 -11.333 -37 -18 -57 -20c-40.667 4 -63.667 27.333 -69 70h-8
c-40 -36 -81.333 -59.333 -124 -70c-49.333 0 -86.833 11.667 -112.5 35s-38.167 56.666 -37.5 99.999l1 126l-3 198l80 7l-6 -312c-0.666992 -27.333 5.66602 -48.666 18.999 -63.999s32.666 -23 57.999 -23c41.333 0 83 20.333 125 61v331l30 4
c50.667 8.66699 76 28.334 76 59.001c0 22 -10.667 44 -32 66l2 7c14 12 27.333 18 40 18s24.667 -7.83301 36 -23.5z" />
    <glyph glyph-name="Acaron" unicode="&#x1cd;" horiz-adv-x="578" 
d="M474 0l-15 64l-36 110l-144 3l-130 -3l-39 -106l-16 -68h-80l235 641h93l214 -641h-82zM297 558h-7l-116 -316l112 -2l115 2zM303 723h-22.998c-30 26.667 -69 57 -117 91l16 34h9c37.333 -22.667 71.666 -44.667 102.999 -66c26 18 60 40 102 66h10l16 -34
c-44.667 -30.667 -83.334 -61 -116.001 -91z" />
    <glyph glyph-name="acaron" unicode="&#x1ce;" horiz-adv-x="462" 
d="M333.5 434c25 -21.333 37.5 -50.667 37.5 -88c0 -11.333 -2 -52.333 -6 -123s-6 -112 -6 -124c0 -14.667 2.33301 -24.834 7 -30.501s12.667 -8.5 24 -8.5c10 0 21.333 2 34 6l8 -7l-8 -45c-19.333 -11.333 -38.333 -18 -57 -20c-20.667 2 -37.167 9.33301 -49.5 22
s-18.833 30 -19.5 52h-7c-36 -36.667 -71.667 -61.667 -107 -75c-44.667 0 -79.5 11.167 -104.5 33.5s-37.5 52.833 -37.5 91.5c0 56.667 31 92.334 93 107.001l162 38l1 65c0 26 -6.83301 46 -20.5 60s-33.167 21 -58.5 21c-43.333 0 -90.333 -22 -141 -66l-8 4l-10 57
c55.333 41.333 112.333 62 171 62c43.333 0 77.5 -10.667 102.5 -32zM122 160.499c-6 -7 -9 -17.5 -9 -31.5c0 -22 6.16699 -39.167 18.5 -51.5s28.833 -18.5 49.5 -18.5c36.667 0 74 23.667 112 71l3 82l-145 -35c-13.333 -4 -23 -9.5 -29 -16.5zM235 521.999h-24.001
c-41.333 51.333 -81.666 96 -120.999 134l22 32h9c41.333 -39.333 75.333 -74 102 -104c25.333 28 59.333 62.667 102 104h10l22 -32c-38 -38 -78.667 -82.667 -122 -134z" />
    <glyph glyph-name="Icaron" unicode="&#x1cf;" horiz-adv-x="268" 
d="M174 0h-81l5 193l-5 448h82l-5 -441zM147 723h-22.998c-30 26.667 -69 57 -117 91l16 34h9c37.333 -22.667 71.666 -44.667 102.999 -66c26 18 60 40 102 66h10l16 -34c-44.667 -30.667 -83.334 -61 -116.001 -91z" />
    <glyph glyph-name="icaron" unicode="&#x1d0;" horiz-adv-x="238" 
d="M158 0h-79l6 194l-5 259l79 7l-6 -259zM132 522h-24.001c-41.333 51.333 -81.666 96 -120.999 134l22 32h9c41.333 -39.333 75.333 -74 102 -104c25.333 28 59.333 62.667 102 104h10l22 -32c-38 -38 -78.667 -82.667 -122 -134z" />
    <glyph glyph-name="Ocaron" unicode="&#x1d1;" horiz-adv-x="635" 
d="M527.5 566c47 -54 70.499 -131.667 70.499 -233c0 -108.667 -25 -192.667 -75 -252s-121 -89 -213 -89c-86.667 0 -153.667 28 -201 84s-71 135.667 -71 239c0 106.667 24.833 188.667 74.5 246s120.834 86 213.501 86c87.333 0 154.5 -27 201.5 -81zM119.999 325
c0 -177.333 65 -266 195 -266c133.333 0 200 86.667 200 260c0 88.667 -16.167 154.5 -48.5 197.5s-81.5 64.5 -147.5 64.5c-132.667 0 -199 -85.333 -199 -256zM330.999 723h-22.998c-30 26.667 -69 57 -117 91l16 34h9c37.333 -22.667 71.666 -44.667 102.999 -66
c26 18 60 40 102 66h10l16 -34c-44.667 -30.667 -83.334 -61 -116.001 -91z" />
    <glyph glyph-name="ocaron" unicode="&#x1d2;" horiz-adv-x="491" 
d="M395.5 405.5c34.333 -40.333 51.5 -97.166 51.5 -170.499c0 -77.333 -18 -137.166 -54 -179.499s-87.333 -63.5 -154 -63.5c-62.667 0 -111.167 20.167 -145.5 60.5s-51.5 97.166 -51.5 170.499c0 77.333 18.167 137.166 54.5 179.499s87.833 63.5 154.5 63.5
c62 0 110.167 -20.167 144.5 -60.5zM150 367c-22 -28.667 -33 -70.667 -33 -126c0 -128 42.333 -192 127 -192c86 0 129 56 129 168c0 63.333 -10.833 111.333 -32.5 144s-53.167 49 -94.5 49c-42 0 -74 -14.333 -96 -43zM258 522h-24.001
c-41.333 51.333 -81.666 96 -120.999 134l22 32h9c41.333 -39.333 75.333 -74 102 -104c25.333 28 59.333 62.667 102 104h10l22 -32c-38 -38 -78.667 -82.667 -122 -134z" />
    <glyph glyph-name="Ucaron" unicode="&#x1d3;" horiz-adv-x="626" 
d="M552 243c1.33301 -78.667 -19.334 -140 -62.001 -184s-103.334 -66 -182.001 -66c-75.333 0 -133.166 21 -173.499 63s-59.833 101.333 -58.5 178l1 87l-1 320h79l-3 -397c-1.33301 -120.667 52.667 -181 162 -181c110.667 0 165.334 57 164.001 171l-4 407h80l-1 -326z
M327 704h-24.001c-41.333 51.333 -81.666 96 -120.999 134l22 32h9c41.333 -39.333 75.333 -74 102 -104c25.333 28 59.333 62.667 102 104h10l22 -32c-38 -38 -78.667 -82.667 -122 -134z" />
    <glyph glyph-name="ucaron" unicode="&#x1d4;" horiz-adv-x="511" 
d="M425 68.5c4.66699 -5.66699 12.334 -8.5 23.001 -8.5s22.334 2 35.001 6l7 -7l-7 -45c-19.333 -11.333 -38.333 -18 -57 -20c-40.667 4 -63.667 27.333 -69 70h-8c-40 -36 -81.333 -59.333 -124 -70c-49.333 0 -86.833 11.667 -112.5 35s-38.167 56.666 -37.5 99.999
l1 127l-3 197l80 7l-6 -312c-0.666992 -27.333 5.66602 -48.666 18.999 -63.999s32.666 -23 57.999 -23c40.667 0 82 20.333 124 61v331l76 7l-6 -362c0 -14 2.33301 -23.833 7 -29.5zM268 522h-24.001c-41.333 51.333 -81.666 96 -120.999 134l22 32h9
c41.333 -39.333 75.333 -74 102 -104c25.333 28 59.333 62.667 102 104h10l22 -32c-38 -38 -78.667 -82.667 -122 -134z" />
    <glyph glyph-name="Udieresismacron" unicode="&#x1d5;" horiz-adv-x="626" 
d="M552 243c1.33301 -78.667 -19.334 -140 -62.001 -184s-103.334 -66 -182.001 -66c-75.333 0 -133.166 21 -173.499 63s-59.833 101.333 -58.5 178l1 87l-1 320h79l-3 -397c-1.33301 -120.667 52.667 -181 162 -181c110.667 0 165.334 57 164.001 171l-4 407h80l-1 -326z
M445 877h-258l-7 6l5 47h259l6 -6zM266 800c7.33301 -7.33301 11 -17.333 11 -30c0 -13.333 -3.83301 -23.833 -11.5 -31.5s-18.167 -11.5 -31.5 -11.5c-26.667 0 -40 13.667 -40 41c0 13.333 3.83301 23.833 11.5 31.5s18.167 11.5 31.5 11.5c12 0 21.667 -3.66699 29 -11z
M423.5 800c7 -7.33301 10.5 -17.333 10.5 -30c0 -13.333 -3.83301 -23.833 -11.5 -31.5s-18.167 -11.5 -31.5 -11.5c-12 0 -21.667 3.66699 -29 11s-11 17.333 -11 30c0 13.333 3.83301 23.833 11.5 31.5s18.167 11.5 31.5 11.5c12.667 0 22.5 -3.66699 29.5 -11z" />
    <glyph glyph-name="udieresismacron" unicode="&#x1d6;" horiz-adv-x="511" 
d="M425 68.5c4.66699 -5.66699 12.334 -8.5 23.001 -8.5s22.334 2 35.001 6l7 -7l-7 -45c-19.333 -11.333 -38.333 -18 -57 -20c-40.667 4 -63.667 27.333 -69 70h-8c-40 -36 -81.333 -59.333 -124 -70c-49.333 0 -86.833 11.667 -112.5 35s-38.167 56.666 -37.5 99.999
l1 127l-3 197l80 7l-6 -312c-0.666992 -27.333 5.66602 -48.666 18.999 -63.999s32.666 -23 57.999 -23c40.667 0 82 20.333 124 61v331l76 7l-6 -362c0 -14 2.33301 -23.833 7 -29.5zM386 695h-258l-7 6l5 47h259l6 -6zM207 618c7.33301 -7.33301 11 -17.333 11 -30
c0 -13.333 -3.83301 -23.833 -11.5 -31.5s-18.167 -11.5 -31.5 -11.5c-26.667 0 -40 13.667 -40 41c0 13.333 3.83301 23.833 11.5 31.5s18.167 11.5 31.5 11.5c12 0 21.667 -3.66699 29 -11zM364.5 618c7 -7.33301 10.5 -17.333 10.5 -30
c0 -13.333 -3.83301 -23.833 -11.5 -31.5s-18.167 -11.5 -31.5 -11.5c-12 0 -21.667 3.66699 -29 11s-11 17.333 -11 30c0 13.333 3.83301 23.833 11.5 31.5s18.167 11.5 31.5 11.5c12.667 0 22.5 -3.66699 29.5 -11z" />
    <glyph glyph-name="Udieresisacute" unicode="&#x1d7;" horiz-adv-x="626" 
d="M552 243c1.33301 -78.667 -19.334 -140 -62.001 -184s-103.334 -66 -182.001 -66c-75.333 0 -133.166 21 -173.499 63s-59.833 101.333 -58.5 178l1 87l-1 320h79l-3 -397c-1.33301 -120.667 52.667 -181 162 -181c110.667 0 165.334 57 164.001 171l-4 407h80l-1 -326z
M428 921l-5 -9.00195c-51.333 -13.333 -120.333 -29.666 -207 -48.999l-9 5l-7 38c70.667 20.667 139.667 43.334 207 68.001l8 -3zM266 799.998c7.33301 -7.33301 11 -17.333 11 -30c0 -13.333 -3.83301 -23.833 -11.5 -31.5s-18.167 -11.5 -31.5 -11.5
c-26.667 0 -40 13.667 -40 41c0 13.333 3.83301 23.833 11.5 31.5s18.167 11.5 31.5 11.5c12 0 21.667 -3.66699 29 -11zM423.5 799.998c7 -7.33301 10.5 -17.333 10.5 -30c0 -13.333 -3.83301 -23.833 -11.5 -31.5s-18.167 -11.5 -31.5 -11.5c-12 0 -21.667 3.66699 -29 11
s-11 17.333 -11 30c0 13.333 3.83301 23.833 11.5 31.5s18.167 11.5 31.5 11.5c12.667 0 22.5 -3.66699 29.5 -11z" />
    <glyph glyph-name="udieresisacute" unicode="&#x1d8;" horiz-adv-x="511" 
d="M425 68.5c4.66699 -5.66699 12.334 -8.5 23.001 -8.5s22.334 2 35.001 6l7 -7l-7 -45c-19.333 -11.333 -38.333 -18 -57 -20c-40.667 4 -63.667 27.333 -69 70h-8c-40 -36 -81.333 -59.333 -124 -70c-49.333 0 -86.833 11.667 -112.5 35s-38.167 56.666 -37.5 99.999
l1 127l-3 197l80 7l-6 -312c-0.666992 -27.333 5.66602 -48.666 18.999 -63.999s32.666 -23 57.999 -23c40.667 0 82 20.333 124 61v331l76 7l-6 -362c0 -14 2.33301 -23.833 7 -29.5zM369 739l-5 -9.00195c-51.333 -13.333 -120.333 -29.666 -207 -48.999l-9 5l-7 38
c70.667 20.667 139.667 43.334 207 68.001l8 -3zM207 617.998c7.33301 -7.33301 11 -17.333 11 -30c0 -13.333 -3.83301 -23.833 -11.5 -31.5s-18.167 -11.5 -31.5 -11.5c-26.667 0 -40 13.667 -40 41c0 13.333 3.83301 23.833 11.5 31.5s18.167 11.5 31.5 11.5
c12 0 21.667 -3.66699 29 -11zM364.5 617.998c7 -7.33301 10.5 -17.333 10.5 -30c0 -13.333 -3.83301 -23.833 -11.5 -31.5s-18.167 -11.5 -31.5 -11.5c-12 0 -21.667 3.66699 -29 11s-11 17.333 -11 30c0 13.333 3.83301 23.833 11.5 31.5s18.167 11.5 31.5 11.5
c12.667 0 22.5 -3.66699 29.5 -11z" />
    <glyph glyph-name="Udieresiscaron" unicode="&#x1d9;" horiz-adv-x="626" 
d="M552 243c1.33301 -78.667 -19.334 -140 -62.001 -184s-103.334 -66 -182.001 -66c-75.333 0 -133.166 21 -173.499 63s-59.833 101.333 -58.5 178l1 87l-1 320h79l-3 -397c-1.33301 -120.667 52.667 -181 162 -181c110.667 0 165.334 57 164.001 171l-4 407h80l-1 -326z
M327 834l-23 -0.000976562c-38 32 -77 62 -117 90l16 34h9l42.5 -26.5l35.5 -22.5l25 -17l34 22c-8 -5.33301 14.667 9.33398 68 44.001h10l16 -34c-38 -26 -76.667 -56 -116 -90zM266 799.999c7.33301 -7.33301 11 -17.333 11 -30c0 -13.333 -3.83301 -23.833 -11.5 -31.5
s-18.167 -11.5 -31.5 -11.5c-26.667 0 -40 13.667 -40 41c0 13.333 3.83301 23.833 11.5 31.5s18.167 11.5 31.5 11.5c12 0 21.667 -3.66699 29 -11zM423.5 799.999c7 -7.33301 10.5 -17.333 10.5 -30c0 -13.333 -3.83301 -23.833 -11.5 -31.5s-18.167 -11.5 -31.5 -11.5
c-12 0 -21.667 3.66699 -29 11s-11 17.333 -11 30c0 13.333 3.83301 23.833 11.5 31.5s18.167 11.5 31.5 11.5c12.667 0 22.5 -3.66699 29.5 -11z" />
    <glyph glyph-name="udieresiscaron" unicode="&#x1da;" horiz-adv-x="511" 
d="M425 68.5c4.66699 -5.66699 12.334 -8.5 23.001 -8.5s22.334 2 35.001 6l7 -7l-7 -45c-19.333 -11.333 -38.333 -18 -57 -20c-40.667 4 -63.667 27.333 -69 70h-8c-40 -36 -81.333 -59.333 -124 -70c-49.333 0 -86.833 11.667 -112.5 35s-38.167 56.666 -37.5 99.999
l1 127l-3 197l80 7l-6 -312c-0.666992 -27.333 5.66602 -48.666 18.999 -63.999s32.666 -23 57.999 -23c40.667 0 82 20.333 124 61v331l76 7l-6 -362c0 -14 2.33301 -23.833 7 -29.5zM268 652l-23 -0.000976562c-38 32 -77 62 -117 90l16 34h9l42.5 -26.5l35.5 -22.5
l25 -17l34 22c-8 -5.33301 14.667 9.33398 68 44.001h10l16 -34c-38 -26 -76.667 -56 -116 -90zM207 617.999c7.33301 -7.33301 11 -17.333 11 -30c0 -13.333 -3.83301 -23.833 -11.5 -31.5s-18.167 -11.5 -31.5 -11.5c-26.667 0 -40 13.667 -40 41
c0 13.333 3.83301 23.833 11.5 31.5s18.167 11.5 31.5 11.5c12 0 21.667 -3.66699 29 -11zM364.5 617.999c7 -7.33301 10.5 -17.333 10.5 -30c0 -13.333 -3.83301 -23.833 -11.5 -31.5s-18.167 -11.5 -31.5 -11.5c-12 0 -21.667 3.66699 -29 11s-11 17.333 -11 30
c0 13.333 3.83301 23.833 11.5 31.5s18.167 11.5 31.5 11.5c12.667 0 22.5 -3.66699 29.5 -11z" />
    <glyph glyph-name="Udieresisgrave" unicode="&#x1db;" horiz-adv-x="626" 
d="M552 243c1.33301 -78.667 -19.334 -140 -62.001 -184s-103.334 -66 -182.001 -66c-75.333 0 -133.166 21 -173.499 63s-59.833 101.333 -58.5 178l1 87l-1 320h79l-3 -397c-1.33301 -120.667 52.667 -181 162 -181c110.667 0 165.334 57 164.001 171l-4 407h80l-1 -326z
M428 906l-8.99902 -38l-8 -5c-82.667 18 -151.334 34.333 -206.001 49l-5 9l12 50l9 3c58.667 -22 127.667 -44.667 207 -68zM266.001 800c7.33301 -7.33301 11 -17.333 11 -30c0 -13.333 -3.83301 -23.833 -11.5 -31.5s-18.167 -11.5 -31.5 -11.5
c-26.667 0 -40 13.667 -40 41c0 13.333 3.83301 23.833 11.5 31.5s18.167 11.5 31.5 11.5c12 0 21.667 -3.66699 29 -11zM423.501 800c7 -7.33301 10.5 -17.333 10.5 -30c0 -13.333 -3.83301 -23.833 -11.5 -31.5s-18.167 -11.5 -31.5 -11.5c-12 0 -21.667 3.66699 -29 11
s-11 17.333 -11 30c0 13.333 3.83301 23.833 11.5 31.5s18.167 11.5 31.5 11.5c12.667 0 22.5 -3.66699 29.5 -11z" />
    <glyph glyph-name="udieresisgrave" unicode="&#x1dc;" horiz-adv-x="511" 
d="M425 68.5c4.66699 -5.66699 12.334 -8.5 23.001 -8.5s22.334 2 35.001 6l7 -7l-7 -45c-19.333 -11.333 -38.333 -18 -57 -20c-40.667 4 -63.667 27.333 -69 70h-8c-40 -36 -81.333 -59.333 -124 -70c-49.333 0 -86.833 11.667 -112.5 35s-38.167 56.666 -37.5 99.999
l1 127l-3 197l80 7l-6 -312c-0.666992 -27.333 5.66602 -48.666 18.999 -63.999s32.666 -23 57.999 -23c40.667 0 82 20.333 124 61v331l76 7l-6 -362c0 -14 2.33301 -23.833 7 -29.5zM369 724l-8.99902 -38l-8 -5c-82.667 18 -151.334 34.333 -206.001 49l-5 9l12 50l9 3
c58.667 -22 127.667 -44.667 207 -68zM207.001 618c7.33301 -7.33301 11 -17.333 11 -30c0 -13.333 -3.83301 -23.833 -11.5 -31.5s-18.167 -11.5 -31.5 -11.5c-26.667 0 -40 13.667 -40 41c0 13.333 3.83301 23.833 11.5 31.5s18.167 11.5 31.5 11.5
c12 0 21.667 -3.66699 29 -11zM364.501 618c7 -7.33301 10.5 -17.333 10.5 -30c0 -13.333 -3.83301 -23.833 -11.5 -31.5s-18.167 -11.5 -31.5 -11.5c-12 0 -21.667 3.66699 -29 11s-11 17.333 -11 30c0 13.333 3.83301 23.833 11.5 31.5s18.167 11.5 31.5 11.5
c12.667 0 22.5 -3.66699 29.5 -11z" />
    <glyph glyph-name="Oogonek" unicode="&#x1ea;" horiz-adv-x="635" 
d="M372 -103c0 -12 3.49902 -21.666 10.499 -28.999s16.833 -11 29.5 -11c22.667 0 45.667 12.667 69 38h5l11 -40c-33.333 -34.667 -66 -52 -98 -52c-24 0 -43.167 7.33301 -57.5 22s-21.5 34 -21.5 58c0 25.333 8.33301 49.666 25 72.999l29 41
c-22 -3.33301 -43.333 -5 -64 -5c-86.667 0 -153.667 28 -201 84s-71 135.667 -71 239c0 106.667 24.833 188.667 74.5 246s120.834 86 213.501 86c87.333 0 154.5 -27 201.5 -81s70.5 -131.667 70.5 -233c0 -80.667 -14 -148 -42 -202s-68.333 -92.333 -121 -115l-45 -69
c-12 -19.333 -18 -36 -18 -50zM314.999 59.001c133.333 0 200 86.667 200 260c0 88.667 -16.167 154.5 -48.5 197.5s-81.5 64.5 -147.5 64.5c-132.667 0 -199 -85.333 -199 -256c0 -177.333 65 -266 195 -266z" />
    <glyph glyph-name="oogonek" unicode="&#x1eb;" horiz-adv-x="491" 
d="M384 -146c-33.333 -34.667 -65.999 -51.9971 -97.999 -51.9971c-24 0 -43.167 7.33301 -57.5 22s-21.5 34 -21.5 58c0 25.333 8.33301 49.666 25 72.999l26 38l-19 -1c-62.667 0 -111.167 20.167 -145.5 60.5s-51.5 97.166 -51.5 170.499
c0 77.333 18.167 137.166 54.5 179.499s87.5 63.5 153.5 63.5c62.667 0 111.167 -20.167 145.5 -60.5s51.5 -97.166 51.5 -170.499c0 -60.667 -11.333 -110.834 -34 -150.501s-55.334 -66.5 -98.001 -80.5l-38 -58c-12 -19.333 -18 -36 -18 -50c0 -12 3.5 -21.667 10.5 -29
s16.833 -11 29.5 -11c22.667 0 45.667 12.667 69 38h5zM244.001 49.0029c86 0 129 56 129 168c0 63.333 -10.833 111.333 -32.5 144s-53.167 49 -94.5 49c-42 0 -74 -14.333 -96 -43s-33 -70.667 -33 -126c0 -128 42.333 -192 127 -192z" />
    <glyph glyph-name="Aringacute" unicode="&#x1fa;" horiz-adv-x="578" 
d="M204 825c84 26 153 49.333 207 70l8 -3l13 -49l-4 -8c-60 -17.333 -129 -35 -207 -53l-8 5zM474 0l-14 62.999l-36 109l-145 3l-130 -3l-39 -105l-16 -67h-80l231 615c-22 15.333 -33 38.333 -33 69c0 25.333 7.66699 45.5 23 60.5s36 22.5 62 22.5s46.333 -7.5 61 -22.5
s22 -34.5 22 -58.5c0 -31.333 -11.667 -54.666 -35 -69.999l212 -616h-83zM250 684.999c0 -14.667 4.16797 -25.833 12.501 -33.5s19.5 -11.5 33.5 -11.5c13.333 0 24.166 3.66699 32.499 11s12.5 18 12.5 32c0 30 -15.333 45 -46 45c-30 0 -45 -14.333 -45 -43z
M297.001 553h-7l-116 -313l112 -2l115 2z" />
    <glyph glyph-name="aringacute" unicode="&#x1fb;" horiz-adv-x="462" 
d="M358 774l-4 -8c-60 -17.333 -129 -35 -207 -53l-8 5l-9 38c84 26 153 49.333 207 70l8 -3zM284 674.5c14.667 -15 22 -34.5 22 -58.5c0 -26 -8.16699 -46.5 -24.5 -61.5s-36.833 -22.5 -61.5 -22.5c-24 0 -43.667 7.16699 -59 21.5s-23 34.5 -23 60.5
c0 25.333 7.66699 45.5 23 60.5s36 22.5 62 22.5s46.333 -7.5 61 -22.5zM176 615c0 -14.667 4.16797 -25.833 12.501 -33.5s19.5 -11.5 33.5 -11.5c13.333 0 24.166 3.66699 32.499 11s12.5 18 12.5 32c0 30 -15.333 45 -46 45c-30 0 -45 -14.333 -45 -43zM333.001 434.001
c25.333 -21.333 37.999 -50.667 37.999 -88c0 -11.333 -2 -52.333 -6 -123c-4.66699 -62 -7 -103.333 -7 -124c0 -14.667 2.33301 -24.834 7 -30.501s13 -8.5 25 -8.5c10 0 21 2 33 6l8 -7l-7 -45c-19.333 -11.333 -38.333 -18 -57 -20c-43.333 4 -66.666 28.667 -69.999 74
h-6c-36 -36.667 -71.667 -61.667 -107 -75c-44.667 0 -79.5 11.167 -104.5 33.5s-37.5 52.833 -37.5 91.5c0 56.667 31 92.334 93 107.001l162 38l1 65c0 26 -6.83301 46 -20.5 60s-33.167 21 -58.5 21c-44 0 -91 -22 -141 -66l-8 4l-11 57c56.667 41.333 114 62 172 62
c42.667 0 76.667 -10.667 102 -32zM122 161c-6 -7.33301 -9.00098 -18.001 -9.00098 -32.001c0 -22 6.16699 -39.167 18.5 -51.5s28.5 -18.5 48.5 -18.5c36.667 0 74.334 23.667 113.001 71l3 82l-145 -35c-13.333 -3.33301 -23 -8.66602 -29 -15.999z" />
    <glyph glyph-name="AEacute" unicode="&#x1fc;" horiz-adv-x="807" 
d="M785 0h-348l-5 64l-29 195l-238 -54l-73 -137l-25 -68h-83l338 641h373l6 -8l-8 -62l-162 4h-97l35 -237l215 45l7 -6l4 -58l-217 -43l31 -211h113l164 5l6 -8zM358 558h-6l-147 -277l188 41zM635 814l-2 -8l-195 -86l-10 4l-14 36c68.667 34 132.667 68.333 192 103
l9 -2z" />
    <glyph glyph-name="aeacute" unicode="&#x1fd;" horiz-adv-x="678" 
d="M607 416.5c29.333 -32.333 42.998 -78.8311 40.998 -139.498l-9 -11l-283 -48c5.33301 -110.667 50.333 -166 135 -166c45.333 0 88 15.333 128 46l8 -4l-9 -65c-42 -24.667 -86.333 -37 -133 -37c-75.333 0 -129.666 33 -162.999 99
c-36.667 -46.667 -82 -79.334 -136 -98.001c-45.333 0 -81.166 11.167 -107.499 33.5s-39.5 53.166 -39.5 92.499c0 30 8 54.5 24 73.5s39 30.833 69 35.5l160 27v73c0 26 -6.66699 46 -20 60s-32.333 21 -57 21c-40.667 0 -87 -22 -139 -66l-8 4l-12 57
c55.333 41.333 111.333 62 168 62c31.333 0 57 -6.5 77 -19.5s34.333 -30.5 43 -52.5c35.333 47.333 84 71 146 71c48.667 0 87.667 -16.167 117 -48.5zM416.498 392.002c-19 -12.667 -33.833 -29.5 -44.5 -50.5s-16 -44.167 -16 -69.5v-6l220 42
c-2 32.667 -11.667 58 -29 76s-40 27 -68 27c-22.667 0 -43.5 -6.33301 -62.5 -19zM234.998 76.502c17.333 11 39.001 30.5 65.001 58.5c-4.66699 32.667 -7.33398 56.667 -8.00098 72l-131 -26c-34 -6 -51 -24 -51 -54c0 -21.333 6.66699 -37.833 20 -49.5
s30.333 -17.5 51 -17.5c18.667 0 36.667 5.5 54 16.5zM472.999 654.002l-2 -8c-66 -51.333 -122.667 -93.666 -170 -126.999l-9 1l-22 32c65.333 53.333 120 101.666 164 144.999l9 -1z" />
    <glyph glyph-name="Oslashacute" unicode="&#x1fe;" horiz-adv-x="635" 
d="M598 333c0 -108.667 -25 -192.667 -75 -252s-121 -89 -213 -89c-40.667 0 -76.334 6 -107.001 18l-53 -112l-49 17l-4 8l54 115c-75.333 52.667 -113 145 -113 277c0 106.667 24.833 188.667 74.5 246s120.834 86 213.501 86c38 0 72 -5 102 -15l43 92l48 -18l5 -10
l-42 -90c77.333 -50.667 116 -141.667 116 -273zM183 108l215 459.999c-22 8.66699 -48.333 13 -79 13c-132.667 0 -199 -85.333 -199 -256c0 -101.333 21 -173.666 63 -216.999zM515 318.999c0 102.667 -22 175 -66 217l-217 -462c24 -10 51.667 -15 83 -15
c133.333 0 200 86.667 200 260zM454 815.999l-2 -8l-195 -86l-10 4l-14 36c68.667 34 132.667 68.333 192 103l9 -2z" />
    <glyph glyph-name="oslashacute" unicode="&#x1ff;" horiz-adv-x="491" 
d="M447 235c0 -77.333 -18.168 -137.166 -54.501 -179.499s-87.5 -63.5 -153.5 -63.5c-27.333 0 -52.666 4 -75.999 12l-60 -120l-44 20l-3 8l60 119c-49.333 39.333 -74 103.333 -74 192c0 77.333 18.167 137.166 54.5 179.499s87.5 63.5 153.5 63.5
c29.333 0 55 -4.33301 77 -13l49 98l41 -19l5 -9l-48 -96c48.667 -40.667 73 -104.667 73 -192zM148.999 98l150.001 300.001c-14.667 8 -32.334 12 -53.001 12c-42 0 -74 -14.333 -96 -43s-33 -70.667 -33 -126c0 -62.667 10.667 -110.334 32 -143.001zM373 217.001
c0 62.667 -10.667 110.333 -32 143l-150 -300c16 -7.33301 33.667 -11 53 -11c86 0 129 56 129 168zM374 654l-2 -8c-66 -51.333 -122.667 -93.666 -170 -126.999l-9 1l-22 32c65.333 53.333 120 101.666 164 144.999l9 -1z" />
    <glyph glyph-name="Scommaaccent" unicode="&#x218;" horiz-adv-x="472" 
d="M410 616l-13.0059 -77.002l-14 -4c-40 30.667 -82 46 -126 46c-24.667 0 -46.167 -5 -64.5 -15s-32.333 -23 -42 -39s-14.5 -32.667 -14.5 -50c0 -18 5.5 -33.833 16.5 -47.5s24.833 -25.5 41.5 -35.5s39.334 -22 68.001 -36c36 -16.667 65 -32.167 87 -46.5
s40.833 -32.5 56.5 -54.5s23.5 -48.667 23.5 -80c0 -33.333 -9 -64 -27 -92s-43.333 -50.333 -76 -67s-70 -25 -112 -25c-61.333 0 -118.666 15 -171.999 45l10 82l11 5c23.333 -22.667 49.166 -39.5 77.499 -50.5s55.5 -16.5 81.5 -16.5c25.333 0 47.833 5 67.5 15
s34.667 23.333 45 40s15.5 34.334 15.5 53.001c0 28 -10.667 50.5 -32 67.5s-53.666 35.5 -96.999 55.5c-35.333 17.333 -63.666 32.833 -84.999 46.5s-39.666 31.334 -54.999 53.001s-23 48.167 -23 79.5c0 32.667 8.83301 62.667 26.5 90s42.334 48.833 74.001 64.5
s67.834 23.5 108.501 23.5c46 0 93.667 -10 143 -30zM285.994 -118.002c0 -40.667 -29.333 -82.332 -88 -124.999l-26 23v6c34.667 27.333 52 54.666 52 81.999c0 16 -9.66699 31 -29 45v7c16 10.667 33.333 19 52 25c26 -18 39 -39 39 -63z" />
    <glyph glyph-name="scommaaccent" unicode="&#x219;" horiz-adv-x="370" 
d="M315 443l-10.998 -65.0029l-12 -3c-34 22 -66.333 33 -97 33c-22.667 0 -40.834 -6.33301 -54.501 -19s-20.5 -28 -20.5 -46s7.16699 -32.5 21.5 -43.5s36.5 -23.5 66.5 -37.5c26 -12 46.833 -22.833 62.5 -32.5s29.167 -22.5 40.5 -38.5s17 -35.667 17 -59
c0 -24.667 -6.33301 -47.667 -19 -69s-31.334 -38.5 -56.001 -51.5s-54 -19.5 -88 -19.5c-46.667 0 -91 11 -133 33l9 68l10 6c18 -16 37.833 -28.333 59.5 -37s42.167 -13 61.5 -13c25.333 0 45.5 6.83301 60.5 20.5s22.5 29.834 22.5 48.501c0 18 -7 32.667 -21 44
s-36 23.666 -66 36.999c-26 12 -47 22.833 -63 32.5s-29.667 22.834 -41 39.501s-17 37.334 -17 62.001c0 38.667 14.167 70.334 42.5 95.001s66.833 37 115.5 37c38 0 74.667 -7.33301 110 -22zM231.002 -118.003c0 -40.667 -29.333 -82.332 -88 -124.999l-26 23v6
c34.667 27.333 52 54.666 52 81.999c0 16 -9.66699 31 -29 45v7c16 10.667 33.333 19 52 25c26 -18 39 -39 39 -63z" />
    <glyph glyph-name="uni021A" unicode="&#x21a;" horiz-adv-x="490" 
d="M463 571l-112 6h-65l-4 -377l4 -200h-81l5 193l-4 384h-64l-114 -6l-6 8l7 62h435l5 -8zM298 -118c0 -40.667 -29.333 -82.332 -88 -124.999l-26 23v6c34.667 27.333 52 54.666 52 81.999c0 16 -9.66699 31 -29 45v7c16 10.667 33.333 19 52 25c26 -18 39 -39 39 -63z
" />
    <glyph glyph-name="uni021B" unicode="&#x21b;" horiz-adv-x="319" 
d="M297 81l8.00195 -5.99902l-7 -52c-36 -16.667 -69.333 -26.334 -100 -29.001c-38.667 7.33301 -66.334 21.333 -83.001 42s-25 50.667 -25 90l4 71l-1 207h-64l-4 6l5 47h62v74l69 30l7 -7l-2 -97h136l3 -6l-4 -47h-135l-5 -271
c-0.666992 -26 4.16602 -44.5 14.499 -55.5s26.5 -16.5 48.5 -16.5c22.667 0 47 6.66699 73 20zM247.002 -117.999c0 -40.667 -29.333 -82.332 -88 -124.999l-26 23v6c34.667 27.333 52 54.666 52 81.999c0 16 -9.66699 31 -29 45v7c16 10.667 33.333 19 52 25
c26 -18 39 -39 39 -63z" />
    <glyph glyph-name="dotlessj" unicode="&#x237;" horiz-adv-x="265" 
d="M175 201l5 -181.999c0 -52 -10.5 -93.833 -31.5 -125.5s-56.833 -60.834 -107.5 -87.501l-30 36v9c35.333 20.667 59.833 43 73.5 67s20.5 56.333 20.5 97l2 179l-4 210h-92l-6 7l5 46h94l75 3l3 -2z" />
    <glyph glyph-name="circumflex" unicode="&#x2c6;" 
d="M183 688h24.001c41.333 -51.333 81.666 -96 120.999 -134l-22 -32h-9c-41.333 39.333 -75.333 74 -102 104c-25.333 -28 -59.333 -62.667 -102 -104h-10l-22 32c38 38 78.667 82.667 122 134z" />
    <glyph glyph-name="caron" unicode="&#x2c7;" 
d="M206 522h-24.001c-41.333 51.333 -81.666 96 -120.999 134l22 32h9c41.333 -39.333 75.333 -74 102 -104c25.333 28 59.333 62.667 102 104h10l22 -32c-38 -38 -78.667 -82.667 -122 -134z" />
    <glyph glyph-name="firsttonechinese" unicode="&#x2c9;" 
d="M337 582h-283l-6 6l5 46h283l6 -5z" />
    <glyph glyph-name="breve" unicode="&#x2d8;" 
d="M193 527c-67.333 0 -108.669 38.333 -124.002 115l22 29h12c12.667 -58 43.334 -87 92.001 -87s79.334 29 92.001 87h12l23 -29c-18 -76.667 -61 -115 -129 -115z" />
    <glyph glyph-name="dotaccent" unicode="&#x2d9;" horiz-adv-x="244" 
d="M155 650c8 -8 12 -18.999 12 -32.999c0 -14.667 -4.16699 -26.334 -12.5 -35.001s-19.833 -13 -34.5 -13c-29.333 0 -44 15.333 -44 46c0 14 4.16699 25.333 12.5 34s19.833 13 34.5 13c13.333 0 24 -4 32 -12z" />
    <glyph glyph-name="ring" unicode="&#x2da;" 
d="M256 674.5c14.667 -15 22 -34.5 22 -58.5c0 -26 -8.16699 -46.5 -24.5 -61.5s-36.833 -22.5 -61.5 -22.5c-24 0 -43.667 7.16699 -59 21.5s-23 34.5 -23 60.5c0 25.333 7.66699 45.5 23 60.5s36 22.5 62 22.5s46.333 -7.5 61 -22.5zM148 615
c0 -14.667 4.16797 -25.833 12.501 -33.5s19.5 -11.5 33.5 -11.5c13.333 0 24.166 3.66699 32.499 11s12.5 18 12.5 32c0 30 -15.333 45 -46 45c-30 0 -45 -14.333 -45 -43z" />
    <glyph glyph-name="ogonek" unicode="&#x2db;" 
d="M163 -103c0 -12 3.5 -21.666 10.5 -28.999s16.833 -11 29.5 -11c22.667 0 45.667 12.667 69 38h5l11 -40c-33.333 -34.667 -66 -52 -98 -52c-24 0 -43.167 7.33301 -57.5 22s-21.5 34 -21.5 58c0 25.333 8.33301 49.666 25 72.999l62 90h48l-65 -99
c-12 -19.333 -18 -36 -18 -50z" />
    <glyph glyph-name="tilde" unicode="&#x2dc;" 
d="M352 634l-61.001 -69.001l-10 -3c-14.667 1.33301 -42.667 8 -84 20c-38 11.333 -61.667 17 -71 17c-4.66699 0 -9.66699 -2.16699 -15 -6.5s-13.666 -12.166 -24.999 -23.499l-16 -17h-9l-24 26v7l61 69l10 3c16 -1.33301 43.667 -8 83 -20
c41.333 -10.667 65.333 -16 72 -16c8.66699 0 22 9.66699 40 29l17 17h8l24 -25v-8z" />
    <glyph glyph-name="hungarumlaut" unicode="&#x2dd;" 
d="M169 697l7 1.00098l37 -27v-8c-42 -44 -90 -91.667 -144 -143l-9 -1l-26 24c31.333 33.333 76.333 84.666 135 153.999zM310 697.001l8 1l37 -27l-1 -8c-42 -44 -90 -91.667 -144 -143l-8 -1l-27 24c36.667 38.667 81.667 90 135 154z" />
    <glyph glyph-name="tildecomb" unicode="&#x303;" horiz-adv-x="0" 
d="M352 634l-62.001 -70.002l-10 -3c-6.66699 0.666992 -33.667 7.33398 -81 20.001c-41.333 12 -65.666 18 -72.999 18c-4.66699 0 -9.66699 -2.16699 -15 -6.5s-13.666 -12.166 -24.999 -23.499l-16 -17h-9l-24 26v7l62 69l10 4c15.333 -1.33301 42.666 -8 81.999 -20
c38 -11.333 62 -17 72 -17c8.66699 0 22 9.66699 40 29l17 17h8l24 -25v-8z" />
    <glyph glyph-name="dotbelowcomb" unicode="&#x323;" horiz-adv-x="0" 
d="M148 -50c8 -8 12 -18.999 12 -32.999c0 -14.667 -4.16699 -26.334 -12.5 -35.001s-19.833 -13 -34.5 -13c-29.333 0 -44 15.333 -44 46c0 14 4.16699 25.333 12.5 34s19.833 13 34.5 13c13.333 0 24 -4 32 -12z" />
    <glyph glyph-name="commaaccentcomb" unicode="&#x326;" horiz-adv-x="0" 
d="M153.602 -85.3486c0 -40.4111 -29.2197 -82.0674 -87.6602 -124.965l-25.1787 23.3145v6.52734c34.1943 26.7334 51.291 54.0889 51.291 82.0664c0 16.7861 -9.63672 31.3965 -28.9092 43.8311v7.45996c17.4072 11.8125 34.5039 19.8945 51.29 24.2471
c26.1113 -16.165 39.167 -36.9922 39.167 -62.4814z" />
    <glyph glyph-name="Delta" unicode="&#x394;" horiz-adv-x="578" 
d="M14 0l234 641h93l215 -641h-542zM111 67h346l-160 491h-7z" />
    <glyph glyph-name="Omega" unicode="&#x3a9;" horiz-adv-x="744" 
d="M531.5 609.5c41.667 -25 72.6689 -58.834 93.002 -101.501s30.5 -89.667 30.5 -141c0 -56 -11.833 -110.667 -35.5 -164s-57.834 -99 -102.501 -137l2 -4h100l82 7l5 -6l-10 -67l-99 4h-132l-38 -2l-5 4v64c47.333 34 84.166 78 110.499 132s39.5 108.667 39.5 164
c0 64 -17 116.667 -51 158s-83.667 62 -149 62s-115 -20.5 -149 -61.5s-51 -93.5 -51 -157.5c0 -55.333 13 -110.166 39 -164.499s62.333 -98.5 109 -132.5v-64l-4 -4l-39 2h-146l-88 -3l-6 7l11 64l86 -6h90l1 4c-44 36.667 -77.667 80.667 -101 132s-35 104.333 -35 159
c0 52.667 11 101.167 33 145.5s54.833 79.5 98.5 105.5s96.5 39 158.5 39c60 0 110.833 -12.5 152.5 -37.5z" />
    <glyph glyph-name="mu" unicode="&#x3bc;" horiz-adv-x="511" 
d="M480 14c-18 -12.667 -37.666 -19 -58.999 -19c-36.667 0 -59.334 21.667 -68.001 65h-7c-40.667 -35.333 -84 -57.333 -130 -66c-26.667 0 -49.667 5.66699 -69 17v-196h-74l2 379l-2 259l74 7v-317c0.666992 -25.333 8 -45.333 22 -60s33.333 -22 58 -22
c38.667 0 79.334 20.333 122.001 61v331l75 7l-5 -357c-0.666992 -33.333 8.66602 -50 27.999 -50c10 0 21.333 4 34 12l8 -6z" />
    <glyph glyph-name="pi" unicode="&#x3c0;" horiz-adv-x="627" 
d="M476 103c0 -33.333 9.66699 -50 29 -50c10.667 0 23 4 37 12l8 -5l-9 -46c-22 -12.667 -41.667 -19 -59 -19c-51.333 0 -77 33 -77 99v340h-171v-233l2 -294h-77l3 287l-3 240h-37c-7.33301 0 -15.333 -3.5 -24 -10.5s-22 -19.5 -40 -37.5l-18 -17h-11l-23 30v9l79 85
l15 5l483 1l6 -7l-7 -59l-104 1z" />
    <glyph glyph-name="Wgrave" unicode="&#x1e80;" horiz-adv-x="893" 
d="M550 761l-14 -36l-10 -4l-195 86l-2 8l20 47l9 2c59.333 -34.667 123.333 -69 192 -103zM572 0l-125 372h-7l-132 -372h-83l-204 641h79l12 -62l156 -490h7l138 390l-55 162h82l16 -69l158 -483h6l174 486l15 66h75l-229 -641h-83z" />
    <glyph glyph-name="wgrave" unicode="&#x1e81;" horiz-adv-x="676" 
d="M443 552l-22 -32l-9 -1c-47.333 33.333 -104 75.666 -170 126.999l-2 8l30 42l9 1c44 -43.333 98.667 -91.666 164 -144.999zM189 86h6l97 312l15 60h78l11 -56l84 -316h6l97 312l15 60h69l-151 -458h-75l-96 355h-7l-111 -355h-78l-128 456l73 5l11 -59z" />
    <glyph glyph-name="Wacute" unicode="&#x1e82;" horiz-adv-x="893" 
d="M572 0l-125 372h-7l-132 -372h-83l-204 641h80l11 -62l156 -490h7l138 390l-54 162h82l15 -69l158 -483h6l174 486l15 66h76l-230 -641h-83zM577 814l-2 -8l-195 -86l-10 4l-14 36c68.667 34 132.667 68.333 192 103l9 -2z" />
    <glyph glyph-name="wacute" unicode="&#x1e83;" horiz-adv-x="676" 
d="M189 86h5l97 312l16 60h78l11 -56l84 -316h5l98 312l14 60h70l-151 -458h-76l-95 355h-7l-111 -355h-78l-128 456l73 5l11 -59zM471 654l-2 -8c-66 -51.333 -122.667 -93.666 -170 -126.999l-9 1l-22 32c65.333 53.333 120 101.666 164 144.999l9 -1z" />
    <glyph glyph-name="Wdieresis" unicode="&#x1e84;" horiz-adv-x="893" 
d="M394 822c7.33301 -7.33301 11 -17.666 11 -30.999c0 -14 -4 -25.333 -12 -34s-19 -13 -33 -13c-13.333 0 -23.666 4 -30.999 12s-11 18.667 -11 32s4 24.166 12 32.499s19 12.5 33 12.5c13.333 0 23.666 -3.66699 30.999 -11zM551 822
c7.33301 -7.33301 11 -17.666 11 -30.999c0 -14 -4 -25.333 -12 -34s-19 -13 -33 -13c-13.333 0 -23.666 4 -30.999 12s-11 18.667 -11 32s4 24.166 12 32.499s19 12.5 33 12.5c13.333 0 23.666 -3.66699 30.999 -11zM572 0l-125 372h-7l-132 -372h-83l-204 641h79l12 -62
l156 -490h7l138 390l-55 162h82l16 -69l158 -483h6l174 486l15 66h75l-229 -641h-83z" />
    <glyph glyph-name="wdieresis" unicode="&#x1e85;" horiz-adv-x="676" 
d="M297 640c7.33301 -7.33301 11 -17.666 11 -30.999c0 -14 -4 -25.333 -12 -34s-19 -13 -33 -13c-13.333 0 -23.666 4 -30.999 12s-11 18.667 -11 32s4 24.166 12 32.499s19 12.5 33 12.5c13.333 0 23.666 -3.66699 30.999 -11zM454 640
c7.33301 -7.33301 11 -17.666 11 -30.999c0 -14 -4 -25.333 -12 -34s-19 -13 -33 -13c-13.333 0 -23.666 4 -30.999 12s-11 18.667 -11 32s4 24.166 12 32.499s19 12.5 33 12.5c13.333 0 23.666 -3.66699 30.999 -11zM189 86h6l97 312l15 60h78l11 -56l84 -316h6l97 312
l15 60h69l-151 -458h-75l-96 355h-7l-111 -355h-78l-128 456l73 5l11 -59z" />
    <glyph glyph-name="uni1E9E" unicode="&#x1e9e;" horiz-adv-x="631" 
d="M555 584l4 -15.999l-167 -204c71.333 -22 124 -47.333 158 -76s51 -67.667 51 -117c0 -36 -8.83301 -67.5 -26.5 -94.5s-41.667 -47.667 -72 -62s-63.833 -21.5 -100.5 -21.5c-60 0 -115.667 15 -167 45l10 82l11 5c22 -20.667 46.833 -37 74.5 -49
s53.834 -18 78.501 -18c33.333 0 60.5 10 81.5 30s31.5 45 31.5 75c0 36 -17.5 65.833 -52.5 89.5s-92.833 46.167 -173.5 67.5l-5 17l167 209c-48 22.667 -94.667 34 -140 34c-52.667 0 -93.5 -13.833 -122.5 -41.5s-43.5 -65.834 -43.5 -114.501l-2 -223l3 -201h-81l6 190
l-3 234c-0.666992 44 8.83301 82.833 28.5 116.5s48.167 59.667 85.5 78s81 27.5 131 27.5c69.333 0 147.666 -20.667 234.999 -62z" />
    <glyph glyph-name="Adotbelow" unicode="&#x1ea0;" horiz-adv-x="578" 
d="M474 0l-14 64l-36 110l-145 3l-130 -3l-39 -106l-16 -68h-80l236 641h93l214 -641h-83zM297 558h-7l-116 -316l112 -2l115 2zM319 -82c8 -8 12 -18.999 12 -32.999c0 -14.667 -4.16699 -26.334 -12.5 -35.001s-19.833 -13 -34.5 -13c-29.333 0 -44 15.333 -44 46
c0 14 4.16699 25.333 12.5 34s19.833 13 34.5 13c13.333 0 24 -4 32 -12z" />
    <glyph glyph-name="adotbelow" unicode="&#x1ea1;" horiz-adv-x="462" 
d="M333 434c25.333 -21.333 37.999 -50.667 37.999 -88c0 -11.333 -2 -52.333 -6 -123c-4.66699 -62 -7 -103.333 -7 -124c0 -14.667 2.33301 -24.834 7 -30.501s13 -8.5 25 -8.5c10 0 21 2 33 6l8 -7l-7 -45c-19.333 -11.333 -38.333 -18 -57 -20
c-43.333 4 -66.666 28.667 -69.999 74h-6c-36 -36.667 -71.667 -61.667 -107 -75c-44.667 0 -79.5 11.167 -104.5 33.5s-37.5 52.833 -37.5 91.5c0 56.667 31 92.334 93 107.001l162 38l1 65c0 26 -6.83301 46 -20.5 60s-33.167 21 -58.5 21c-44 0 -91 -22 -141 -66l-8 4
l-11 57c56.667 41.333 114 62 172 62c42.667 0 76.667 -10.667 102 -32zM121.999 160.999c-6 -7.33301 -9.00098 -18.001 -9.00098 -32.001c0 -22 6.16699 -39.167 18.5 -51.5s28.5 -18.5 48.5 -18.5c36.667 0 74.334 23.667 113.001 71l3 82l-145 -35
c-13.333 -3.33301 -23 -8.66602 -29 -15.999zM255.998 -82.002c8 -8 12 -18.999 12 -32.999c0 -14.667 -4.16699 -26.334 -12.5 -35.001s-19.833 -13 -34.5 -13c-29.333 0 -44 15.333 -44 46c0 14 4.16699 25.333 12.5 34s19.833 13 34.5 13c13.333 0 24 -4 32 -12z" />
    <glyph glyph-name="Ahookabove" unicode="&#x1ea2;" horiz-adv-x="578" 
d="M474 0l-15 64l-36 110l-144 3l-130 -3l-39 -106l-16 -68h-80l235 641h93l214 -641h-82zM297 558h-7l-116 -316l112 -2l115 2zM331 877.5c12 -11 17.999 -24.5 17.999 -40.5c0 -21.333 -17.333 -46.333 -52 -75l20 -34l-35 -19l-32 55c33.333 24 50 45.667 50 65
c0 14 -8.66699 21 -26 21c-20 0 -39.333 -8 -58 -24l-16 26c26.667 28 55.334 42 86.001 42c18 0 33 -5.5 45 -16.5z" />
    </font>
</defs>
</svg>
